<mxfile host="65bd71144e">
    <diagram id="VcL4bj26udjojHI4lYyt" name="Classes">
        <mxGraphModel dx="1845" dy="977" grid="1" gridSize="10" guides="1" tooltips="1" connect="1" arrows="1" fold="1" page="1" pageScale="1" pageWidth="827" pageHeight="1169" math="0" shadow="0">
            <root>
                <mxCell id="0"/>
                <mxCell id="1" parent="0"/>
                <mxCell id="158" style="edgeStyle=orthogonalEdgeStyle;html=1;exitX=1;exitY=0.25;exitDx=0;exitDy=0;entryX=0.5;entryY=0;entryDx=0;entryDy=0;" edge="1" parent="1" source="2" target="53">
                    <mxGeometry relative="1" as="geometry">
                        <Array as="points">
                            <mxPoint x="505" y="128"/>
                            <mxPoint x="1300" y="128"/>
                        </Array>
                    </mxGeometry>
                </mxCell>
                <mxCell id="159" style="edgeStyle=orthogonalEdgeStyle;html=1;exitX=1;exitY=0.25;exitDx=0;exitDy=0;entryX=0.5;entryY=0;entryDx=0;entryDy=0;" edge="1" parent="1" source="2" target="73">
                    <mxGeometry relative="1" as="geometry">
                        <Array as="points">
                            <mxPoint x="1040" y="128"/>
                            <mxPoint x="1040" y="300"/>
                            <mxPoint x="1300" y="300"/>
                        </Array>
                    </mxGeometry>
                </mxCell>
                <mxCell id="160" style="edgeStyle=orthogonalEdgeStyle;html=1;exitX=1;exitY=0.25;exitDx=0;exitDy=0;entryX=0.5;entryY=0;entryDx=0;entryDy=0;" edge="1" parent="1" source="2" target="80">
                    <mxGeometry relative="1" as="geometry">
                        <Array as="points">
                            <mxPoint x="780" y="128"/>
                        </Array>
                    </mxGeometry>
                </mxCell>
                <mxCell id="2" value="JCA::FNC::Protocol" style="swimlane;fontStyle=1;align=center;verticalAlign=top;childLayout=stackLayout;horizontal=1;startSize=26;horizontalStack=0;resizeParent=1;resizeParentMax=0;resizeLast=0;collapsible=1;marginBottom=0;" vertex="1" parent="1">
                    <mxGeometry x="80" y="80" width="330" height="190" as="geometry">
                        <mxRectangle x="80" y="80" width="100" height="26" as="alternateBounds"/>
                    </mxGeometry>
                </mxCell>
                <mxCell id="20" value="Name : String" style="label;fontStyle=0;strokeColor=none;fillColor=none;align=left;verticalAlign=top;overflow=hidden;spacingLeft=28;spacingRight=4;rotatable=0;points=[[0,0.5],[1,0.5]];portConstraint=eastwest;imageWidth=16;imageHeight=16;image=data:image/svg+xml,PHN2ZyB4bWxucz0iaHR0cDovL3d3dy53My5vcmcvMjAwMC9zdmciIGhlaWdodD0iNDgiIHdpZHRoPSI0OCIgdmlld0JveD0iMCAwIDQ4IDQ4Ij4KICA8cGF0aCBmaWxsPSJncmVlbiIgZD0iTTI0IDQzLjk1cS03LTEuNzUtMTEuNS04LjEyNVQ4IDIxLjg1VjkuOTVsMTYtNiAxNiA2djExLjlxMCA3LjYtNC41IDEzLjk3NVQyNCA0My45NVptMC0zLjFxNS43NS0xLjkgOS4zNzUtNy4xNzVUMzcgMjEuODV2LTkuOGwtMTMtNC45LTEzIDQuOXY5LjhxMCA2LjU1IDMuNjI1IDExLjgyNVExOC4yNSAzOC45NSAyNCA0MC44NVpNMjQgMjRaIi8+Cjwvc3ZnPg==;rounded=1;shadow=0;glass=0;autosize=0;imageVerticalAlign=middle;spacing=0;spacingBottom=0;" vertex="1" parent="2">
                    <mxGeometry y="26" width="330" height="20" as="geometry"/>
                </mxCell>
                <mxCell id="21" value="Comment : String" style="label;fontStyle=0;strokeColor=none;fillColor=none;align=left;verticalAlign=top;overflow=hidden;spacingLeft=28;spacingRight=4;rotatable=0;points=[[0,0.5],[1,0.5]];portConstraint=eastwest;imageWidth=16;imageHeight=16;image=data:image/svg+xml,PHN2ZyB4bWxucz0iaHR0cDovL3d3dy53My5vcmcvMjAwMC9zdmciIGhlaWdodD0iNDgiIHdpZHRoPSI0OCIgdmlld0JveD0iMCAwIDQ4IDQ4Ij4KICA8cGF0aCBmaWxsPSJncmVlbiIgZD0iTTI0IDQzLjk1cS03LTEuNzUtMTEuNS04LjEyNVQ4IDIxLjg1VjkuOTVsMTYtNiAxNiA2djExLjlxMCA3LjYtNC41IDEzLjk3NVQyNCA0My45NVptMC0zLjFxNS43NS0xLjkgOS4zNzUtNy4xNzVUMzcgMjEuODV2LTkuOGwtMTMtNC45LTEzIDQuOXY5LjhxMCA2LjU1IDMuNjI1IDExLjgyNVExOC4yNSAzOC45NSAyNCA0MC44NVpNMjQgMjRaIi8+Cjwvc3ZnPg==;rounded=1;shadow=0;glass=0;autosize=0;imageVerticalAlign=middle;spacing=0;arcSize=12;fillOpacity=100;spacingBottom=0;" vertex="1" parent="2">
                    <mxGeometry y="46" width="330" height="20" as="geometry"/>
                </mxCell>
                <mxCell id="33" value="" style="line;strokeWidth=1;fillColor=none;align=left;verticalAlign=middle;spacingTop=-1;spacingLeft=3;spacingRight=3;rotatable=0;labelPosition=right;points=[];portConstraint=eastwest;rounded=1;shadow=0;glass=0;" vertex="1" parent="2">
                    <mxGeometry y="66" width="330" height="4" as="geometry"/>
                </mxCell>
                <mxCell id="51" value="Protocol (String _Name, String _Comment)" style="text;strokeColor=none;fillColor=none;align=left;verticalAlign=middle;spacingLeft=4;spacingRight=4;overflow=hidden;rotatable=0;points=[[0,0.5],[1,0.5]];portConstraint=eastwest;rounded=1;shadow=0;glass=0;" vertex="1" parent="2">
                    <mxGeometry y="70" width="330" height="20" as="geometry"/>
                </mxCell>
                <mxCell id="52" value="Protocol (String _Name)" style="text;strokeColor=none;fillColor=none;align=left;verticalAlign=middle;spacingLeft=4;spacingRight=4;overflow=hidden;rotatable=0;points=[[0,0.5],[1,0.5]];portConstraint=eastwest;rounded=1;shadow=0;glass=0;" vertex="1" parent="2">
                    <mxGeometry y="90" width="330" height="20" as="geometry"/>
                </mxCell>
                <mxCell id="22" value="update (struct tm &amp;_Time) : void" style="label;fontStyle=0;strokeColor=none;fillColor=none;align=left;verticalAlign=top;overflow=hidden;spacingLeft=28;spacingRight=0;rotatable=0;points=[[0,0.5],[1,0.5]];portConstraint=eastwest;imageWidth=16;imageHeight=16;image=data:image/svg+xml,PHN2ZyB4bWxucz0iaHR0cDovL3d3dy53My5vcmcvMjAwMC9zdmciIGhlaWdodD0iNDgiIHdpZHRoPSI0OCIgdmlld0JveD0iMCAwIDQ4IDQ4Ij4KICA8cGF0aCBmaWxsPSJncmF5IiBkPSJNMjQgNDRxLTQuMTUgMC03LjgtMS41NzUtMy42NS0xLjU3NS02LjM1LTQuMjc1LTIuNy0yLjctNC4yNzUtNi4zNVE0IDI4LjE1IDQgMjR0MS41NzUtNy44UTcuMTUgMTIuNTUgOS44NSA5Ljg1cTIuNy0yLjcgNi4zNS00LjI3NVExOS44NSA0IDI0IDR0Ny44IDEuNTc1cTMuNjUgMS41NzUgNi4zNSA0LjI3NSAyLjcgMi43IDQuMjc1IDYuMzVRNDQgMTkuODUgNDQgMjR0LTEuNTc1IDcuOHEtMS41NzUgMy42NS00LjI3NSA2LjM1LTIuNyAyLjctNi4zNSA0LjI3NVEyOC4xNSA0NCAyNCA0NFptLTIuMTUtMy4wNXYtNC4xcS0xLjc1IDAtMi45NS0xLjMtMS4yLTEuMy0xLjItMy4wNXYtMi4yTDcuNDUgMjAuMDVxLS4yNSAxLS4zNSAxLjk3NVE3IDIzIDcgMjRxMCA2LjUgNC4yMjUgMTEuMzV0MTAuNjI1IDUuNlptMTQuNy01LjRxMS4xLTEuMiAxLjkyNS0yLjU1LjgyNS0xLjM1IDEuNC0yLjgyNXQuODUtMy4wMjVRNDEgMjUuNiA0MSAyNHEwLTUuMy0yLjktOS42MjVUMzAuMzUgOC4wNXYuOXEwIDEuNzUtMS4yIDMuMDUtMS4yIDEuMy0yLjk1IDEuM2gtNC4zNXY0LjM1cTAgLjg1LS42NzUgMS40LS42NzUuNTUtMS41MjUuNTVIMTUuNVYyNGgxMi45cS44NSAwIDEuNC42NS41NS42NS41NSAxLjV2Ni4zNWgyLjE1cTEuNDUgMCAyLjU1Ljg1IDEuMS44NSAxLjUgMi4yWiIvPgo8L3N2Zz4=;rounded=1;shadow=0;glass=0;rotation=0;imageVerticalAlign=middle;autosize=0;spacing=0;spacingTop=0;spacingBottom=0;" vertex="1" parent="2">
                    <mxGeometry y="110" width="330" height="20" as="geometry"/>
                </mxCell>
                <mxCell id="44" value="set (JsonArray &amp;_Elements) : void" style="label;fontStyle=0;strokeColor=none;fillColor=none;align=left;verticalAlign=top;overflow=hidden;spacingLeft=28;spacingRight=0;rotatable=0;points=[[0,0.5],[1,0.5]];portConstraint=eastwest;imageWidth=16;imageHeight=16;image=data:image/svg+xml,PHN2ZyB4bWxucz0iaHR0cDovL3d3dy53My5vcmcvMjAwMC9zdmciIGhlaWdodD0iNDgiIHdpZHRoPSI0OCIgdmlld0JveD0iMCAwIDQ4IDQ4Ij4KICA8cGF0aCBmaWxsPSJncmVlbiIgZD0iTTI0IDQ0cS00LjE1IDAtNy44LTEuNTc1LTMuNjUtMS41NzUtNi4zNS00LjI3NS0yLjctMi43LTQuMjc1LTYuMzVRNCAyOC4xNSA0IDI0dDEuNTc1LTcuOFE3LjE1IDEyLjU1IDkuODUgOS44NXEyLjctMi43IDYuMzUtNC4yNzVRMTkuODUgNCAyNCA0dDcuOCAxLjU3NXEzLjY1IDEuNTc1IDYuMzUgNC4yNzUgMi43IDIuNyA0LjI3NSA2LjM1UTQ0IDE5Ljg1IDQ0IDI0dC0xLjU3NSA3LjhxLTEuNTc1IDMuNjUtNC4yNzUgNi4zNS0yLjcgMi43LTYuMzUgNC4yNzVRMjguMTUgNDQgMjQgNDRabS0yLjE1LTMuMDV2LTQuMXEtMS43NSAwLTIuOTUtMS4zLTEuMi0xLjMtMS4yLTMuMDV2LTIuMkw3LjQ1IDIwLjA1cS0uMjUgMS0uMzUgMS45NzVRNyAyMyA3IDI0cTAgNi41IDQuMjI1IDExLjM1dDEwLjYyNSA1LjZabTE0LjctNS40cTEuMS0xLjIgMS45MjUtMi41NS44MjUtMS4zNSAxLjQtMi44MjV0Ljg1LTMuMDI1UTQxIDI1LjYgNDEgMjRxMC01LjMtMi45LTkuNjI1VDMwLjM1IDguMDV2LjlxMCAxLjc1LTEuMiAzLjA1LTEuMiAxLjMtMi45NSAxLjNoLTQuMzV2NC4zNXEwIC44NS0uNjc1IDEuNC0uNjc1LjU1LTEuNTI1LjU1SDE1LjVWMjRoMTIuOXEuODUgMCAxLjQuNjUuNTUuNjUuNTUgMS41djYuMzVoMi4xNXExLjQ1IDAgMi41NS44NSAxLjEuODUgMS41IDIuMloiLz4KPC9zdmc+;rounded=1;shadow=0;glass=0;rotation=0;imageVerticalAlign=middle;autosize=0;spacing=0;spacingTop=0;spacingBottom=0;" vertex="1" parent="2">
                    <mxGeometry y="130" width="330" height="20" as="geometry"/>
                </mxCell>
                <mxCell id="45" value="getValues (JsonObject &amp;_Elemets) : void" style="label;fontStyle=0;strokeColor=none;fillColor=none;align=left;verticalAlign=top;overflow=hidden;spacingLeft=28;spacingRight=0;rotatable=0;points=[[0,0.5],[1,0.5]];portConstraint=eastwest;imageWidth=16;imageHeight=16;image=data:image/svg+xml,PHN2ZyB4bWxucz0iaHR0cDovL3d3dy53My5vcmcvMjAwMC9zdmciIGhlaWdodD0iNDgiIHdpZHRoPSI0OCIgdmlld0JveD0iMCAwIDQ4IDQ4Ij4KICA8cGF0aCBmaWxsPSJncmVlbiIgZD0iTTI0IDQ0cS00LjE1IDAtNy44LTEuNTc1LTMuNjUtMS41NzUtNi4zNS00LjI3NS0yLjctMi43LTQuMjc1LTYuMzVRNCAyOC4xNSA0IDI0dDEuNTc1LTcuOFE3LjE1IDEyLjU1IDkuODUgOS44NXEyLjctMi43IDYuMzUtNC4yNzVRMTkuODUgNCAyNCA0dDcuOCAxLjU3NXEzLjY1IDEuNTc1IDYuMzUgNC4yNzUgMi43IDIuNyA0LjI3NSA2LjM1UTQ0IDE5Ljg1IDQ0IDI0dC0xLjU3NSA3LjhxLTEuNTc1IDMuNjUtNC4yNzUgNi4zNS0yLjcgMi43LTYuMzUgNC4yNzVRMjguMTUgNDQgMjQgNDRabS0yLjE1LTMuMDV2LTQuMXEtMS43NSAwLTIuOTUtMS4zLTEuMi0xLjMtMS4yLTMuMDV2LTIuMkw3LjQ1IDIwLjA1cS0uMjUgMS0uMzUgMS45NzVRNyAyMyA3IDI0cTAgNi41IDQuMjI1IDExLjM1dDEwLjYyNSA1LjZabTE0LjctNS40cTEuMS0xLjIgMS45MjUtMi41NS44MjUtMS4zNSAxLjQtMi44MjV0Ljg1LTMuMDI1UTQxIDI1LjYgNDEgMjRxMC01LjMtMi45LTkuNjI1VDMwLjM1IDguMDV2LjlxMCAxLjc1LTEuMiAzLjA1LTEuMiAxLjMtMi45NSAxLjNoLTQuMzV2NC4zNXEwIC44NS0uNjc1IDEuNC0uNjc1LjU1LTEuNTI1LjU1SDE1LjVWMjRoMTIuOXEuODUgMCAxLjQuNjUuNTUuNjUuNTUgMS41djYuMzVoMi4xNXExLjQ1IDAgMi41NS44NSAxLjEuODUgMS41IDIuMloiLz4KPC9zdmc+;rounded=1;shadow=0;glass=0;rotation=0;imageVerticalAlign=middle;autosize=0;spacing=0;spacingTop=0;spacingBottom=0;" vertex="1" parent="2">
                    <mxGeometry y="150" width="330" height="20" as="geometry"/>
                </mxCell>
                <mxCell id="46" value="writeSetup (File _SetupFile, bool &amp;_ElementInit) : void" style="label;fontStyle=0;strokeColor=none;fillColor=none;align=left;verticalAlign=top;overflow=hidden;spacingLeft=28;spacingRight=0;rotatable=0;points=[[0,0.5],[1,0.5]];portConstraint=eastwest;imageWidth=16;imageHeight=16;image=data:image/svg+xml,PHN2ZyB4bWxucz0iaHR0cDovL3d3dy53My5vcmcvMjAwMC9zdmciIGhlaWdodD0iNDgiIHdpZHRoPSI0OCIgdmlld0JveD0iMCAwIDQ4IDQ4Ij4KICA8cGF0aCBmaWxsPSJncmVlbiIgZD0iTTI0IDQ0cS00LjE1IDAtNy44LTEuNTc1LTMuNjUtMS41NzUtNi4zNS00LjI3NS0yLjctMi43LTQuMjc1LTYuMzVRNCAyOC4xNSA0IDI0dDEuNTc1LTcuOFE3LjE1IDEyLjU1IDkuODUgOS44NXEyLjctMi43IDYuMzUtNC4yNzVRMTkuODUgNCAyNCA0dDcuOCAxLjU3NXEzLjY1IDEuNTc1IDYuMzUgNC4yNzUgMi43IDIuNyA0LjI3NSA2LjM1UTQ0IDE5Ljg1IDQ0IDI0dC0xLjU3NSA3LjhxLTEuNTc1IDMuNjUtNC4yNzUgNi4zNS0yLjcgMi43LTYuMzUgNC4yNzVRMjguMTUgNDQgMjQgNDRabS0yLjE1LTMuMDV2LTQuMXEtMS43NSAwLTIuOTUtMS4zLTEuMi0xLjMtMS4yLTMuMDV2LTIuMkw3LjQ1IDIwLjA1cS0uMjUgMS0uMzUgMS45NzVRNyAyMyA3IDI0cTAgNi41IDQuMjI1IDExLjM1dDEwLjYyNSA1LjZabTE0LjctNS40cTEuMS0xLjIgMS45MjUtMi41NS44MjUtMS4zNSAxLjQtMi44MjV0Ljg1LTMuMDI1UTQxIDI1LjYgNDEgMjRxMC01LjMtMi45LTkuNjI1VDMwLjM1IDguMDV2LjlxMCAxLjc1LTEuMiAzLjA1LTEuMiAxLjMtMi45NSAxLjNoLTQuMzV2NC4zNXEwIC44NS0uNjc1IDEuNC0uNjc1LjU1LTEuNTI1LjU1SDE1LjVWMjRoMTIuOXEuODUgMCAxLjQuNjUuNTUuNjUuNTUgMS41djYuMzVoMi4xNXExLjQ1IDAgMi41NS44NSAxLjEuODUgMS41IDIuMloiLz4KPC9zdmc+;rounded=1;shadow=0;glass=0;rotation=0;imageVerticalAlign=middle;autosize=0;spacing=0;spacingTop=0;spacingBottom=0;" vertex="1" parent="2">
                    <mxGeometry y="170" width="330" height="20" as="geometry"/>
                </mxCell>
                <mxCell id="53" value="JCA::FNC::Level : public Protocol" style="swimlane;fontStyle=1;align=center;verticalAlign=top;childLayout=stackLayout;horizontal=1;startSize=26;horizontalStack=0;resizeParent=1;resizeParentMax=0;resizeLast=0;collapsible=1;marginBottom=0;" vertex="1" parent="1">
                    <mxGeometry x="1120" y="150" width="360" height="130" as="geometry">
                        <mxRectangle x="80" y="80" width="100" height="26" as="alternateBounds"/>
                    </mxGeometry>
                </mxCell>
                <mxCell id="54" value="Pin : uint8_t" style="label;fontStyle=0;strokeColor=none;fillColor=none;align=left;verticalAlign=middle;overflow=hidden;spacingLeft=28;spacingRight=4;rotatable=0;points=[[0,0.5],[1,0.5]];portConstraint=eastwest;imageWidth=16;imageHeight=16;image=data:image/svg+xml,PHN2ZyB4bWxucz0iaHR0cDovL3d3dy53My5vcmcvMjAwMC9zdmciIGhlaWdodD0iNDgiIHdpZHRoPSI0OCIgdmlld0JveD0iMCAwIDQ4IDQ4Ij4KICA8cGF0aCBmaWxsPSJncmVlbiIgZD0iTTI0IDQzLjk1cS03LTEuNzUtMTEuNS04LjEyNVQ4IDIxLjg1VjkuOTVsMTYtNiAxNiA2djExLjlxMCA3LjYtNC41IDEzLjk3NVQyNCA0My45NVptMC0zLjFxNS43NS0xLjkgOS4zNzUtNy4xNzVUMzcgMjEuODV2LTkuOGwtMTMtNC45LTEzIDQuOXY5LjhxMCA2LjU1IDMuNjI1IDExLjgyNVExOC4yNSAzOC45NSAyNCA0MC44NVpNMjQgMjRaIi8+Cjwvc3ZnPg==;rounded=1;shadow=0;glass=0;autosize=0;imageVerticalAlign=middle;spacing=0;spacingBottom=0;" vertex="1" parent="53">
                    <mxGeometry y="26" width="360" height="20" as="geometry"/>
                </mxCell>
                <mxCell id="56" value="" style="line;strokeWidth=1;fillColor=none;align=left;verticalAlign=middle;spacingTop=-1;spacingLeft=3;spacingRight=3;rotatable=0;labelPosition=right;points=[];portConstraint=eastwest;rounded=1;shadow=0;glass=0;" vertex="1" parent="53">
                    <mxGeometry y="46" width="360" height="4" as="geometry"/>
                </mxCell>
                <mxCell id="57" value="Level (unit8_t _Pin, const char *_Name)" style="text;strokeColor=none;fillColor=none;align=left;verticalAlign=middle;spacingLeft=4;spacingRight=4;overflow=hidden;rotatable=0;points=[[0,0.5],[1,0.5]];portConstraint=eastwest;rounded=1;shadow=0;glass=0;" vertex="1" parent="53">
                    <mxGeometry y="50" width="360" height="20" as="geometry"/>
                </mxCell>
                <mxCell id="59" value="update (struct tm &amp;_Time) : void" style="label;fontStyle=0;strokeColor=none;fillColor=none;align=left;verticalAlign=middle;overflow=hidden;spacingLeft=28;spacingRight=0;rotatable=0;points=[[0,0.5],[1,0.5]];portConstraint=eastwest;imageWidth=16;imageHeight=16;image=data:image/svg+xml,PHN2ZyB4bWxucz0iaHR0cDovL3d3dy53My5vcmcvMjAwMC9zdmciIGhlaWdodD0iNDgiIHdpZHRoPSI0OCIgdmlld0JveD0iMCAwIDQ4IDQ4Ij4KICA8cGF0aCBmaWxsPSJncmVlbiIgZD0iTTI0IDQ0cS00LjE1IDAtNy44LTEuNTc1LTMuNjUtMS41NzUtNi4zNS00LjI3NS0yLjctMi43LTQuMjc1LTYuMzVRNCAyOC4xNSA0IDI0dDEuNTc1LTcuOFE3LjE1IDEyLjU1IDkuODUgOS44NXEyLjctMi43IDYuMzUtNC4yNzVRMTkuODUgNCAyNCA0dDcuOCAxLjU3NXEzLjY1IDEuNTc1IDYuMzUgNC4yNzUgMi43IDIuNyA0LjI3NSA2LjM1UTQ0IDE5Ljg1IDQ0IDI0dC0xLjU3NSA3LjhxLTEuNTc1IDMuNjUtNC4yNzUgNi4zNS0yLjcgMi43LTYuMzUgNC4yNzVRMjguMTUgNDQgMjQgNDRabS0yLjE1LTMuMDV2LTQuMXEtMS43NSAwLTIuOTUtMS4zLTEuMi0xLjMtMS4yLTMuMDV2LTIuMkw3LjQ1IDIwLjA1cS0uMjUgMS0uMzUgMS45NzVRNyAyMyA3IDI0cTAgNi41IDQuMjI1IDExLjM1dDEwLjYyNSA1LjZabTE0LjctNS40cTEuMS0xLjIgMS45MjUtMi41NS44MjUtMS4zNSAxLjQtMi44MjV0Ljg1LTMuMDI1UTQxIDI1LjYgNDEgMjRxMC01LjMtMi45LTkuNjI1VDMwLjM1IDguMDV2LjlxMCAxLjc1LTEuMiAzLjA1LTEuMiAxLjMtMi45NSAxLjNoLTQuMzV2NC4zNXEwIC44NS0uNjc1IDEuNC0uNjc1LjU1LTEuNTI1LjU1SDE1LjVWMjRoMTIuOXEuODUgMCAxLjQuNjUuNTUuNjUuNTUgMS41djYuMzVoMi4xNXExLjQ1IDAgMi41NS44NSAxLjEuODUgMS41IDIuMloiLz4KPC9zdmc+;rounded=1;shadow=0;glass=0;rotation=0;imageVerticalAlign=middle;autosize=0;spacing=0;spacingTop=0;spacingBottom=0;" vertex="1" parent="53">
                    <mxGeometry y="70" width="360" height="20" as="geometry"/>
                </mxCell>
                <mxCell id="60" value="getValue () : float" style="label;fontStyle=0;strokeColor=none;fillColor=none;align=left;verticalAlign=middle;overflow=hidden;spacingLeft=28;spacingRight=0;rotatable=0;points=[[0,0.5],[1,0.5]];portConstraint=eastwest;imageWidth=16;imageHeight=16;image=data:image/svg+xml,PHN2ZyB4bWxucz0iaHR0cDovL3d3dy53My5vcmcvMjAwMC9zdmciIGhlaWdodD0iNDgiIHdpZHRoPSI0OCIgdmlld0JveD0iMCAwIDQ4IDQ4Ij4KICA8cGF0aCBmaWxsPSJncmVlbiIgZD0iTTI0IDQ0cS00LjE1IDAtNy44LTEuNTc1LTMuNjUtMS41NzUtNi4zNS00LjI3NS0yLjctMi43LTQuMjc1LTYuMzVRNCAyOC4xNSA0IDI0dDEuNTc1LTcuOFE3LjE1IDEyLjU1IDkuODUgOS44NXEyLjctMi43IDYuMzUtNC4yNzVRMTkuODUgNCAyNCA0dDcuOCAxLjU3NXEzLjY1IDEuNTc1IDYuMzUgNC4yNzUgMi43IDIuNyA0LjI3NSA2LjM1UTQ0IDE5Ljg1IDQ0IDI0dC0xLjU3NSA3LjhxLTEuNTc1IDMuNjUtNC4yNzUgNi4zNS0yLjcgMi43LTYuMzUgNC4yNzVRMjguMTUgNDQgMjQgNDRabS0yLjE1LTMuMDV2LTQuMXEtMS43NSAwLTIuOTUtMS4zLTEuMi0xLjMtMS4yLTMuMDV2LTIuMkw3LjQ1IDIwLjA1cS0uMjUgMS0uMzUgMS45NzVRNyAyMyA3IDI0cTAgNi41IDQuMjI1IDExLjM1dDEwLjYyNSA1LjZabTE0LjctNS40cTEuMS0xLjIgMS45MjUtMi41NS44MjUtMS4zNSAxLjQtMi44MjV0Ljg1LTMuMDI1UTQxIDI1LjYgNDEgMjRxMC01LjMtMi45LTkuNjI1VDMwLjM1IDguMDV2LjlxMCAxLjc1LTEuMiAzLjA1LTEuMiAxLjMtMi45NSAxLjNoLTQuMzV2NC4zNXEwIC44NS0uNjc1IDEuNC0uNjc1LjU1LTEuNTI1LjU1SDE1LjVWMjRoMTIuOXEuODUgMCAxLjQuNjUuNTUuNjUuNTUgMS41djYuMzVoMi4xNXExLjQ1IDAgMi41NS44NSAxLjEuODUgMS41IDIuMloiLz4KPC9zdmc+;rounded=1;shadow=0;glass=0;rotation=0;imageVerticalAlign=middle;autosize=0;spacing=0;spacingTop=0;spacingBottom=0;" vertex="1" parent="53">
                    <mxGeometry y="90" width="360" height="20" as="geometry"/>
                </mxCell>
                <mxCell id="61" value="getAlarm () : bool" style="label;fontStyle=0;strokeColor=none;fillColor=none;align=left;verticalAlign=middle;overflow=hidden;spacingLeft=28;spacingRight=0;rotatable=0;points=[[0,0.5],[1,0.5]];portConstraint=eastwest;imageWidth=16;imageHeight=16;image=data:image/svg+xml,PHN2ZyB4bWxucz0iaHR0cDovL3d3dy53My5vcmcvMjAwMC9zdmciIGhlaWdodD0iNDgiIHdpZHRoPSI0OCIgdmlld0JveD0iMCAwIDQ4IDQ4Ij4KICA8cGF0aCBmaWxsPSJncmVlbiIgZD0iTTI0IDQ0cS00LjE1IDAtNy44LTEuNTc1LTMuNjUtMS41NzUtNi4zNS00LjI3NS0yLjctMi43LTQuMjc1LTYuMzVRNCAyOC4xNSA0IDI0dDEuNTc1LTcuOFE3LjE1IDEyLjU1IDkuODUgOS44NXEyLjctMi43IDYuMzUtNC4yNzVRMTkuODUgNCAyNCA0dDcuOCAxLjU3NXEzLjY1IDEuNTc1IDYuMzUgNC4yNzUgMi43IDIuNyA0LjI3NSA2LjM1UTQ0IDE5Ljg1IDQ0IDI0dC0xLjU3NSA3LjhxLTEuNTc1IDMuNjUtNC4yNzUgNi4zNS0yLjcgMi43LTYuMzUgNC4yNzVRMjguMTUgNDQgMjQgNDRabS0yLjE1LTMuMDV2LTQuMXEtMS43NSAwLTIuOTUtMS4zLTEuMi0xLjMtMS4yLTMuMDV2LTIuMkw3LjQ1IDIwLjA1cS0uMjUgMS0uMzUgMS45NzVRNyAyMyA3IDI0cTAgNi41IDQuMjI1IDExLjM1dDEwLjYyNSA1LjZabTE0LjctNS40cTEuMS0xLjIgMS45MjUtMi41NS44MjUtMS4zNSAxLjQtMi44MjV0Ljg1LTMuMDI1UTQxIDI1LjYgNDEgMjRxMC01LjMtMi45LTkuNjI1VDMwLjM1IDguMDV2LjlxMCAxLjc1LTEuMiAzLjA1LTEuMiAxLjMtMi45NSAxLjNoLTQuMzV2NC4zNXEwIC44NS0uNjc1IDEuNC0uNjc1LjU1LTEuNTI1LjU1SDE1LjVWMjRoMTIuOXEuODUgMCAxLjQuNjUuNTUuNjUuNTUgMS41djYuMzVoMi4xNXExLjQ1IDAgMi41NS44NSAxLjEuODUgMS41IDIuMloiLz4KPC9zdmc+;rounded=1;shadow=0;glass=0;rotation=0;imageVerticalAlign=middle;autosize=0;spacing=0;spacingTop=0;spacingBottom=0;" vertex="1" parent="53">
                    <mxGeometry y="110" width="360" height="20" as="geometry"/>
                </mxCell>
                <mxCell id="73" value="JCA::FNC::Feeder : public Protocol" style="swimlane;fontStyle=1;align=center;verticalAlign=top;childLayout=stackLayout;horizontal=1;startSize=26;horizontalStack=0;resizeParent=1;resizeParentMax=0;resizeLast=0;collapsible=1;marginBottom=0;" vertex="1" parent="1">
                    <mxGeometry x="1120" y="320" width="360" height="102" as="geometry">
                        <mxRectangle x="80" y="80" width="100" height="26" as="alternateBounds"/>
                    </mxGeometry>
                </mxCell>
                <mxCell id="74" value="Stepper : AccelStepper" style="label;fontStyle=0;strokeColor=none;fillColor=none;align=left;verticalAlign=middle;overflow=hidden;spacingLeft=28;spacingRight=4;rotatable=0;points=[[0,0.5],[1,0.5]];portConstraint=eastwest;imageWidth=16;imageHeight=16;image=data:image/svg+xml,PHN2ZyB4bWxucz0iaHR0cDovL3d3dy53My5vcmcvMjAwMC9zdmciIGhlaWdodD0iNDgiIHdpZHRoPSI0OCIgdmlld0JveD0iMCAwIDQ4IDQ4Ij4KICA8cGF0aCBmaWxsPSJncmVlbiIgZD0iTTI0IDQzLjk1cS03LTEuNzUtMTEuNS04LjEyNVQ4IDIxLjg1VjkuOTVsMTYtNiAxNiA2djExLjlxMCA3LjYtNC41IDEzLjk3NVQyNCA0My45NVptMC0zLjFxNS43NS0xLjkgOS4zNzUtNy4xNzVUMzcgMjEuODV2LTkuOGwtMTMtNC45LTEzIDQuOXY5LjhxMCA2LjU1IDMuNjI1IDExLjgyNVExOC4yNSAzOC45NSAyNCA0MC44NVpNMjQgMjRaIi8+Cjwvc3ZnPg==;rounded=1;shadow=0;glass=0;autosize=0;imageVerticalAlign=middle;spacing=0;spacingBottom=0;" vertex="1" parent="73">
                    <mxGeometry y="26" width="360" height="20" as="geometry"/>
                </mxCell>
                <mxCell id="75" value="" style="line;strokeWidth=1;fillColor=none;align=left;verticalAlign=middle;spacingTop=-1;spacingLeft=3;spacingRight=3;rotatable=0;labelPosition=right;points=[];portConstraint=eastwest;rounded=1;shadow=0;glass=0;" vertex="1" parent="73">
                    <mxGeometry y="46" width="360" height="4" as="geometry"/>
                </mxCell>
                <mxCell id="76" value="Feeder (uint8_t _PinEnable, uint8_t _PinStep&#10;    , uint8_t _PinDir, const char *_Name)" style="text;strokeColor=none;fillColor=none;align=left;verticalAlign=middle;spacingLeft=4;spacingRight=4;overflow=hidden;rotatable=0;points=[[0,0.5],[1,0.5]];portConstraint=eastwest;rounded=1;shadow=0;glass=0;" vertex="1" parent="73">
                    <mxGeometry y="50" width="360" height="32" as="geometry"/>
                </mxCell>
                <mxCell id="77" value="update (struct tm &amp;_Time) : void" style="label;fontStyle=0;strokeColor=none;fillColor=none;align=left;verticalAlign=middle;overflow=hidden;spacingLeft=28;spacingRight=0;rotatable=0;points=[[0,0.5],[1,0.5]];portConstraint=eastwest;imageWidth=16;imageHeight=16;image=data:image/svg+xml,PHN2ZyB4bWxucz0iaHR0cDovL3d3dy53My5vcmcvMjAwMC9zdmciIGhlaWdodD0iNDgiIHdpZHRoPSI0OCIgdmlld0JveD0iMCAwIDQ4IDQ4Ij4KICA8cGF0aCBmaWxsPSJncmVlbiIgZD0iTTI0IDQ0cS00LjE1IDAtNy44LTEuNTc1LTMuNjUtMS41NzUtNi4zNS00LjI3NS0yLjctMi43LTQuMjc1LTYuMzVRNCAyOC4xNSA0IDI0dDEuNTc1LTcuOFE3LjE1IDEyLjU1IDkuODUgOS44NXEyLjctMi43IDYuMzUtNC4yNzVRMTkuODUgNCAyNCA0dDcuOCAxLjU3NXEzLjY1IDEuNTc1IDYuMzUgNC4yNzUgMi43IDIuNyA0LjI3NSA2LjM1UTQ0IDE5Ljg1IDQ0IDI0dC0xLjU3NSA3LjhxLTEuNTc1IDMuNjUtNC4yNzUgNi4zNS0yLjcgMi43LTYuMzUgNC4yNzVRMjguMTUgNDQgMjQgNDRabS0yLjE1LTMuMDV2LTQuMXEtMS43NSAwLTIuOTUtMS4zLTEuMi0xLjMtMS4yLTMuMDV2LTIuMkw3LjQ1IDIwLjA1cS0uMjUgMS0uMzUgMS45NzVRNyAyMyA3IDI0cTAgNi41IDQuMjI1IDExLjM1dDEwLjYyNSA1LjZabTE0LjctNS40cTEuMS0xLjIgMS45MjUtMi41NS44MjUtMS4zNSAxLjQtMi44MjV0Ljg1LTMuMDI1UTQxIDI1LjYgNDEgMjRxMC01LjMtMi45LTkuNjI1VDMwLjM1IDguMDV2LjlxMCAxLjc1LTEuMiAzLjA1LTEuMiAxLjMtMi45NSAxLjNoLTQuMzV2NC4zNXEwIC44NS0uNjc1IDEuNC0uNjc1LjU1LTEuNTI1LjU1SDE1LjVWMjRoMTIuOXEuODUgMCAxLjQuNjUuNTUuNjUuNTUgMS41djYuMzVoMi4xNXExLjQ1IDAgMi41NS44NSAxLjEuODUgMS41IDIuMloiLz4KPC9zdmc+;rounded=1;shadow=0;glass=0;rotation=0;imageVerticalAlign=middle;autosize=0;spacing=0;spacingTop=0;spacingBottom=0;" vertex="1" parent="73">
                    <mxGeometry y="82" width="360" height="20" as="geometry"/>
                </mxCell>
                <mxCell id="80" value="JCA::IOT::Webserver : public Protocol" style="swimlane;fontStyle=1;align=center;verticalAlign=top;childLayout=stackLayout;horizontal=1;startSize=26;horizontalStack=0;resizeParent=1;resizeParentMax=0;resizeLast=0;collapsible=1;marginBottom=0;" vertex="1" parent="1">
                    <mxGeometry x="600" y="350" width="360" height="763" as="geometry">
                        <mxRectangle x="80" y="80" width="100" height="26" as="alternateBounds"/>
                    </mxGeometry>
                </mxCell>
                <mxCell id="81" value="Hostname : char[80]" style="label;fontStyle=0;strokeColor=none;fillColor=none;align=left;verticalAlign=middle;overflow=hidden;spacingLeft=28;spacingRight=4;rotatable=0;points=[[0,0.5],[1,0.5]];portConstraint=eastwest;imageWidth=16;imageHeight=16;image=data:image/svg+xml,PHN2ZyB4bWxucz0iaHR0cDovL3d3dy53My5vcmcvMjAwMC9zdmciIGhlaWdodD0iNDgiIHdpZHRoPSI0OCIgdmlld0JveD0iMCAwIDQ4IDQ4Ij4KICA8cGF0aCBmaWxsPSJncmVlbiIgZD0iTTI0IDQzLjk1cS03LTEuNzUtMTEuNS04LjEyNVQ4IDIxLjg1VjkuOTVsMTYtNiAxNiA2djExLjlxMCA3LjYtNC41IDEzLjk3NVQyNCA0My45NVptMC0zLjFxNS43NS0xLjkgOS4zNzUtNy4xNzVUMzcgMjEuODV2LTkuOGwtMTMtNC45LTEzIDQuOXY5LjhxMCA2LjU1IDMuNjI1IDExLjgyNVExOC4yNSAzOC45NSAyNCA0MC44NVpNMjQgMjRaIi8+Cjwvc3ZnPg==;rounded=1;shadow=0;glass=0;autosize=0;imageVerticalAlign=middle;spacing=0;spacingBottom=0;" vertex="1" parent="80">
                    <mxGeometry y="26" width="360" height="20" as="geometry"/>
                </mxCell>
                <mxCell id="85" value="ConfUser : char[80]" style="label;fontStyle=0;strokeColor=none;fillColor=none;align=left;verticalAlign=middle;overflow=hidden;spacingLeft=28;spacingRight=4;rotatable=0;points=[[0,0.5],[1,0.5]];portConstraint=eastwest;imageWidth=16;imageHeight=16;image=data:image/svg+xml,PHN2ZyB4bWxucz0iaHR0cDovL3d3dy53My5vcmcvMjAwMC9zdmciIGhlaWdodD0iNDgiIHdpZHRoPSI0OCIgdmlld0JveD0iMCAwIDQ4IDQ4Ij4KICA8cGF0aCBmaWxsPSJncmVlbiIgZD0iTTI0IDQzLjk1cS03LTEuNzUtMTEuNS04LjEyNVQ4IDIxLjg1VjkuOTVsMTYtNiAxNiA2djExLjlxMCA3LjYtNC41IDEzLjk3NVQyNCA0My45NVptMC0zLjFxNS43NS0xLjkgOS4zNzUtNy4xNzVUMzcgMjEuODV2LTkuOGwtMTMtNC45LTEzIDQuOXY5LjhxMCA2LjU1IDMuNjI1IDExLjgyNVExOC4yNSAzOC45NSAyNCA0MC44NVpNMjQgMjRaIi8+Cjwvc3ZnPg==;rounded=1;shadow=0;glass=0;autosize=0;imageVerticalAlign=middle;spacing=0;spacingBottom=0;" vertex="1" parent="80">
                    <mxGeometry y="46" width="360" height="20" as="geometry"/>
                </mxCell>
                <mxCell id="86" value="ConfPassword : char[80]" style="label;fontStyle=0;strokeColor=none;fillColor=none;align=left;verticalAlign=middle;overflow=hidden;spacingLeft=28;spacingRight=4;rotatable=0;points=[[0,0.5],[1,0.5]];portConstraint=eastwest;imageWidth=16;imageHeight=16;image=data:image/svg+xml,PHN2ZyB4bWxucz0iaHR0cDovL3d3dy53My5vcmcvMjAwMC9zdmciIGhlaWdodD0iNDgiIHdpZHRoPSI0OCIgdmlld0JveD0iMCAwIDQ4IDQ4Ij4KICA8cGF0aCBmaWxsPSJncmVlbiIgZD0iTTI0IDQzLjk1cS03LTEuNzUtMTEuNS04LjEyNVQ4IDIxLjg1VjkuOTVsMTYtNiAxNiA2djExLjlxMCA3LjYtNC41IDEzLjk3NVQyNCA0My45NVptMC0zLjFxNS43NS0xLjkgOS4zNzUtNy4xNzVUMzcgMjEuODV2LTkuOGwtMTMtNC45LTEzIDQuOXY5LjhxMCA2LjU1IDMuNjI1IDExLjgyNVExOC4yNSAzOC45NSAyNCA0MC44NVpNMjQgMjRaIi8+Cjwvc3ZnPg==;rounded=1;shadow=0;glass=0;autosize=0;imageVerticalAlign=middle;spacing=0;spacingBottom=0;" vertex="1" parent="80">
                    <mxGeometry y="66" width="360" height="20" as="geometry"/>
                </mxCell>
                <mxCell id="87" value="Firmware : char[80]" style="label;fontStyle=0;strokeColor=none;fillColor=none;align=left;verticalAlign=middle;overflow=hidden;spacingLeft=28;spacingRight=4;rotatable=0;points=[[0,0.5],[1,0.5]];portConstraint=eastwest;imageWidth=16;imageHeight=16;image=data:image/svg+xml,PHN2ZyB4bWxucz0iaHR0cDovL3d3dy53My5vcmcvMjAwMC9zdmciIGhlaWdodD0iNDgiIHdpZHRoPSI0OCIgdmlld0JveD0iMCAwIDQ4IDQ4Ij4KICA8cGF0aCBmaWxsPSJncmVlbiIgZD0iTTI0IDQzLjk1cS03LTEuNzUtMTEuNS04LjEyNVQ4IDIxLjg1VjkuOTVsMTYtNiAxNiA2djExLjlxMCA3LjYtNC41IDEzLjk3NVQyNCA0My45NVptMC0zLjFxNS43NS0xLjkgOS4zNzUtNy4xNzVUMzcgMjEuODV2LTkuOGwtMTMtNC45LTEzIDQuOXY5LjhxMCA2LjU1IDMuNjI1IDExLjgyNVExOC4yNSAzOC45NSAyNCA0MC44NVpNMjQgMjRaIi8+Cjwvc3ZnPg==;rounded=1;shadow=0;glass=0;autosize=0;imageVerticalAlign=middle;spacing=0;spacingBottom=0;" vertex="1" parent="80">
                    <mxGeometry y="86" width="360" height="20" as="geometry"/>
                </mxCell>
                <mxCell id="88" value="Connector : JCA::IOT::Connector()" style="label;fontStyle=0;strokeColor=none;fillColor=none;align=left;verticalAlign=middle;overflow=hidden;spacingLeft=28;spacingRight=4;rotatable=0;points=[[0,0.5],[1,0.5]];portConstraint=eastwest;imageWidth=16;imageHeight=16;image=data:image/svg+xml,PHN2ZyB4bWxucz0iaHR0cDovL3d3dy53My5vcmcvMjAwMC9zdmciIGhlaWdodD0iNDgiIHdpZHRoPSI0OCIgdmlld0JveD0iMCAwIDQ4IDQ4Ij4KICA8cGF0aCBmaWxsPSJncmVlbiIgZD0iTTI0IDQzLjk1cS03LTEuNzUtMTEuNS04LjEyNVQ4IDIxLjg1VjkuOTVsMTYtNiAxNiA2djExLjlxMCA3LjYtNC41IDEzLjk3NVQyNCA0My45NVptMC0zLjFxNS43NS0xLjkgOS4zNzUtNy4xNzVUMzcgMjEuODV2LTkuOGwtMTMtNC45LTEzIDQuOXY5LjhxMCA2LjU1IDMuNjI1IDExLjgyNVExOC4yNSAzOC45NSAyNCA0MC44NVpNMjQgMjRaIi8+Cjwvc3ZnPg==;rounded=1;shadow=0;glass=0;autosize=0;imageVerticalAlign=middle;spacing=0;spacingBottom=0;" vertex="1" parent="80">
                    <mxGeometry y="106" width="360" height="20" as="geometry"/>
                </mxCell>
                <mxCell id="89" value="Server : AsyncWebServer()" style="label;fontStyle=0;strokeColor=none;fillColor=none;align=left;verticalAlign=middle;overflow=hidden;spacingLeft=28;spacingRight=4;rotatable=0;points=[[0,0.5],[1,0.5]];portConstraint=eastwest;imageWidth=16;imageHeight=16;image=data:image/svg+xml,PHN2ZyB4bWxucz0iaHR0cDovL3d3dy53My5vcmcvMjAwMC9zdmciIGhlaWdodD0iNDgiIHdpZHRoPSI0OCIgdmlld0JveD0iMCAwIDQ4IDQ4Ij4KICA8cGF0aCBmaWxsPSJncmVlbiIgZD0iTTI0IDQzLjk1cS03LTEuNzUtMTEuNS04LjEyNVQ4IDIxLjg1VjkuOTVsMTYtNiAxNiA2djExLjlxMCA3LjYtNC41IDEzLjk3NVQyNCA0My45NVptMC0zLjFxNS43NS0xLjkgOS4zNzUtNy4xNzVUMzcgMjEuODV2LTkuOGwtMTMtNC45LTEzIDQuOXY5LjhxMCA2LjU1IDMuNjI1IDExLjgyNVExOC4yNSAzOC45NSAyNCA0MC44NVpNMjQgMjRaIi8+Cjwvc3ZnPg==;rounded=1;shadow=0;glass=0;autosize=0;imageVerticalAlign=middle;spacing=0;spacingBottom=0;" vertex="1" parent="80">
                    <mxGeometry y="126" width="360" height="20" as="geometry"/>
                </mxCell>
                <mxCell id="90" value="Websocket : AsyncWebSocket()" style="label;fontStyle=0;strokeColor=none;fillColor=none;align=left;verticalAlign=middle;overflow=hidden;spacingLeft=28;spacingRight=4;rotatable=0;points=[[0,0.5],[1,0.5]];portConstraint=eastwest;imageWidth=16;imageHeight=16;image=data:image/svg+xml,PHN2ZyB4bWxucz0iaHR0cDovL3d3dy53My5vcmcvMjAwMC9zdmciIGhlaWdodD0iNDgiIHdpZHRoPSI0OCIgdmlld0JveD0iMCAwIDQ4IDQ4Ij4KICA8cGF0aCBmaWxsPSJncmVlbiIgZD0iTTI0IDQzLjk1cS03LTEuNzUtMTEuNS04LjEyNVQ4IDIxLjg1VjkuOTVsMTYtNiAxNiA2djExLjlxMCA3LjYtNC41IDEzLjk3NVQyNCA0My45NVptMC0zLjFxNS43NS0xLjkgOS4zNzUtNy4xNzVUMzcgMjEuODV2LTkuOGwtMTMtNC45LTEzIDQuOXY5LjhxMCA2LjU1IDMuNjI1IDExLjgyNVExOC4yNSAzOC45NSAyNCA0MC44NVpNMjQgMjRaIi8+Cjwvc3ZnPg==;rounded=1;shadow=0;glass=0;autosize=0;imageVerticalAlign=middle;spacing=0;spacingBottom=0;" vertex="1" parent="80">
                    <mxGeometry y="146" width="360" height="20" as="geometry"/>
                </mxCell>
                <mxCell id="91" value="Rtc : EPS32Time()" style="label;fontStyle=0;strokeColor=none;fillColor=none;align=left;verticalAlign=middle;overflow=hidden;spacingLeft=28;spacingRight=4;rotatable=0;points=[[0,0.5],[1,0.5]];portConstraint=eastwest;imageWidth=16;imageHeight=16;image=data:image/svg+xml,PHN2ZyB4bWxucz0iaHR0cDovL3d3dy53My5vcmcvMjAwMC9zdmciIGhlaWdodD0iNDgiIHdpZHRoPSI0OCIgdmlld0JveD0iMCAwIDQ4IDQ4Ij4KICA8cGF0aCBmaWxsPSJncmVlbiIgZD0iTTI0IDQzLjk1cS03LTEuNzUtMTEuNS04LjEyNVQ4IDIxLjg1VjkuOTVsMTYtNiAxNiA2djExLjlxMCA3LjYtNC41IDEzLjk3NVQyNCA0My45NVptMC0zLjFxNS43NS0xLjkgOS4zNzUtNy4xNzVUMzcgMjEuODV2LTkuOGwtMTMtNC45LTEzIDQuOXY5LjhxMCA2LjU1IDMuNjI1IDExLjgyNVExOC4yNSAzOC45NSAyNCA0MC44NVpNMjQgMjRaIi8+Cjwvc3ZnPg==;rounded=1;shadow=0;glass=0;autosize=0;imageVerticalAlign=middle;spacing=0;spacingBottom=0;" vertex="1" parent="80">
                    <mxGeometry y="166" width="360" height="20" as="geometry"/>
                </mxCell>
                <mxCell id="92" value="Port : uint16_t" style="label;fontStyle=0;strokeColor=none;fillColor=none;align=left;verticalAlign=middle;overflow=hidden;spacingLeft=28;spacingRight=4;rotatable=0;points=[[0,0.5],[1,0.5]];portConstraint=eastwest;imageWidth=16;imageHeight=16;image=data:image/svg+xml,PHN2ZyB4bWxucz0iaHR0cDovL3d3dy53My5vcmcvMjAwMC9zdmciIGhlaWdodD0iNDgiIHdpZHRoPSI0OCIgdmlld0JveD0iMCAwIDQ4IDQ4Ij4KICA8cGF0aCBmaWxsPSJncmVlbiIgZD0iTTI0IDQzLjk1cS03LTEuNzUtMTEuNS04LjEyNVQ4IDIxLjg1VjkuOTVsMTYtNiAxNiA2djExLjlxMCA3LjYtNC41IDEzLjk3NVQyNCA0My45NVptMC0zLjFxNS43NS0xLjkgOS4zNzUtNy4xNzVUMzcgMjEuODV2LTkuOGwtMTMtNC45LTEzIDQuOXY5LjhxMCA2LjU1IDMuNjI1IDExLjgyNVExOC4yNSAzOC45NSAyNCA0MC44NVpNMjQgMjRaIi8+Cjwvc3ZnPg==;rounded=1;shadow=0;glass=0;autosize=0;imageVerticalAlign=middle;spacing=0;spacingBottom=0;" vertex="1" parent="80">
                    <mxGeometry y="186" width="360" height="20" as="geometry"/>
                </mxCell>
                <mxCell id="82" value="" style="line;strokeWidth=1;fillColor=none;align=left;verticalAlign=middle;spacingTop=-1;spacingLeft=3;spacingRight=3;rotatable=0;labelPosition=right;points=[];portConstraint=eastwest;rounded=1;shadow=0;glass=0;" vertex="1" parent="80">
                    <mxGeometry y="206" width="360" height="4" as="geometry"/>
                </mxCell>
                <mxCell id="83" value="Webserver (const char *_HostnamePrefix, uint16_t _Port&#10;    , const char *_ConfUser, const char* _ConfPassword&#10;    , unsigned long _Offset)" style="text;strokeColor=none;fillColor=none;align=left;verticalAlign=middle;spacingLeft=4;spacingRight=4;overflow=hidden;rotatable=0;points=[[0,0.5],[1,0.5]];portConstraint=eastwest;rounded=1;shadow=0;glass=0;" vertex="1" parent="80">
                    <mxGeometry y="210" width="360" height="44" as="geometry"/>
                </mxCell>
                <mxCell id="84" value="init () : bool" style="label;fontStyle=0;strokeColor=none;fillColor=none;align=left;verticalAlign=middle;overflow=hidden;spacingLeft=28;spacingRight=0;rotatable=0;points=[[0,0.5],[1,0.5]];portConstraint=eastwest;imageWidth=16;imageHeight=16;image=data:image/svg+xml,PHN2ZyB4bWxucz0iaHR0cDovL3d3dy53My5vcmcvMjAwMC9zdmciIGhlaWdodD0iNDgiIHdpZHRoPSI0OCIgdmlld0JveD0iMCAwIDQ4IDQ4Ij4KICA8cGF0aCBmaWxsPSJncmVlbiIgZD0iTTI0IDQ0cS00LjE1IDAtNy44LTEuNTc1LTMuNjUtMS41NzUtNi4zNS00LjI3NS0yLjctMi43LTQuMjc1LTYuMzVRNCAyOC4xNSA0IDI0dDEuNTc1LTcuOFE3LjE1IDEyLjU1IDkuODUgOS44NXEyLjctMi43IDYuMzUtNC4yNzVRMTkuODUgNCAyNCA0dDcuOCAxLjU3NXEzLjY1IDEuNTc1IDYuMzUgNC4yNzUgMi43IDIuNyA0LjI3NSA2LjM1UTQ0IDE5Ljg1IDQ0IDI0dC0xLjU3NSA3LjhxLTEuNTc1IDMuNjUtNC4yNzUgNi4zNS0yLjcgMi43LTYuMzUgNC4yNzVRMjguMTUgNDQgMjQgNDRabS0yLjE1LTMuMDV2LTQuMXEtMS43NSAwLTIuOTUtMS4zLTEuMi0xLjMtMS4yLTMuMDV2LTIuMkw3LjQ1IDIwLjA1cS0uMjUgMS0uMzUgMS45NzVRNyAyMyA3IDI0cTAgNi41IDQuMjI1IDExLjM1dDEwLjYyNSA1LjZabTE0LjctNS40cTEuMS0xLjIgMS45MjUtMi41NS44MjUtMS4zNSAxLjQtMi44MjV0Ljg1LTMuMDI1UTQxIDI1LjYgNDEgMjRxMC01LjMtMi45LTkuNjI1VDMwLjM1IDguMDV2LjlxMCAxLjc1LTEuMiAzLjA1LTEuMiAxLjMtMi45NSAxLjNoLTQuMzV2NC4zNXEwIC44NS0uNjc1IDEuNC0uNjc1LjU1LTEuNTI1LjU1SDE1LjVWMjRoMTIuOXEuODUgMCAxLjQuNjUuNTUuNjUuNTUgMS41djYuMzVoMi4xNXExLjQ1IDAgMi41NS44NSAxLjEuODUgMS41IDIuMloiLz4KPC9zdmc+;rounded=1;shadow=0;glass=0;rotation=0;imageVerticalAlign=middle;autosize=0;spacing=0;spacingTop=0;spacingBottom=0;" vertex="1" parent="80">
                    <mxGeometry y="254" width="360" height="20" as="geometry"/>
                </mxCell>
                <mxCell id="95" value="handle () : bool" style="label;fontStyle=0;strokeColor=none;fillColor=none;align=left;verticalAlign=middle;overflow=hidden;spacingLeft=28;spacingRight=0;rotatable=0;points=[[0,0.5],[1,0.5]];portConstraint=eastwest;imageWidth=16;imageHeight=16;image=data:image/svg+xml,PHN2ZyB4bWxucz0iaHR0cDovL3d3dy53My5vcmcvMjAwMC9zdmciIGhlaWdodD0iNDgiIHdpZHRoPSI0OCIgdmlld0JveD0iMCAwIDQ4IDQ4Ij4KICA8cGF0aCBmaWxsPSJncmVlbiIgZD0iTTI0IDQ0cS00LjE1IDAtNy44LTEuNTc1LTMuNjUtMS41NzUtNi4zNS00LjI3NS0yLjctMi43LTQuMjc1LTYuMzVRNCAyOC4xNSA0IDI0dDEuNTc1LTcuOFE3LjE1IDEyLjU1IDkuODUgOS44NXEyLjctMi43IDYuMzUtNC4yNzVRMTkuODUgNCAyNCA0dDcuOCAxLjU3NXEzLjY1IDEuNTc1IDYuMzUgNC4yNzUgMi43IDIuNyA0LjI3NSA2LjM1UTQ0IDE5Ljg1IDQ0IDI0dC0xLjU3NSA3LjhxLTEuNTc1IDMuNjUtNC4yNzUgNi4zNS0yLjcgMi43LTYuMzUgNC4yNzVRMjguMTUgNDQgMjQgNDRabS0yLjE1LTMuMDV2LTQuMXEtMS43NSAwLTIuOTUtMS4zLTEuMi0xLjMtMS4yLTMuMDV2LTIuMkw3LjQ1IDIwLjA1cS0uMjUgMS0uMzUgMS45NzVRNyAyMyA3IDI0cTAgNi41IDQuMjI1IDExLjM1dDEwLjYyNSA1LjZabTE0LjctNS40cTEuMS0xLjIgMS45MjUtMi41NS44MjUtMS4zNSAxLjQtMi44MjV0Ljg1LTMuMDI1UTQxIDI1LjYgNDEgMjRxMC01LjMtMi45LTkuNjI1VDMwLjM1IDguMDV2LjlxMCAxLjc1LTEuMiAzLjA1LTEuMiAxLjMtMi45NSAxLjNoLTQuMzV2NC4zNXEwIC44NS0uNjc1IDEuNC0uNjc1LjU1LTEuNTI1LjU1SDE1LjVWMjRoMTIuOXEuODUgMCAxLjQuNjUuNTUuNjUuNTUgMS41djYuMzVoMi4xNXExLjQ1IDAgMi41NS44NSAxLjEuODUgMS41IDIuMloiLz4KPC9zdmc+;rounded=1;shadow=0;glass=0;rotation=0;imageVerticalAlign=middle;autosize=0;spacing=0;spacingTop=0;spacingBottom=0;" vertex="1" parent="80">
                    <mxGeometry y="274" width="360" height="20" as="geometry"/>
                </mxCell>
                <mxCell id="96" value="update (struct tm &amp;_Time) : void" style="label;fontStyle=0;strokeColor=none;fillColor=none;align=left;verticalAlign=middle;overflow=hidden;spacingLeft=28;spacingRight=0;rotatable=0;points=[[0,0.5],[1,0.5]];portConstraint=eastwest;imageWidth=16;imageHeight=16;image=data:image/svg+xml,PHN2ZyB4bWxucz0iaHR0cDovL3d3dy53My5vcmcvMjAwMC9zdmciIGhlaWdodD0iNDgiIHdpZHRoPSI0OCIgdmlld0JveD0iMCAwIDQ4IDQ4Ij4KICA8cGF0aCBmaWxsPSJncmVlbiIgZD0iTTI0IDQ0cS00LjE1IDAtNy44LTEuNTc1LTMuNjUtMS41NzUtNi4zNS00LjI3NS0yLjctMi43LTQuMjc1LTYuMzVRNCAyOC4xNSA0IDI0dDEuNTc1LTcuOFE3LjE1IDEyLjU1IDkuODUgOS44NXEyLjctMi43IDYuMzUtNC4yNzVRMTkuODUgNCAyNCA0dDcuOCAxLjU3NXEzLjY1IDEuNTc1IDYuMzUgNC4yNzUgMi43IDIuNyA0LjI3NSA2LjM1UTQ0IDE5Ljg1IDQ0IDI0dC0xLjU3NSA3LjhxLTEuNTc1IDMuNjUtNC4yNzUgNi4zNS0yLjcgMi43LTYuMzUgNC4yNzVRMjguMTUgNDQgMjQgNDRabS0yLjE1LTMuMDV2LTQuMXEtMS43NSAwLTIuOTUtMS4zLTEuMi0xLjMtMS4yLTMuMDV2LTIuMkw3LjQ1IDIwLjA1cS0uMjUgMS0uMzUgMS45NzVRNyAyMyA3IDI0cTAgNi41IDQuMjI1IDExLjM1dDEwLjYyNSA1LjZabTE0LjctNS40cTEuMS0xLjIgMS45MjUtMi41NS44MjUtMS4zNSAxLjQtMi44MjV0Ljg1LTMuMDI1UTQxIDI1LjYgNDEgMjRxMC01LjMtMi45LTkuNjI1VDMwLjM1IDguMDV2LjlxMCAxLjc1LTEuMiAzLjA1LTEuMiAxLjMtMi45NSAxLjNoLTQuMzV2NC4zNXEwIC44NS0uNjc1IDEuNC0uNjc1LjU1LTEuNTI1LjU1SDE1LjVWMjRoMTIuOXEuODUgMCAxLjQuNjUuNTUuNjUuNTUgMS41djYuMzVoMi4xNXExLjQ1IDAgMi41NS44NSAxLjEuODUgMS41IDIuMloiLz4KPC9zdmc+;rounded=1;shadow=0;glass=0;rotation=0;imageVerticalAlign=middle;autosize=0;spacing=0;spacingTop=0;spacingBottom=0;" vertex="1" parent="80">
                    <mxGeometry y="294" width="360" height="20" as="geometry"/>
                </mxCell>
                <mxCell id="97" value="onSystemReset (SimpleCallback _CB) : void" style="label;fontStyle=0;strokeColor=none;fillColor=none;align=left;verticalAlign=middle;overflow=hidden;spacingLeft=28;spacingRight=0;rotatable=0;points=[[0,0.5],[1,0.5]];portConstraint=eastwest;imageWidth=16;imageHeight=16;image=data:image/svg+xml,PHN2ZyB4bWxucz0iaHR0cDovL3d3dy53My5vcmcvMjAwMC9zdmciIGhlaWdodD0iNDgiIHdpZHRoPSI0OCIgdmlld0JveD0iMCAwIDQ4IDQ4Ij4KICA8cGF0aCBmaWxsPSJncmVlbiIgZD0iTTI0IDQ0cS00LjE1IDAtNy44LTEuNTc1LTMuNjUtMS41NzUtNi4zNS00LjI3NS0yLjctMi43LTQuMjc1LTYuMzVRNCAyOC4xNSA0IDI0dDEuNTc1LTcuOFE3LjE1IDEyLjU1IDkuODUgOS44NXEyLjctMi43IDYuMzUtNC4yNzVRMTkuODUgNCAyNCA0dDcuOCAxLjU3NXEzLjY1IDEuNTc1IDYuMzUgNC4yNzUgMi43IDIuNyA0LjI3NSA2LjM1UTQ0IDE5Ljg1IDQ0IDI0dC0xLjU3NSA3LjhxLTEuNTc1IDMuNjUtNC4yNzUgNi4zNS0yLjcgMi43LTYuMzUgNC4yNzVRMjguMTUgNDQgMjQgNDRabS0yLjE1LTMuMDV2LTQuMXEtMS43NSAwLTIuOTUtMS4zLTEuMi0xLjMtMS4yLTMuMDV2LTIuMkw3LjQ1IDIwLjA1cS0uMjUgMS0uMzUgMS45NzVRNyAyMyA3IDI0cTAgNi41IDQuMjI1IDExLjM1dDEwLjYyNSA1LjZabTE0LjctNS40cTEuMS0xLjIgMS45MjUtMi41NS44MjUtMS4zNSAxLjQtMi44MjV0Ljg1LTMuMDI1UTQxIDI1LjYgNDEgMjRxMC01LjMtMi45LTkuNjI1VDMwLjM1IDguMDV2LjlxMCAxLjc1LTEuMiAzLjA1LTEuMiAxLjMtMi45NSAxLjNoLTQuMzV2NC4zNXEwIC44NS0uNjc1IDEuNC0uNjc1LjU1LTEuNTI1LjU1SDE1LjVWMjRoMTIuOXEuODUgMCAxLjQuNjUuNTUuNjUuNTUgMS41djYuMzVoMi4xNXExLjQ1IDAgMi41NS44NSAxLjEuODUgMS41IDIuMloiLz4KPC9zdmc+;rounded=1;shadow=0;glass=0;rotation=0;imageVerticalAlign=middle;autosize=0;spacing=0;spacingTop=0;spacingBottom=0;" vertex="1" parent="80">
                    <mxGeometry y="314" width="360" height="20" as="geometry"/>
                </mxCell>
                <mxCell id="98" value="onSaveConfig (SimpleCallback _CB) : void" style="label;fontStyle=0;strokeColor=none;fillColor=none;align=left;verticalAlign=middle;overflow=hidden;spacingLeft=28;spacingRight=0;rotatable=0;points=[[0,0.5],[1,0.5]];portConstraint=eastwest;imageWidth=16;imageHeight=16;image=data:image/svg+xml,PHN2ZyB4bWxucz0iaHR0cDovL3d3dy53My5vcmcvMjAwMC9zdmciIGhlaWdodD0iNDgiIHdpZHRoPSI0OCIgdmlld0JveD0iMCAwIDQ4IDQ4Ij4KICA8cGF0aCBmaWxsPSJncmVlbiIgZD0iTTI0IDQ0cS00LjE1IDAtNy44LTEuNTc1LTMuNjUtMS41NzUtNi4zNS00LjI3NS0yLjctMi43LTQuMjc1LTYuMzVRNCAyOC4xNSA0IDI0dDEuNTc1LTcuOFE3LjE1IDEyLjU1IDkuODUgOS44NXEyLjctMi43IDYuMzUtNC4yNzVRMTkuODUgNCAyNCA0dDcuOCAxLjU3NXEzLjY1IDEuNTc1IDYuMzUgNC4yNzUgMi43IDIuNyA0LjI3NSA2LjM1UTQ0IDE5Ljg1IDQ0IDI0dC0xLjU3NSA3LjhxLTEuNTc1IDMuNjUtNC4yNzUgNi4zNS0yLjcgMi43LTYuMzUgNC4yNzVRMjguMTUgNDQgMjQgNDRabS0yLjE1LTMuMDV2LTQuMXEtMS43NSAwLTIuOTUtMS4zLTEuMi0xLjMtMS4yLTMuMDV2LTIuMkw3LjQ1IDIwLjA1cS0uMjUgMS0uMzUgMS45NzVRNyAyMyA3IDI0cTAgNi41IDQuMjI1IDExLjM1dDEwLjYyNSA1LjZabTE0LjctNS40cTEuMS0xLjIgMS45MjUtMi41NS44MjUtMS4zNSAxLjQtMi44MjV0Ljg1LTMuMDI1UTQxIDI1LjYgNDEgMjRxMC01LjMtMi45LTkuNjI1VDMwLjM1IDguMDV2LjlxMCAxLjc1LTEuMiAzLjA1LTEuMiAxLjMtMi45NSAxLjNoLTQuMzV2NC4zNXEwIC44NS0uNjc1IDEuNC0uNjc1LjU1LTEuNTI1LjU1SDE1LjVWMjRoMTIuOXEuODUgMCAxLjQuNjUuNTUuNjUuNTUgMS41djYuMzVoMi4xNXExLjQ1IDAgMi41NS44NSAxLjEuODUgMS41IDIuMloiLz4KPC9zdmc+;rounded=1;shadow=0;glass=0;rotation=0;imageVerticalAlign=middle;autosize=0;spacing=0;spacingTop=0;spacingBottom=0;" vertex="1" parent="80">
                    <mxGeometry y="334" width="360" height="20" as="geometry"/>
                </mxCell>
                <mxCell id="99" value="setTime (unsigned long _Epoch, int _Millis) : void" style="label;fontStyle=0;strokeColor=none;fillColor=none;align=left;verticalAlign=middle;overflow=hidden;spacingLeft=28;spacingRight=0;rotatable=0;points=[[0,0.5],[1,0.5]];portConstraint=eastwest;imageWidth=16;imageHeight=16;image=data:image/svg+xml,PHN2ZyB4bWxucz0iaHR0cDovL3d3dy53My5vcmcvMjAwMC9zdmciIGhlaWdodD0iNDgiIHdpZHRoPSI0OCIgdmlld0JveD0iMCAwIDQ4IDQ4Ij4KICA8cGF0aCBmaWxsPSJncmVlbiIgZD0iTTI0IDQ0cS00LjE1IDAtNy44LTEuNTc1LTMuNjUtMS41NzUtNi4zNS00LjI3NS0yLjctMi43LTQuMjc1LTYuMzVRNCAyOC4xNSA0IDI0dDEuNTc1LTcuOFE3LjE1IDEyLjU1IDkuODUgOS44NXEyLjctMi43IDYuMzUtNC4yNzVRMTkuODUgNCAyNCA0dDcuOCAxLjU3NXEzLjY1IDEuNTc1IDYuMzUgNC4yNzUgMi43IDIuNyA0LjI3NSA2LjM1UTQ0IDE5Ljg1IDQ0IDI0dC0xLjU3NSA3LjhxLTEuNTc1IDMuNjUtNC4yNzUgNi4zNS0yLjcgMi43LTYuMzUgNC4yNzVRMjguMTUgNDQgMjQgNDRabS0yLjE1LTMuMDV2LTQuMXEtMS43NSAwLTIuOTUtMS4zLTEuMi0xLjMtMS4yLTMuMDV2LTIuMkw3LjQ1IDIwLjA1cS0uMjUgMS0uMzUgMS45NzVRNyAyMyA3IDI0cTAgNi41IDQuMjI1IDExLjM1dDEwLjYyNSA1LjZabTE0LjctNS40cTEuMS0xLjIgMS45MjUtMi41NS44MjUtMS4zNSAxLjQtMi44MjV0Ljg1LTMuMDI1UTQxIDI1LjYgNDEgMjRxMC01LjMtMi45LTkuNjI1VDMwLjM1IDguMDV2LjlxMCAxLjc1LTEuMiAzLjA1LTEuMiAxLjMtMi45NSAxLjNoLTQuMzV2NC4zNXEwIC44NS0uNjc1IDEuNC0uNjc1LjU1LTEuNTI1LjU1SDE1LjVWMjRoMTIuOXEuODUgMCAxLjQuNjUuNTUuNjUuNTUgMS41djYuMzVoMi4xNXExLjQ1IDAgMi41NS44NSAxLjEuODUgMS41IDIuMloiLz4KPC9zdmc+;rounded=1;shadow=0;glass=0;rotation=0;imageVerticalAlign=middle;autosize=0;spacing=0;spacingTop=0;spacingBottom=0;" vertex="1" parent="80">
                    <mxGeometry y="354" width="360" height="20" as="geometry"/>
                </mxCell>
                <mxCell id="100" value="setTime (int _Second, int _Minute, ..., int _Millis) : void" style="label;fontStyle=0;strokeColor=none;fillColor=none;align=left;verticalAlign=middle;overflow=hidden;spacingLeft=28;spacingRight=0;rotatable=0;points=[[0,0.5],[1,0.5]];portConstraint=eastwest;imageWidth=16;imageHeight=16;image=data:image/svg+xml,PHN2ZyB4bWxucz0iaHR0cDovL3d3dy53My5vcmcvMjAwMC9zdmciIGhlaWdodD0iNDgiIHdpZHRoPSI0OCIgdmlld0JveD0iMCAwIDQ4IDQ4Ij4KICA8cGF0aCBmaWxsPSJncmVlbiIgZD0iTTI0IDQ0cS00LjE1IDAtNy44LTEuNTc1LTMuNjUtMS41NzUtNi4zNS00LjI3NS0yLjctMi43LTQuMjc1LTYuMzVRNCAyOC4xNSA0IDI0dDEuNTc1LTcuOFE3LjE1IDEyLjU1IDkuODUgOS44NXEyLjctMi43IDYuMzUtNC4yNzVRMTkuODUgNCAyNCA0dDcuOCAxLjU3NXEzLjY1IDEuNTc1IDYuMzUgNC4yNzUgMi43IDIuNyA0LjI3NSA2LjM1UTQ0IDE5Ljg1IDQ0IDI0dC0xLjU3NSA3LjhxLTEuNTc1IDMuNjUtNC4yNzUgNi4zNS0yLjcgMi43LTYuMzUgNC4yNzVRMjguMTUgNDQgMjQgNDRabS0yLjE1LTMuMDV2LTQuMXEtMS43NSAwLTIuOTUtMS4zLTEuMi0xLjMtMS4yLTMuMDV2LTIuMkw3LjQ1IDIwLjA1cS0uMjUgMS0uMzUgMS45NzVRNyAyMyA3IDI0cTAgNi41IDQuMjI1IDExLjM1dDEwLjYyNSA1LjZabTE0LjctNS40cTEuMS0xLjIgMS45MjUtMi41NS44MjUtMS4zNSAxLjQtMi44MjV0Ljg1LTMuMDI1UTQxIDI1LjYgNDEgMjRxMC01LjMtMi45LTkuNjI1VDMwLjM1IDguMDV2LjlxMCAxLjc1LTEuMiAzLjA1LTEuMiAxLjMtMi45NSAxLjNoLTQuMzV2NC4zNXEwIC44NS0uNjc1IDEuNC0uNjc1LjU1LTEuNTI1LjU1SDE1LjVWMjRoMTIuOXEuODUgMCAxLjQuNjUuNTUuNjUuNTUgMS41djYuMzVoMi4xNXExLjQ1IDAgMi41NS44NSAxLjEuODUgMS41IDIuMloiLz4KPC9zdmc+;rounded=1;shadow=0;glass=0;rotation=0;imageVerticalAlign=middle;autosize=0;spacing=0;spacingTop=0;spacingBottom=0;" vertex="1" parent="80">
                    <mxGeometry y="374" width="360" height="20" as="geometry"/>
                </mxCell>
                <mxCell id="101" value="setTime (int _Second, int _Minute, ..., int _Millis) : void" style="label;fontStyle=0;strokeColor=none;fillColor=none;align=left;verticalAlign=middle;overflow=hidden;spacingLeft=28;spacingRight=0;rotatable=0;points=[[0,0.5],[1,0.5]];portConstraint=eastwest;imageWidth=16;imageHeight=16;image=data:image/svg+xml,PHN2ZyB4bWxucz0iaHR0cDovL3d3dy53My5vcmcvMjAwMC9zdmciIGhlaWdodD0iNDgiIHdpZHRoPSI0OCIgdmlld0JveD0iMCAwIDQ4IDQ4Ij4KICA8cGF0aCBmaWxsPSJncmVlbiIgZD0iTTI0IDQ0cS00LjE1IDAtNy44LTEuNTc1LTMuNjUtMS41NzUtNi4zNS00LjI3NS0yLjctMi43LTQuMjc1LTYuMzVRNCAyOC4xNSA0IDI0dDEuNTc1LTcuOFE3LjE1IDEyLjU1IDkuODUgOS44NXEyLjctMi43IDYuMzUtNC4yNzVRMTkuODUgNCAyNCA0dDcuOCAxLjU3NXEzLjY1IDEuNTc1IDYuMzUgNC4yNzUgMi43IDIuNyA0LjI3NSA2LjM1UTQ0IDE5Ljg1IDQ0IDI0dC0xLjU3NSA3LjhxLTEuNTc1IDMuNjUtNC4yNzUgNi4zNS0yLjcgMi43LTYuMzUgNC4yNzVRMjguMTUgNDQgMjQgNDRabS0yLjE1LTMuMDV2LTQuMXEtMS43NSAwLTIuOTUtMS4zLTEuMi0xLjMtMS4yLTMuMDV2LTIuMkw3LjQ1IDIwLjA1cS0uMjUgMS0uMzUgMS45NzVRNyAyMyA3IDI0cTAgNi41IDQuMjI1IDExLjM1dDEwLjYyNSA1LjZabTE0LjctNS40cTEuMS0xLjIgMS45MjUtMi41NS44MjUtMS4zNSAxLjQtMi44MjV0Ljg1LTMuMDI1UTQxIDI1LjYgNDEgMjRxMC01LjMtMi45LTkuNjI1VDMwLjM1IDguMDV2LjlxMCAxLjc1LTEuMiAzLjA1LTEuMiAxLjMtMi45NSAxLjNoLTQuMzV2NC4zNXEwIC44NS0uNjc1IDEuNC0uNjc1LjU1LTEuNTI1LjU1SDE1LjVWMjRoMTIuOXEuODUgMCAxLjQuNjUuNTUuNjUuNTUgMS41djYuMzVoMi4xNXExLjQ1IDAgMi41NS44NSAxLjEuODUgMS41IDIuMloiLz4KPC9zdmc+;rounded=1;shadow=0;glass=0;rotation=0;imageVerticalAlign=middle;autosize=0;spacing=0;spacingTop=0;spacingBottom=0;" vertex="1" parent="80">
                    <mxGeometry y="394" width="360" height="20" as="geometry"/>
                </mxCell>
                <mxCell id="102" value="setTimeStruct (tm _Time) : void" style="label;fontStyle=0;strokeColor=none;fillColor=none;align=left;verticalAlign=middle;overflow=hidden;spacingLeft=28;spacingRight=0;rotatable=0;points=[[0,0.5],[1,0.5]];portConstraint=eastwest;imageWidth=16;imageHeight=16;image=data:image/svg+xml,PHN2ZyB4bWxucz0iaHR0cDovL3d3dy53My5vcmcvMjAwMC9zdmciIGhlaWdodD0iNDgiIHdpZHRoPSI0OCIgdmlld0JveD0iMCAwIDQ4IDQ4Ij4KICA8cGF0aCBmaWxsPSJncmVlbiIgZD0iTTI0IDQ0cS00LjE1IDAtNy44LTEuNTc1LTMuNjUtMS41NzUtNi4zNS00LjI3NS0yLjctMi43LTQuMjc1LTYuMzVRNCAyOC4xNSA0IDI0dDEuNTc1LTcuOFE3LjE1IDEyLjU1IDkuODUgOS44NXEyLjctMi43IDYuMzUtNC4yNzVRMTkuODUgNCAyNCA0dDcuOCAxLjU3NXEzLjY1IDEuNTc1IDYuMzUgNC4yNzUgMi43IDIuNyA0LjI3NSA2LjM1UTQ0IDE5Ljg1IDQ0IDI0dC0xLjU3NSA3LjhxLTEuNTc1IDMuNjUtNC4yNzUgNi4zNS0yLjcgMi43LTYuMzUgNC4yNzVRMjguMTUgNDQgMjQgNDRabS0yLjE1LTMuMDV2LTQuMXEtMS43NSAwLTIuOTUtMS4zLTEuMi0xLjMtMS4yLTMuMDV2LTIuMkw3LjQ1IDIwLjA1cS0uMjUgMS0uMzUgMS45NzVRNyAyMyA3IDI0cTAgNi41IDQuMjI1IDExLjM1dDEwLjYyNSA1LjZabTE0LjctNS40cTEuMS0xLjIgMS45MjUtMi41NS44MjUtMS4zNSAxLjQtMi44MjV0Ljg1LTMuMDI1UTQxIDI1LjYgNDEgMjRxMC01LjMtMi45LTkuNjI1VDMwLjM1IDguMDV2LjlxMCAxLjc1LTEuMiAzLjA1LTEuMiAxLjMtMi45NSAxLjNoLTQuMzV2NC4zNXEwIC44NS0uNjc1IDEuNC0uNjc1LjU1LTEuNTI1LjU1SDE1LjVWMjRoMTIuOXEuODUgMCAxLjQuNjUuNTUuNjUuNTUgMS41djYuMzVoMi4xNXExLjQ1IDAgMi41NS44NSAxLjEuODUgMS41IDIuMloiLz4KPC9zdmc+;rounded=1;shadow=0;glass=0;rotation=0;imageVerticalAlign=middle;autosize=0;spacing=0;spacingTop=0;spacingBottom=0;" vertex="1" parent="80">
                    <mxGeometry y="414" width="360" height="20" as="geometry"/>
                </mxCell>
                <mxCell id="103" value="timeIsValid () : bool" style="label;fontStyle=0;strokeColor=none;fillColor=none;align=left;verticalAlign=middle;overflow=hidden;spacingLeft=28;spacingRight=0;rotatable=0;points=[[0,0.5],[1,0.5]];portConstraint=eastwest;imageWidth=16;imageHeight=16;image=data:image/svg+xml,PHN2ZyB4bWxucz0iaHR0cDovL3d3dy53My5vcmcvMjAwMC9zdmciIGhlaWdodD0iNDgiIHdpZHRoPSI0OCIgdmlld0JveD0iMCAwIDQ4IDQ4Ij4KICA8cGF0aCBmaWxsPSJncmVlbiIgZD0iTTI0IDQ0cS00LjE1IDAtNy44LTEuNTc1LTMuNjUtMS41NzUtNi4zNS00LjI3NS0yLjctMi43LTQuMjc1LTYuMzVRNCAyOC4xNSA0IDI0dDEuNTc1LTcuOFE3LjE1IDEyLjU1IDkuODUgOS44NXEyLjctMi43IDYuMzUtNC4yNzVRMTkuODUgNCAyNCA0dDcuOCAxLjU3NXEzLjY1IDEuNTc1IDYuMzUgNC4yNzUgMi43IDIuNyA0LjI3NSA2LjM1UTQ0IDE5Ljg1IDQ0IDI0dC0xLjU3NSA3LjhxLTEuNTc1IDMuNjUtNC4yNzUgNi4zNS0yLjcgMi43LTYuMzUgNC4yNzVRMjguMTUgNDQgMjQgNDRabS0yLjE1LTMuMDV2LTQuMXEtMS43NSAwLTIuOTUtMS4zLTEuMi0xLjMtMS4yLTMuMDV2LTIuMkw3LjQ1IDIwLjA1cS0uMjUgMS0uMzUgMS45NzVRNyAyMyA3IDI0cTAgNi41IDQuMjI1IDExLjM1dDEwLjYyNSA1LjZabTE0LjctNS40cTEuMS0xLjIgMS45MjUtMi41NS44MjUtMS4zNSAxLjQtMi44MjV0Ljg1LTMuMDI1UTQxIDI1LjYgNDEgMjRxMC01LjMtMi45LTkuNjI1VDMwLjM1IDguMDV2LjlxMCAxLjc1LTEuMiAzLjA1LTEuMiAxLjMtMi45NSAxLjNoLTQuMzV2NC4zNXEwIC44NS0uNjc1IDEuNC0uNjc1LjU1LTEuNTI1LjU1SDE1LjVWMjRoMTIuOXEuODUgMCAxLjQuNjUuNTUuNjUuNTUgMS41djYuMzVoMi4xNXExLjQ1IDAgMi41NS44NSAxLjEuODUgMS41IDIuMloiLz4KPC9zdmc+;rounded=1;shadow=0;glass=0;rotation=0;imageVerticalAlign=middle;autosize=0;spacing=0;spacingTop=0;spacingBottom=0;" vertex="1" parent="80">
                    <mxGeometry y="434" width="360" height="20" as="geometry"/>
                </mxCell>
                <mxCell id="104" value="getTimeStruct () : tm" style="label;fontStyle=0;strokeColor=none;fillColor=none;align=left;verticalAlign=middle;overflow=hidden;spacingLeft=28;spacingRight=0;rotatable=0;points=[[0,0.5],[1,0.5]];portConstraint=eastwest;imageWidth=16;imageHeight=16;image=data:image/svg+xml,PHN2ZyB4bWxucz0iaHR0cDovL3d3dy53My5vcmcvMjAwMC9zdmciIGhlaWdodD0iNDgiIHdpZHRoPSI0OCIgdmlld0JveD0iMCAwIDQ4IDQ4Ij4KICA8cGF0aCBmaWxsPSJncmVlbiIgZD0iTTI0IDQ0cS00LjE1IDAtNy44LTEuNTc1LTMuNjUtMS41NzUtNi4zNS00LjI3NS0yLjctMi43LTQuMjc1LTYuMzVRNCAyOC4xNSA0IDI0dDEuNTc1LTcuOFE3LjE1IDEyLjU1IDkuODUgOS44NXEyLjctMi43IDYuMzUtNC4yNzVRMTkuODUgNCAyNCA0dDcuOCAxLjU3NXEzLjY1IDEuNTc1IDYuMzUgNC4yNzUgMi43IDIuNyA0LjI3NSA2LjM1UTQ0IDE5Ljg1IDQ0IDI0dC0xLjU3NSA3LjhxLTEuNTc1IDMuNjUtNC4yNzUgNi4zNS0yLjcgMi43LTYuMzUgNC4yNzVRMjguMTUgNDQgMjQgNDRabS0yLjE1LTMuMDV2LTQuMXEtMS43NSAwLTIuOTUtMS4zLTEuMi0xLjMtMS4yLTMuMDV2LTIuMkw3LjQ1IDIwLjA1cS0uMjUgMS0uMzUgMS45NzVRNyAyMyA3IDI0cTAgNi41IDQuMjI1IDExLjM1dDEwLjYyNSA1LjZabTE0LjctNS40cTEuMS0xLjIgMS45MjUtMi41NS44MjUtMS4zNSAxLjQtMi44MjV0Ljg1LTMuMDI1UTQxIDI1LjYgNDEgMjRxMC01LjMtMi45LTkuNjI1VDMwLjM1IDguMDV2LjlxMCAxLjc1LTEuMiAzLjA1LTEuMiAxLjMtMi45NSAxLjNoLTQuMzV2NC4zNXEwIC44NS0uNjc1IDEuNC0uNjc1LjU1LTEuNTI1LjU1SDE1LjVWMjRoMTIuOXEuODUgMCAxLjQuNjUuNTUuNjUuNTUgMS41djYuMzVoMi4xNXExLjQ1IDAgMi41NS44NSAxLjEuODUgMS41IDIuMloiLz4KPC9zdmc+;rounded=1;shadow=0;glass=0;rotation=0;imageVerticalAlign=middle;autosize=0;spacing=0;spacingTop=0;spacingBottom=0;" vertex="1" parent="80">
                    <mxGeometry y="454" width="360" height="20" as="geometry"/>
                </mxCell>
                <mxCell id="105" value="getTime () : String" style="label;fontStyle=0;strokeColor=none;fillColor=none;align=left;verticalAlign=middle;overflow=hidden;spacingLeft=28;spacingRight=0;rotatable=0;points=[[0,0.5],[1,0.5]];portConstraint=eastwest;imageWidth=16;imageHeight=16;image=data:image/svg+xml,PHN2ZyB4bWxucz0iaHR0cDovL3d3dy53My5vcmcvMjAwMC9zdmciIGhlaWdodD0iNDgiIHdpZHRoPSI0OCIgdmlld0JveD0iMCAwIDQ4IDQ4Ij4KICA8cGF0aCBmaWxsPSJncmVlbiIgZD0iTTI0IDQ0cS00LjE1IDAtNy44LTEuNTc1LTMuNjUtMS41NzUtNi4zNS00LjI3NS0yLjctMi43LTQuMjc1LTYuMzVRNCAyOC4xNSA0IDI0dDEuNTc1LTcuOFE3LjE1IDEyLjU1IDkuODUgOS44NXEyLjctMi43IDYuMzUtNC4yNzVRMTkuODUgNCAyNCA0dDcuOCAxLjU3NXEzLjY1IDEuNTc1IDYuMzUgNC4yNzUgMi43IDIuNyA0LjI3NSA2LjM1UTQ0IDE5Ljg1IDQ0IDI0dC0xLjU3NSA3LjhxLTEuNTc1IDMuNjUtNC4yNzUgNi4zNS0yLjcgMi43LTYuMzUgNC4yNzVRMjguMTUgNDQgMjQgNDRabS0yLjE1LTMuMDV2LTQuMXEtMS43NSAwLTIuOTUtMS4zLTEuMi0xLjMtMS4yLTMuMDV2LTIuMkw3LjQ1IDIwLjA1cS0uMjUgMS0uMzUgMS45NzVRNyAyMyA3IDI0cTAgNi41IDQuMjI1IDExLjM1dDEwLjYyNSA1LjZabTE0LjctNS40cTEuMS0xLjIgMS45MjUtMi41NS44MjUtMS4zNSAxLjQtMi44MjV0Ljg1LTMuMDI1UTQxIDI1LjYgNDEgMjRxMC01LjMtMi45LTkuNjI1VDMwLjM1IDguMDV2LjlxMCAxLjc1LTEuMiAzLjA1LTEuMiAxLjMtMi45NSAxLjNoLTQuMzV2NC4zNXEwIC44NS0uNjc1IDEuNC0uNjc1LjU1LTEuNTI1LjU1SDE1LjVWMjRoMTIuOXEuODUgMCAxLjQuNjUuNTUuNjUuNTUgMS41djYuMzVoMi4xNXExLjQ1IDAgMi41NS44NSAxLjEuODUgMS41IDIuMloiLz4KPC9zdmc+;rounded=1;shadow=0;glass=0;rotation=0;imageVerticalAlign=middle;autosize=0;spacing=0;spacingTop=0;spacingBottom=0;" vertex="1" parent="80">
                    <mxGeometry y="474" width="360" height="20" as="geometry"/>
                </mxCell>
                <mxCell id="106" value="getDate () : String" style="label;fontStyle=0;strokeColor=none;fillColor=none;align=left;verticalAlign=middle;overflow=hidden;spacingLeft=28;spacingRight=0;rotatable=0;points=[[0,0.5],[1,0.5]];portConstraint=eastwest;imageWidth=16;imageHeight=16;image=data:image/svg+xml,PHN2ZyB4bWxucz0iaHR0cDovL3d3dy53My5vcmcvMjAwMC9zdmciIGhlaWdodD0iNDgiIHdpZHRoPSI0OCIgdmlld0JveD0iMCAwIDQ4IDQ4Ij4KICA8cGF0aCBmaWxsPSJncmVlbiIgZD0iTTI0IDQ0cS00LjE1IDAtNy44LTEuNTc1LTMuNjUtMS41NzUtNi4zNS00LjI3NS0yLjctMi43LTQuMjc1LTYuMzVRNCAyOC4xNSA0IDI0dDEuNTc1LTcuOFE3LjE1IDEyLjU1IDkuODUgOS44NXEyLjctMi43IDYuMzUtNC4yNzVRMTkuODUgNCAyNCA0dDcuOCAxLjU3NXEzLjY1IDEuNTc1IDYuMzUgNC4yNzUgMi43IDIuNyA0LjI3NSA2LjM1UTQ0IDE5Ljg1IDQ0IDI0dC0xLjU3NSA3LjhxLTEuNTc1IDMuNjUtNC4yNzUgNi4zNS0yLjcgMi43LTYuMzUgNC4yNzVRMjguMTUgNDQgMjQgNDRabS0yLjE1LTMuMDV2LTQuMXEtMS43NSAwLTIuOTUtMS4zLTEuMi0xLjMtMS4yLTMuMDV2LTIuMkw3LjQ1IDIwLjA1cS0uMjUgMS0uMzUgMS45NzVRNyAyMyA3IDI0cTAgNi41IDQuMjI1IDExLjM1dDEwLjYyNSA1LjZabTE0LjctNS40cTEuMS0xLjIgMS45MjUtMi41NS44MjUtMS4zNSAxLjQtMi44MjV0Ljg1LTMuMDI1UTQxIDI1LjYgNDEgMjRxMC01LjMtMi45LTkuNjI1VDMwLjM1IDguMDV2LjlxMCAxLjc1LTEuMiAzLjA1LTEuMiAxLjMtMi45NSAxLjNoLTQuMzV2NC4zNXEwIC44NS0uNjc1IDEuNC0uNjc1LjU1LTEuNTI1LjU1SDE1LjVWMjRoMTIuOXEuODUgMCAxLjQuNjUuNTUuNjUuNTUgMS41djYuMzVoMi4xNXExLjQ1IDAgMi41NS44NSAxLjEuODUgMS41IDIuMloiLz4KPC9zdmc+;rounded=1;shadow=0;glass=0;rotation=0;imageVerticalAlign=middle;autosize=0;spacing=0;spacingTop=0;spacingBottom=0;" vertex="1" parent="80">
                    <mxGeometry y="494" width="360" height="20" as="geometry"/>
                </mxCell>
                <mxCell id="107" value="getTimeString (String _Format) : String" style="label;fontStyle=0;strokeColor=none;fillColor=none;align=left;verticalAlign=middle;overflow=hidden;spacingLeft=28;spacingRight=0;rotatable=0;points=[[0,0.5],[1,0.5]];portConstraint=eastwest;imageWidth=16;imageHeight=16;image=data:image/svg+xml,PHN2ZyB4bWxucz0iaHR0cDovL3d3dy53My5vcmcvMjAwMC9zdmciIGhlaWdodD0iNDgiIHdpZHRoPSI0OCIgdmlld0JveD0iMCAwIDQ4IDQ4Ij4KICA8cGF0aCBmaWxsPSJncmVlbiIgZD0iTTI0IDQ0cS00LjE1IDAtNy44LTEuNTc1LTMuNjUtMS41NzUtNi4zNS00LjI3NS0yLjctMi43LTQuMjc1LTYuMzVRNCAyOC4xNSA0IDI0dDEuNTc1LTcuOFE3LjE1IDEyLjU1IDkuODUgOS44NXEyLjctMi43IDYuMzUtNC4yNzVRMTkuODUgNCAyNCA0dDcuOCAxLjU3NXEzLjY1IDEuNTc1IDYuMzUgNC4yNzUgMi43IDIuNyA0LjI3NSA2LjM1UTQ0IDE5Ljg1IDQ0IDI0dC0xLjU3NSA3LjhxLTEuNTc1IDMuNjUtNC4yNzUgNi4zNS0yLjcgMi43LTYuMzUgNC4yNzVRMjguMTUgNDQgMjQgNDRabS0yLjE1LTMuMDV2LTQuMXEtMS43NSAwLTIuOTUtMS4zLTEuMi0xLjMtMS4yLTMuMDV2LTIuMkw3LjQ1IDIwLjA1cS0uMjUgMS0uMzUgMS45NzVRNyAyMyA3IDI0cTAgNi41IDQuMjI1IDExLjM1dDEwLjYyNSA1LjZabTE0LjctNS40cTEuMS0xLjIgMS45MjUtMi41NS44MjUtMS4zNSAxLjQtMi44MjV0Ljg1LTMuMDI1UTQxIDI1LjYgNDEgMjRxMC01LjMtMi45LTkuNjI1VDMwLjM1IDguMDV2LjlxMCAxLjc1LTEuMiAzLjA1LTEuMiAxLjMtMi45NSAxLjNoLTQuMzV2NC4zNXEwIC44NS0uNjc1IDEuNC0uNjc1LjU1LTEuNTI1LjU1SDE1LjVWMjRoMTIuOXEuODUgMCAxLjQuNjUuNTUuNjUuNTUgMS41djYuMzVoMi4xNXExLjQ1IDAgMi41NS44NSAxLjEuODUgMS41IDIuMloiLz4KPC9zdmc+;rounded=1;shadow=0;glass=0;rotation=0;imageVerticalAlign=middle;autosize=0;spacing=0;spacingTop=0;spacingBottom=0;" vertex="1" parent="80">
                    <mxGeometry y="514" width="360" height="20" as="geometry"/>
                </mxCell>
                <mxCell id="109" value="" style="line;strokeWidth=1;fillColor=none;align=left;verticalAlign=middle;spacingTop=-1;spacingLeft=3;spacingRight=3;rotatable=0;labelPosition=right;points=[];portConstraint=eastwest;rounded=1;shadow=0;glass=0;dashed=1;" vertex="1" parent="80">
                    <mxGeometry y="534" width="360" height="3" as="geometry"/>
                </mxCell>
                <mxCell id="108" value="onWebHomeReplace (AwsTemplateProcessor _CB) : void" style="label;fontStyle=0;strokeColor=none;fillColor=none;align=left;verticalAlign=middle;overflow=hidden;spacingLeft=28;spacingRight=0;rotatable=0;points=[[0,0.5],[1,0.5]];portConstraint=eastwest;imageWidth=16;imageHeight=16;image=data:image/svg+xml,PHN2ZyB4bWxucz0iaHR0cDovL3d3dy53My5vcmcvMjAwMC9zdmciIGhlaWdodD0iNDgiIHdpZHRoPSI0OCIgdmlld0JveD0iMCAwIDQ4IDQ4Ij4KICA8cGF0aCBmaWxsPSJncmVlbiIgZD0iTTI0IDQ0cS00LjE1IDAtNy44LTEuNTc1LTMuNjUtMS41NzUtNi4zNS00LjI3NS0yLjctMi43LTQuMjc1LTYuMzVRNCAyOC4xNSA0IDI0dDEuNTc1LTcuOFE3LjE1IDEyLjU1IDkuODUgOS44NXEyLjctMi43IDYuMzUtNC4yNzVRMTkuODUgNCAyNCA0dDcuOCAxLjU3NXEzLjY1IDEuNTc1IDYuMzUgNC4yNzUgMi43IDIuNyA0LjI3NSA2LjM1UTQ0IDE5Ljg1IDQ0IDI0dC0xLjU3NSA3LjhxLTEuNTc1IDMuNjUtNC4yNzUgNi4zNS0yLjcgMi43LTYuMzUgNC4yNzVRMjguMTUgNDQgMjQgNDRabS0yLjE1LTMuMDV2LTQuMXEtMS43NSAwLTIuOTUtMS4zLTEuMi0xLjMtMS4yLTMuMDV2LTIuMkw3LjQ1IDIwLjA1cS0uMjUgMS0uMzUgMS45NzVRNyAyMyA3IDI0cTAgNi41IDQuMjI1IDExLjM1dDEwLjYyNSA1LjZabTE0LjctNS40cTEuMS0xLjIgMS45MjUtMi41NS44MjUtMS4zNSAxLjQtMi44MjV0Ljg1LTMuMDI1UTQxIDI1LjYgNDEgMjRxMC01LjMtMi45LTkuNjI1VDMwLjM1IDguMDV2LjlxMCAxLjc1LTEuMiAzLjA1LTEuMiAxLjMtMi45NSAxLjNoLTQuMzV2NC4zNXEwIC44NS0uNjc1IDEuNC0uNjc1LjU1LTEuNTI1LjU1SDE1LjVWMjRoMTIuOXEuODUgMCAxLjQuNjUuNTUuNjUuNTUgMS41djYuMzVoMi4xNXExLjQ1IDAgMi41NS44NSAxLjEuODUgMS41IDIuMloiLz4KPC9zdmc+;rounded=1;shadow=0;glass=0;rotation=0;imageVerticalAlign=middle;autosize=0;spacing=0;spacingTop=0;spacingBottom=0;" vertex="1" parent="80">
                    <mxGeometry y="537" width="360" height="20" as="geometry"/>
                </mxCell>
                <mxCell id="110" value="onWebConfigReplace (AwsTemplateProcessor _CB) : void" style="label;fontStyle=0;strokeColor=none;fillColor=none;align=left;verticalAlign=middle;overflow=hidden;spacingLeft=28;spacingRight=0;rotatable=0;points=[[0,0.5],[1,0.5]];portConstraint=eastwest;imageWidth=16;imageHeight=16;image=data:image/svg+xml,PHN2ZyB4bWxucz0iaHR0cDovL3d3dy53My5vcmcvMjAwMC9zdmciIGhlaWdodD0iNDgiIHdpZHRoPSI0OCIgdmlld0JveD0iMCAwIDQ4IDQ4Ij4KICA8cGF0aCBmaWxsPSJncmVlbiIgZD0iTTI0IDQ0cS00LjE1IDAtNy44LTEuNTc1LTMuNjUtMS41NzUtNi4zNS00LjI3NS0yLjctMi43LTQuMjc1LTYuMzVRNCAyOC4xNSA0IDI0dDEuNTc1LTcuOFE3LjE1IDEyLjU1IDkuODUgOS44NXEyLjctMi43IDYuMzUtNC4yNzVRMTkuODUgNCAyNCA0dDcuOCAxLjU3NXEzLjY1IDEuNTc1IDYuMzUgNC4yNzUgMi43IDIuNyA0LjI3NSA2LjM1UTQ0IDE5Ljg1IDQ0IDI0dC0xLjU3NSA3LjhxLTEuNTc1IDMuNjUtNC4yNzUgNi4zNS0yLjcgMi43LTYuMzUgNC4yNzVRMjguMTUgNDQgMjQgNDRabS0yLjE1LTMuMDV2LTQuMXEtMS43NSAwLTIuOTUtMS4zLTEuMi0xLjMtMS4yLTMuMDV2LTIuMkw3LjQ1IDIwLjA1cS0uMjUgMS0uMzUgMS45NzVRNyAyMyA3IDI0cTAgNi41IDQuMjI1IDExLjM1dDEwLjYyNSA1LjZabTE0LjctNS40cTEuMS0xLjIgMS45MjUtMi41NS44MjUtMS4zNSAxLjQtMi44MjV0Ljg1LTMuMDI1UTQxIDI1LjYgNDEgMjRxMC01LjMtMi45LTkuNjI1VDMwLjM1IDguMDV2LjlxMCAxLjc1LTEuMiAzLjA1LTEuMiAxLjMtMi45NSAxLjNoLTQuMzV2NC4zNXEwIC44NS0uNjc1IDEuNC0uNjc1LjU1LTEuNTI1LjU1SDE1LjVWMjRoMTIuOXEuODUgMCAxLjQuNjUuNTUuNjUuNTUgMS41djYuMzVoMi4xNXExLjQ1IDAgMi41NS44NSAxLjEuODUgMS41IDIuMloiLz4KPC9zdmc+;rounded=1;shadow=0;glass=0;rotation=0;imageVerticalAlign=middle;autosize=0;spacing=0;spacingTop=0;spacingBottom=0;" vertex="1" parent="80">
                    <mxGeometry y="557" width="360" height="20" as="geometry"/>
                </mxCell>
                <mxCell id="111" value="" style="line;strokeWidth=1;fillColor=none;align=left;verticalAlign=middle;spacingTop=-1;spacingLeft=3;spacingRight=3;rotatable=0;labelPosition=right;points=[];portConstraint=eastwest;rounded=1;shadow=0;glass=0;dashed=1;" vertex="1" parent="80">
                    <mxGeometry y="577" width="360" height="3" as="geometry"/>
                </mxCell>
                <mxCell id="112" value="onRestApiGet (JsonVariantCallback _CB) : void" style="label;fontStyle=0;strokeColor=none;fillColor=none;align=left;verticalAlign=middle;overflow=hidden;spacingLeft=28;spacingRight=0;rotatable=0;points=[[0,0.5],[1,0.5]];portConstraint=eastwest;imageWidth=16;imageHeight=16;image=data:image/svg+xml,PHN2ZyB4bWxucz0iaHR0cDovL3d3dy53My5vcmcvMjAwMC9zdmciIGhlaWdodD0iNDgiIHdpZHRoPSI0OCIgdmlld0JveD0iMCAwIDQ4IDQ4Ij4KICA8cGF0aCBmaWxsPSJncmVlbiIgZD0iTTI0IDQ0cS00LjE1IDAtNy44LTEuNTc1LTMuNjUtMS41NzUtNi4zNS00LjI3NS0yLjctMi43LTQuMjc1LTYuMzVRNCAyOC4xNSA0IDI0dDEuNTc1LTcuOFE3LjE1IDEyLjU1IDkuODUgOS44NXEyLjctMi43IDYuMzUtNC4yNzVRMTkuODUgNCAyNCA0dDcuOCAxLjU3NXEzLjY1IDEuNTc1IDYuMzUgNC4yNzUgMi43IDIuNyA0LjI3NSA2LjM1UTQ0IDE5Ljg1IDQ0IDI0dC0xLjU3NSA3LjhxLTEuNTc1IDMuNjUtNC4yNzUgNi4zNS0yLjcgMi43LTYuMzUgNC4yNzVRMjguMTUgNDQgMjQgNDRabS0yLjE1LTMuMDV2LTQuMXEtMS43NSAwLTIuOTUtMS4zLTEuMi0xLjMtMS4yLTMuMDV2LTIuMkw3LjQ1IDIwLjA1cS0uMjUgMS0uMzUgMS45NzVRNyAyMyA3IDI0cTAgNi41IDQuMjI1IDExLjM1dDEwLjYyNSA1LjZabTE0LjctNS40cTEuMS0xLjIgMS45MjUtMi41NS44MjUtMS4zNSAxLjQtMi44MjV0Ljg1LTMuMDI1UTQxIDI1LjYgNDEgMjRxMC01LjMtMi45LTkuNjI1VDMwLjM1IDguMDV2LjlxMCAxLjc1LTEuMiAzLjA1LTEuMiAxLjMtMi45NSAxLjNoLTQuMzV2NC4zNXEwIC44NS0uNjc1IDEuNC0uNjc1LjU1LTEuNTI1LjU1SDE1LjVWMjRoMTIuOXEuODUgMCAxLjQuNjUuNTUuNjUuNTUgMS41djYuMzVoMi4xNXExLjQ1IDAgMi41NS44NSAxLjEuODUgMS41IDIuMloiLz4KPC9zdmc+;rounded=1;shadow=0;glass=0;rotation=0;imageVerticalAlign=middle;autosize=0;spacing=0;spacingTop=0;spacingBottom=0;" vertex="1" parent="80">
                    <mxGeometry y="580" width="360" height="20" as="geometry"/>
                </mxCell>
                <mxCell id="113" value="onRestApiPost (JsonVariantCallback _CB) : void" style="label;fontStyle=0;strokeColor=none;fillColor=none;align=left;verticalAlign=middle;overflow=hidden;spacingLeft=28;spacingRight=0;rotatable=0;points=[[0,0.5],[1,0.5]];portConstraint=eastwest;imageWidth=16;imageHeight=16;image=data:image/svg+xml,PHN2ZyB4bWxucz0iaHR0cDovL3d3dy53My5vcmcvMjAwMC9zdmciIGhlaWdodD0iNDgiIHdpZHRoPSI0OCIgdmlld0JveD0iMCAwIDQ4IDQ4Ij4KICA8cGF0aCBmaWxsPSJncmVlbiIgZD0iTTI0IDQ0cS00LjE1IDAtNy44LTEuNTc1LTMuNjUtMS41NzUtNi4zNS00LjI3NS0yLjctMi43LTQuMjc1LTYuMzVRNCAyOC4xNSA0IDI0dDEuNTc1LTcuOFE3LjE1IDEyLjU1IDkuODUgOS44NXEyLjctMi43IDYuMzUtNC4yNzVRMTkuODUgNCAyNCA0dDcuOCAxLjU3NXEzLjY1IDEuNTc1IDYuMzUgNC4yNzUgMi43IDIuNyA0LjI3NSA2LjM1UTQ0IDE5Ljg1IDQ0IDI0dC0xLjU3NSA3LjhxLTEuNTc1IDMuNjUtNC4yNzUgNi4zNS0yLjcgMi43LTYuMzUgNC4yNzVRMjguMTUgNDQgMjQgNDRabS0yLjE1LTMuMDV2LTQuMXEtMS43NSAwLTIuOTUtMS4zLTEuMi0xLjMtMS4yLTMuMDV2LTIuMkw3LjQ1IDIwLjA1cS0uMjUgMS0uMzUgMS45NzVRNyAyMyA3IDI0cTAgNi41IDQuMjI1IDExLjM1dDEwLjYyNSA1LjZabTE0LjctNS40cTEuMS0xLjIgMS45MjUtMi41NS44MjUtMS4zNSAxLjQtMi44MjV0Ljg1LTMuMDI1UTQxIDI1LjYgNDEgMjRxMC01LjMtMi45LTkuNjI1VDMwLjM1IDguMDV2LjlxMCAxLjc1LTEuMiAzLjA1LTEuMiAxLjMtMi45NSAxLjNoLTQuMzV2NC4zNXEwIC44NS0uNjc1IDEuNC0uNjc1LjU1LTEuNTI1LjU1SDE1LjVWMjRoMTIuOXEuODUgMCAxLjQuNjUuNTUuNjUuNTUgMS41djYuMzVoMi4xNXExLjQ1IDAgMi41NS44NSAxLjEuODUgMS41IDIuMloiLz4KPC9zdmc+;rounded=1;shadow=0;glass=0;rotation=0;imageVerticalAlign=middle;autosize=0;spacing=0;spacingTop=0;spacingBottom=0;" vertex="1" parent="80">
                    <mxGeometry y="600" width="360" height="20" as="geometry"/>
                </mxCell>
                <mxCell id="114" value="onRestApiPut (JsonVariantCallback _CB) : void" style="label;fontStyle=0;strokeColor=none;fillColor=none;align=left;verticalAlign=middle;overflow=hidden;spacingLeft=28;spacingRight=0;rotatable=0;points=[[0,0.5],[1,0.5]];portConstraint=eastwest;imageWidth=16;imageHeight=16;image=data:image/svg+xml,PHN2ZyB4bWxucz0iaHR0cDovL3d3dy53My5vcmcvMjAwMC9zdmciIGhlaWdodD0iNDgiIHdpZHRoPSI0OCIgdmlld0JveD0iMCAwIDQ4IDQ4Ij4KICA8cGF0aCBmaWxsPSJncmVlbiIgZD0iTTI0IDQ0cS00LjE1IDAtNy44LTEuNTc1LTMuNjUtMS41NzUtNi4zNS00LjI3NS0yLjctMi43LTQuMjc1LTYuMzVRNCAyOC4xNSA0IDI0dDEuNTc1LTcuOFE3LjE1IDEyLjU1IDkuODUgOS44NXEyLjctMi43IDYuMzUtNC4yNzVRMTkuODUgNCAyNCA0dDcuOCAxLjU3NXEzLjY1IDEuNTc1IDYuMzUgNC4yNzUgMi43IDIuNyA0LjI3NSA2LjM1UTQ0IDE5Ljg1IDQ0IDI0dC0xLjU3NSA3LjhxLTEuNTc1IDMuNjUtNC4yNzUgNi4zNS0yLjcgMi43LTYuMzUgNC4yNzVRMjguMTUgNDQgMjQgNDRabS0yLjE1LTMuMDV2LTQuMXEtMS43NSAwLTIuOTUtMS4zLTEuMi0xLjMtMS4yLTMuMDV2LTIuMkw3LjQ1IDIwLjA1cS0uMjUgMS0uMzUgMS45NzVRNyAyMyA3IDI0cTAgNi41IDQuMjI1IDExLjM1dDEwLjYyNSA1LjZabTE0LjctNS40cTEuMS0xLjIgMS45MjUtMi41NS44MjUtMS4zNSAxLjQtMi44MjV0Ljg1LTMuMDI1UTQxIDI1LjYgNDEgMjRxMC01LjMtMi45LTkuNjI1VDMwLjM1IDguMDV2LjlxMCAxLjc1LTEuMiAzLjA1LTEuMiAxLjMtMi45NSAxLjNoLTQuMzV2NC4zNXEwIC44NS0uNjc1IDEuNC0uNjc1LjU1LTEuNTI1LjU1SDE1LjVWMjRoMTIuOXEuODUgMCAxLjQuNjUuNTUuNjUuNTUgMS41djYuMzVoMi4xNXExLjQ1IDAgMi41NS44NSAxLjEuODUgMS41IDIuMloiLz4KPC9zdmc+;rounded=1;shadow=0;glass=0;rotation=0;imageVerticalAlign=middle;autosize=0;spacing=0;spacingTop=0;spacingBottom=0;" vertex="1" parent="80">
                    <mxGeometry y="620" width="360" height="20" as="geometry"/>
                </mxCell>
                <mxCell id="115" value="onRestApiPatch (JsonVariantCallback _CB) : void" style="label;fontStyle=0;strokeColor=none;fillColor=none;align=left;verticalAlign=middle;overflow=hidden;spacingLeft=28;spacingRight=0;rotatable=0;points=[[0,0.5],[1,0.5]];portConstraint=eastwest;imageWidth=16;imageHeight=16;image=data:image/svg+xml,PHN2ZyB4bWxucz0iaHR0cDovL3d3dy53My5vcmcvMjAwMC9zdmciIGhlaWdodD0iNDgiIHdpZHRoPSI0OCIgdmlld0JveD0iMCAwIDQ4IDQ4Ij4KICA8cGF0aCBmaWxsPSJncmVlbiIgZD0iTTI0IDQ0cS00LjE1IDAtNy44LTEuNTc1LTMuNjUtMS41NzUtNi4zNS00LjI3NS0yLjctMi43LTQuMjc1LTYuMzVRNCAyOC4xNSA0IDI0dDEuNTc1LTcuOFE3LjE1IDEyLjU1IDkuODUgOS44NXEyLjctMi43IDYuMzUtNC4yNzVRMTkuODUgNCAyNCA0dDcuOCAxLjU3NXEzLjY1IDEuNTc1IDYuMzUgNC4yNzUgMi43IDIuNyA0LjI3NSA2LjM1UTQ0IDE5Ljg1IDQ0IDI0dC0xLjU3NSA3LjhxLTEuNTc1IDMuNjUtNC4yNzUgNi4zNS0yLjcgMi43LTYuMzUgNC4yNzVRMjguMTUgNDQgMjQgNDRabS0yLjE1LTMuMDV2LTQuMXEtMS43NSAwLTIuOTUtMS4zLTEuMi0xLjMtMS4yLTMuMDV2LTIuMkw3LjQ1IDIwLjA1cS0uMjUgMS0uMzUgMS45NzVRNyAyMyA3IDI0cTAgNi41IDQuMjI1IDExLjM1dDEwLjYyNSA1LjZabTE0LjctNS40cTEuMS0xLjIgMS45MjUtMi41NS44MjUtMS4zNSAxLjQtMi44MjV0Ljg1LTMuMDI1UTQxIDI1LjYgNDEgMjRxMC01LjMtMi45LTkuNjI1VDMwLjM1IDguMDV2LjlxMCAxLjc1LTEuMiAzLjA1LTEuMiAxLjMtMi45NSAxLjNoLTQuMzV2NC4zNXEwIC44NS0uNjc1IDEuNC0uNjc1LjU1LTEuNTI1LjU1SDE1LjVWMjRoMTIuOXEuODUgMCAxLjQuNjUuNTUuNjUuNTUgMS41djYuMzVoMi4xNXExLjQ1IDAgMi41NS44NSAxLjEuODUgMS41IDIuMloiLz4KPC9zdmc+;rounded=1;shadow=0;glass=0;rotation=0;imageVerticalAlign=middle;autosize=0;spacing=0;spacingTop=0;spacingBottom=0;" vertex="1" parent="80">
                    <mxGeometry y="640" width="360" height="20" as="geometry"/>
                </mxCell>
                <mxCell id="116" value="onRestApiDelete (JsonVariantCallback _CB) : void" style="label;fontStyle=0;strokeColor=none;fillColor=none;align=left;verticalAlign=middle;overflow=hidden;spacingLeft=28;spacingRight=0;rotatable=0;points=[[0,0.5],[1,0.5]];portConstraint=eastwest;imageWidth=16;imageHeight=16;image=data:image/svg+xml,PHN2ZyB4bWxucz0iaHR0cDovL3d3dy53My5vcmcvMjAwMC9zdmciIGhlaWdodD0iNDgiIHdpZHRoPSI0OCIgdmlld0JveD0iMCAwIDQ4IDQ4Ij4KICA8cGF0aCBmaWxsPSJncmVlbiIgZD0iTTI0IDQ0cS00LjE1IDAtNy44LTEuNTc1LTMuNjUtMS41NzUtNi4zNS00LjI3NS0yLjctMi43LTQuMjc1LTYuMzVRNCAyOC4xNSA0IDI0dDEuNTc1LTcuOFE3LjE1IDEyLjU1IDkuODUgOS44NXEyLjctMi43IDYuMzUtNC4yNzVRMTkuODUgNCAyNCA0dDcuOCAxLjU3NXEzLjY1IDEuNTc1IDYuMzUgNC4yNzUgMi43IDIuNyA0LjI3NSA2LjM1UTQ0IDE5Ljg1IDQ0IDI0dC0xLjU3NSA3LjhxLTEuNTc1IDMuNjUtNC4yNzUgNi4zNS0yLjcgMi43LTYuMzUgNC4yNzVRMjguMTUgNDQgMjQgNDRabS0yLjE1LTMuMDV2LTQuMXEtMS43NSAwLTIuOTUtMS4zLTEuMi0xLjMtMS4yLTMuMDV2LTIuMkw3LjQ1IDIwLjA1cS0uMjUgMS0uMzUgMS45NzVRNyAyMyA3IDI0cTAgNi41IDQuMjI1IDExLjM1dDEwLjYyNSA1LjZabTE0LjctNS40cTEuMS0xLjIgMS45MjUtMi41NS44MjUtMS4zNSAxLjQtMi44MjV0Ljg1LTMuMDI1UTQxIDI1LjYgNDEgMjRxMC01LjMtMi45LTkuNjI1VDMwLjM1IDguMDV2LjlxMCAxLjc1LTEuMiAzLjA1LTEuMiAxLjMtMi45NSAxLjNoLTQuMzV2NC4zNXEwIC44NS0uNjc1IDEuNC0uNjc1LjU1LTEuNTI1LjU1SDE1LjVWMjRoMTIuOXEuODUgMCAxLjQuNjUuNTUuNjUuNTUgMS41djYuMzVoMi4xNXExLjQ1IDAgMi41NS44NSAxLjEuODUgMS41IDIuMloiLz4KPC9zdmc+;rounded=1;shadow=0;glass=0;rotation=0;imageVerticalAlign=middle;autosize=0;spacing=0;spacingTop=0;spacingBottom=0;" vertex="1" parent="80">
                    <mxGeometry y="660" width="360" height="20" as="geometry"/>
                </mxCell>
                <mxCell id="117" value="" style="line;strokeWidth=1;fillColor=none;align=left;verticalAlign=middle;spacingTop=-1;spacingLeft=3;spacingRight=3;rotatable=0;labelPosition=right;points=[];portConstraint=eastwest;rounded=1;shadow=0;glass=0;dashed=1;" vertex="1" parent="80">
                    <mxGeometry y="680" width="360" height="3" as="geometry"/>
                </mxCell>
                <mxCell id="118" value="onWsData (JsonVariantCallback _CB) : void" style="label;fontStyle=0;strokeColor=none;fillColor=none;align=left;verticalAlign=middle;overflow=hidden;spacingLeft=28;spacingRight=0;rotatable=0;points=[[0,0.5],[1,0.5]];portConstraint=eastwest;imageWidth=16;imageHeight=16;image=data:image/svg+xml,PHN2ZyB4bWxucz0iaHR0cDovL3d3dy53My5vcmcvMjAwMC9zdmciIGhlaWdodD0iNDgiIHdpZHRoPSI0OCIgdmlld0JveD0iMCAwIDQ4IDQ4Ij4KICA8cGF0aCBmaWxsPSJncmVlbiIgZD0iTTI0IDQ0cS00LjE1IDAtNy44LTEuNTc1LTMuNjUtMS41NzUtNi4zNS00LjI3NS0yLjctMi43LTQuMjc1LTYuMzVRNCAyOC4xNSA0IDI0dDEuNTc1LTcuOFE3LjE1IDEyLjU1IDkuODUgOS44NXEyLjctMi43IDYuMzUtNC4yNzVRMTkuODUgNCAyNCA0dDcuOCAxLjU3NXEzLjY1IDEuNTc1IDYuMzUgNC4yNzUgMi43IDIuNyA0LjI3NSA2LjM1UTQ0IDE5Ljg1IDQ0IDI0dC0xLjU3NSA3LjhxLTEuNTc1IDMuNjUtNC4yNzUgNi4zNS0yLjcgMi43LTYuMzUgNC4yNzVRMjguMTUgNDQgMjQgNDRabS0yLjE1LTMuMDV2LTQuMXEtMS43NSAwLTIuOTUtMS4zLTEuMi0xLjMtMS4yLTMuMDV2LTIuMkw3LjQ1IDIwLjA1cS0uMjUgMS0uMzUgMS45NzVRNyAyMyA3IDI0cTAgNi41IDQuMjI1IDExLjM1dDEwLjYyNSA1LjZabTE0LjctNS40cTEuMS0xLjIgMS45MjUtMi41NS44MjUtMS4zNSAxLjQtMi44MjV0Ljg1LTMuMDI1UTQxIDI1LjYgNDEgMjRxMC01LjMtMi45LTkuNjI1VDMwLjM1IDguMDV2LjlxMCAxLjc1LTEuMiAzLjA1LTEuMiAxLjMtMi45NSAxLjNoLTQuMzV2NC4zNXEwIC44NS0uNjc1IDEuNC0uNjc1LjU1LTEuNTI1LjU1SDE1LjVWMjRoMTIuOXEuODUgMCAxLjQuNjUuNTUuNjUuNTUgMS41djYuMzVoMi4xNXExLjQ1IDAgMi41NS44NSAxLjEuODUgMS41IDIuMloiLz4KPC9zdmc+;rounded=1;shadow=0;glass=0;rotation=0;imageVerticalAlign=middle;autosize=0;spacing=0;spacingTop=0;spacingBottom=0;" vertex="1" parent="80">
                    <mxGeometry y="683" width="360" height="20" as="geometry"/>
                </mxCell>
                <mxCell id="119" value="onWsUpdate (JsonVariantCallback _CB) : void" style="label;fontStyle=0;strokeColor=none;fillColor=none;align=left;verticalAlign=middle;overflow=hidden;spacingLeft=28;spacingRight=0;rotatable=0;points=[[0,0.5],[1,0.5]];portConstraint=eastwest;imageWidth=16;imageHeight=16;image=data:image/svg+xml,PHN2ZyB4bWxucz0iaHR0cDovL3d3dy53My5vcmcvMjAwMC9zdmciIGhlaWdodD0iNDgiIHdpZHRoPSI0OCIgdmlld0JveD0iMCAwIDQ4IDQ4Ij4KICA8cGF0aCBmaWxsPSJncmVlbiIgZD0iTTI0IDQ0cS00LjE1IDAtNy44LTEuNTc1LTMuNjUtMS41NzUtNi4zNS00LjI3NS0yLjctMi43LTQuMjc1LTYuMzVRNCAyOC4xNSA0IDI0dDEuNTc1LTcuOFE3LjE1IDEyLjU1IDkuODUgOS44NXEyLjctMi43IDYuMzUtNC4yNzVRMTkuODUgNCAyNCA0dDcuOCAxLjU3NXEzLjY1IDEuNTc1IDYuMzUgNC4yNzUgMi43IDIuNyA0LjI3NSA2LjM1UTQ0IDE5Ljg1IDQ0IDI0dC0xLjU3NSA3LjhxLTEuNTc1IDMuNjUtNC4yNzUgNi4zNS0yLjcgMi43LTYuMzUgNC4yNzVRMjguMTUgNDQgMjQgNDRabS0yLjE1LTMuMDV2LTQuMXEtMS43NSAwLTIuOTUtMS4zLTEuMi0xLjMtMS4yLTMuMDV2LTIuMkw3LjQ1IDIwLjA1cS0uMjUgMS0uMzUgMS45NzVRNyAyMyA3IDI0cTAgNi41IDQuMjI1IDExLjM1dDEwLjYyNSA1LjZabTE0LjctNS40cTEuMS0xLjIgMS45MjUtMi41NS44MjUtMS4zNSAxLjQtMi44MjV0Ljg1LTMuMDI1UTQxIDI1LjYgNDEgMjRxMC01LjMtMi45LTkuNjI1VDMwLjM1IDguMDV2LjlxMCAxLjc1LTEuMiAzLjA1LTEuMiAxLjMtMi45NSAxLjNoLTQuMzV2NC4zNXEwIC44NS0uNjc1IDEuNC0uNjc1LjU1LTEuNTI1LjU1SDE1LjVWMjRoMTIuOXEuODUgMCAxLjQuNjUuNTUuNjUuNTUgMS41djYuMzVoMi4xNXExLjQ1IDAgMi41NS44NSAxLjEuODUgMS41IDIuMloiLz4KPC9zdmc+;rounded=1;shadow=0;glass=0;rotation=0;imageVerticalAlign=middle;autosize=0;spacing=0;spacingTop=0;spacingBottom=0;" vertex="1" parent="80">
                    <mxGeometry y="703" width="360" height="20" as="geometry"/>
                </mxCell>
                <mxCell id="120" value="setWsUpdateCycle (uint32_t _CycleTime) : void" style="label;fontStyle=0;strokeColor=none;fillColor=none;align=left;verticalAlign=middle;overflow=hidden;spacingLeft=28;spacingRight=0;rotatable=0;points=[[0,0.5],[1,0.5]];portConstraint=eastwest;imageWidth=16;imageHeight=16;image=data:image/svg+xml,PHN2ZyB4bWxucz0iaHR0cDovL3d3dy53My5vcmcvMjAwMC9zdmciIGhlaWdodD0iNDgiIHdpZHRoPSI0OCIgdmlld0JveD0iMCAwIDQ4IDQ4Ij4KICA8cGF0aCBmaWxsPSJncmVlbiIgZD0iTTI0IDQ0cS00LjE1IDAtNy44LTEuNTc1LTMuNjUtMS41NzUtNi4zNS00LjI3NS0yLjctMi43LTQuMjc1LTYuMzVRNCAyOC4xNSA0IDI0dDEuNTc1LTcuOFE3LjE1IDEyLjU1IDkuODUgOS44NXEyLjctMi43IDYuMzUtNC4yNzVRMTkuODUgNCAyNCA0dDcuOCAxLjU3NXEzLjY1IDEuNTc1IDYuMzUgNC4yNzUgMi43IDIuNyA0LjI3NSA2LjM1UTQ0IDE5Ljg1IDQ0IDI0dC0xLjU3NSA3LjhxLTEuNTc1IDMuNjUtNC4yNzUgNi4zNS0yLjcgMi43LTYuMzUgNC4yNzVRMjguMTUgNDQgMjQgNDRabS0yLjE1LTMuMDV2LTQuMXEtMS43NSAwLTIuOTUtMS4zLTEuMi0xLjMtMS4yLTMuMDV2LTIuMkw3LjQ1IDIwLjA1cS0uMjUgMS0uMzUgMS45NzVRNyAyMyA3IDI0cTAgNi41IDQuMjI1IDExLjM1dDEwLjYyNSA1LjZabTE0LjctNS40cTEuMS0xLjIgMS45MjUtMi41NS44MjUtMS4zNSAxLjQtMi44MjV0Ljg1LTMuMDI1UTQxIDI1LjYgNDEgMjRxMC01LjMtMi45LTkuNjI1VDMwLjM1IDguMDV2LjlxMCAxLjc1LTEuMiAzLjA1LTEuMiAxLjMtMi45NSAxLjNoLTQuMzV2NC4zNXEwIC44NS0uNjc1IDEuNC0uNjc1LjU1LTEuNTI1LjU1SDE1LjVWMjRoMTIuOXEuODUgMCAxLjQuNjUuNTUuNjUuNTUgMS41djYuMzVoMi4xNXExLjQ1IDAgMi41NS44NSAxLjEuODUgMS41IDIuMloiLz4KPC9zdmc+;rounded=1;shadow=0;glass=0;rotation=0;imageVerticalAlign=middle;autosize=0;spacing=0;spacingTop=0;spacingBottom=0;" vertex="1" parent="80">
                    <mxGeometry y="723" width="360" height="20" as="geometry"/>
                </mxCell>
                <mxCell id="121" value="doWsUpdate () : bool" style="label;fontStyle=0;strokeColor=none;fillColor=none;align=left;verticalAlign=middle;overflow=hidden;spacingLeft=28;spacingRight=0;rotatable=0;points=[[0,0.5],[1,0.5]];portConstraint=eastwest;imageWidth=16;imageHeight=16;image=data:image/svg+xml,PHN2ZyB4bWxucz0iaHR0cDovL3d3dy53My5vcmcvMjAwMC9zdmciIGhlaWdodD0iNDgiIHdpZHRoPSI0OCIgdmlld0JveD0iMCAwIDQ4IDQ4Ij4KICA8cGF0aCBmaWxsPSJncmVlbiIgZD0iTTI0IDQ0cS00LjE1IDAtNy44LTEuNTc1LTMuNjUtMS41NzUtNi4zNS00LjI3NS0yLjctMi43LTQuMjc1LTYuMzVRNCAyOC4xNSA0IDI0dDEuNTc1LTcuOFE3LjE1IDEyLjU1IDkuODUgOS44NXEyLjctMi43IDYuMzUtNC4yNzVRMTkuODUgNCAyNCA0dDcuOCAxLjU3NXEzLjY1IDEuNTc1IDYuMzUgNC4yNzUgMi43IDIuNyA0LjI3NSA2LjM1UTQ0IDE5Ljg1IDQ0IDI0dC0xLjU3NSA3LjhxLTEuNTc1IDMuNjUtNC4yNzUgNi4zNS0yLjcgMi43LTYuMzUgNC4yNzVRMjguMTUgNDQgMjQgNDRabS0yLjE1LTMuMDV2LTQuMXEtMS43NSAwLTIuOTUtMS4zLTEuMi0xLjMtMS4yLTMuMDV2LTIuMkw3LjQ1IDIwLjA1cS0uMjUgMS0uMzUgMS45NzVRNyAyMyA3IDI0cTAgNi41IDQuMjI1IDExLjM1dDEwLjYyNSA1LjZabTE0LjctNS40cTEuMS0xLjIgMS45MjUtMi41NS44MjUtMS4zNSAxLjQtMi44MjV0Ljg1LTMuMDI1UTQxIDI1LjYgNDEgMjRxMC01LjMtMi45LTkuNjI1VDMwLjM1IDguMDV2LjlxMCAxLjc1LTEuMiAzLjA1LTEuMiAxLjMtMi45NSAxLjNoLTQuMzV2NC4zNXEwIC44NS0uNjc1IDEuNC0uNjc1LjU1LTEuNTI1LjU1SDE1LjVWMjRoMTIuOXEuODUgMCAxLjQuNjUuNTUuNjUuNTUgMS41djYuMzVoMi4xNXExLjQ1IDAgMi41NS44NSAxLjEuODUgMS41IDIuMloiLz4KPC9zdmc+;rounded=1;shadow=0;glass=0;rotation=0;imageVerticalAlign=middle;autosize=0;spacing=0;spacingTop=0;spacingBottom=0;" vertex="1" parent="80">
                    <mxGeometry y="743" width="360" height="20" as="geometry"/>
                </mxCell>
                <mxCell id="161" style="edgeStyle=orthogonalEdgeStyle;html=1;exitX=1;exitY=0.25;exitDx=0;exitDy=0;entryX=0;entryY=0.5;entryDx=0;entryDy=0;" edge="1" parent="1" source="122" target="88">
                    <mxGeometry relative="1" as="geometry"/>
                </mxCell>
                <mxCell id="122" value="JCA::IOT::WiFiConnect" style="swimlane;fontStyle=1;align=center;verticalAlign=top;childLayout=stackLayout;horizontal=1;startSize=26;horizontalStack=0;resizeParent=1;resizeParentMax=0;resizeLast=0;collapsible=1;marginBottom=0;" vertex="1" parent="1">
                    <mxGeometry x="80" y="320" width="330" height="581" as="geometry">
                        <mxRectangle x="80" y="480" width="100" height="26" as="alternateBounds"/>
                    </mxGeometry>
                </mxCell>
                <mxCell id="123" value="State : WiFiState" style="label;fontStyle=0;strokeColor=none;fillColor=none;align=left;verticalAlign=middle;overflow=hidden;spacingLeft=28;spacingRight=4;rotatable=0;points=[[0,0.5],[1,0.5]];portConstraint=eastwest;imageWidth=16;imageHeight=16;image=data:image/svg+xml,PHN2ZyB4bWxucz0iaHR0cDovL3d3dy53My5vcmcvMjAwMC9zdmciIGhlaWdodD0iNDgiIHdpZHRoPSI0OCIgdmlld0JveD0iMCAwIDQ4IDQ4Ij4KICA8cGF0aCBmaWxsPSJncmVlbiIgZD0iTTI0IDQzLjk1cS03LTEuNzUtMTEuNS04LjEyNVQ4IDIxLjg1VjkuOTVsMTYtNiAxNiA2djExLjlxMCA3LjYtNC41IDEzLjk3NVQyNCA0My45NVptMC0zLjFxNS43NS0xLjkgOS4zNzUtNy4xNzVUMzcgMjEuODV2LTkuOGwtMTMtNC45LTEzIDQuOXY5LjhxMCA2LjU1IDMuNjI1IDExLjgyNVExOC4yNSAzOC45NSAyNCA0MC44NVpNMjQgMjRaIi8+Cjwvc3ZnPg==;rounded=1;shadow=0;glass=0;autosize=0;imageVerticalAlign=middle;spacing=0;spacingBottom=0;" vertex="1" parent="122">
                    <mxGeometry y="26" width="330" height="20" as="geometry"/>
                </mxCell>
                <mxCell id="127" value="ApSsid : char[80]" style="label;fontStyle=0;strokeColor=none;fillColor=none;align=left;verticalAlign=middle;overflow=hidden;spacingLeft=28;spacingRight=4;rotatable=0;points=[[0,0.5],[1,0.5]];portConstraint=eastwest;imageWidth=16;imageHeight=16;image=data:image/svg+xml,PHN2ZyB4bWxucz0iaHR0cDovL3d3dy53My5vcmcvMjAwMC9zdmciIGhlaWdodD0iNDgiIHdpZHRoPSI0OCIgdmlld0JveD0iMCAwIDQ4IDQ4Ij4KICA8cGF0aCBmaWxsPSJncmVlbiIgZD0iTTI0IDQzLjk1cS03LTEuNzUtMTEuNS04LjEyNVQ4IDIxLjg1VjkuOTVsMTYtNiAxNiA2djExLjlxMCA3LjYtNC41IDEzLjk3NVQyNCA0My45NVptMC0zLjFxNS43NS0xLjkgOS4zNzUtNy4xNzVUMzcgMjEuODV2LTkuOGwtMTMtNC45LTEzIDQuOXY5LjhxMCA2LjU1IDMuNjI1IDExLjgyNVExOC4yNSAzOC45NSAyNCA0MC44NVpNMjQgMjRaIi8+Cjwvc3ZnPg==;rounded=1;shadow=0;glass=0;autosize=0;imageVerticalAlign=middle;spacing=0;spacingBottom=0;" vertex="1" parent="122">
                    <mxGeometry y="46" width="330" height="20" as="geometry"/>
                </mxCell>
                <mxCell id="128" value="ApPassword : char[80]" style="label;fontStyle=0;strokeColor=none;fillColor=none;align=left;verticalAlign=middle;overflow=hidden;spacingLeft=28;spacingRight=4;rotatable=0;points=[[0,0.5],[1,0.5]];portConstraint=eastwest;imageWidth=16;imageHeight=16;image=data:image/svg+xml,PHN2ZyB4bWxucz0iaHR0cDovL3d3dy53My5vcmcvMjAwMC9zdmciIGhlaWdodD0iNDgiIHdpZHRoPSI0OCIgdmlld0JveD0iMCAwIDQ4IDQ4Ij4KICA8cGF0aCBmaWxsPSJncmVlbiIgZD0iTTI0IDQzLjk1cS03LTEuNzUtMTEuNS04LjEyNVQ4IDIxLjg1VjkuOTVsMTYtNiAxNiA2djExLjlxMCA3LjYtNC41IDEzLjk3NVQyNCA0My45NVptMC0zLjFxNS43NS0xLjkgOS4zNzUtNy4xNzVUMzcgMjEuODV2LTkuOGwtMTMtNC45LTEzIDQuOXY5LjhxMCA2LjU1IDMuNjI1IDExLjgyNVExOC4yNSAzOC45NSAyNCA0MC44NVpNMjQgMjRaIi8+Cjwvc3ZnPg==;rounded=1;shadow=0;glass=0;autosize=0;imageVerticalAlign=middle;spacing=0;spacingBottom=0;" vertex="1" parent="122">
                    <mxGeometry y="66" width="330" height="20" as="geometry"/>
                </mxCell>
                <mxCell id="129" value="ApIP : IPAddress" style="label;fontStyle=0;strokeColor=none;fillColor=none;align=left;verticalAlign=middle;overflow=hidden;spacingLeft=28;spacingRight=4;rotatable=0;points=[[0,0.5],[1,0.5]];portConstraint=eastwest;imageWidth=16;imageHeight=16;image=data:image/svg+xml,PHN2ZyB4bWxucz0iaHR0cDovL3d3dy53My5vcmcvMjAwMC9zdmciIGhlaWdodD0iNDgiIHdpZHRoPSI0OCIgdmlld0JveD0iMCAwIDQ4IDQ4Ij4KICA8cGF0aCBmaWxsPSJncmVlbiIgZD0iTTI0IDQzLjk1cS03LTEuNzUtMTEuNS04LjEyNVQ4IDIxLjg1VjkuOTVsMTYtNiAxNiA2djExLjlxMCA3LjYtNC41IDEzLjk3NVQyNCA0My45NVptMC0zLjFxNS43NS0xLjkgOS4zNzUtNy4xNzVUMzcgMjEuODV2LTkuOGwtMTMtNC45LTEzIDQuOXY5LjhxMCA2LjU1IDMuNjI1IDExLjgyNVExOC4yNSAzOC45NSAyNCA0MC44NVpNMjQgMjRaIi8+Cjwvc3ZnPg==;rounded=1;shadow=0;glass=0;autosize=0;imageVerticalAlign=middle;spacing=0;spacingBottom=0;" vertex="1" parent="122">
                    <mxGeometry y="86" width="330" height="20" as="geometry"/>
                </mxCell>
                <mxCell id="130" value="ApGateway : IPAddress" style="label;fontStyle=0;strokeColor=none;fillColor=none;align=left;verticalAlign=middle;overflow=hidden;spacingLeft=28;spacingRight=4;rotatable=0;points=[[0,0.5],[1,0.5]];portConstraint=eastwest;imageWidth=16;imageHeight=16;image=data:image/svg+xml,PHN2ZyB4bWxucz0iaHR0cDovL3d3dy53My5vcmcvMjAwMC9zdmciIGhlaWdodD0iNDgiIHdpZHRoPSI0OCIgdmlld0JveD0iMCAwIDQ4IDQ4Ij4KICA8cGF0aCBmaWxsPSJncmVlbiIgZD0iTTI0IDQzLjk1cS03LTEuNzUtMTEuNS04LjEyNVQ4IDIxLjg1VjkuOTVsMTYtNiAxNiA2djExLjlxMCA3LjYtNC41IDEzLjk3NVQyNCA0My45NVptMC0zLjFxNS43NS0xLjkgOS4zNzUtNy4xNzVUMzcgMjEuODV2LTkuOGwtMTMtNC45LTEzIDQuOXY5LjhxMCA2LjU1IDMuNjI1IDExLjgyNVExOC4yNSAzOC45NSAyNCA0MC44NVpNMjQgMjRaIi8+Cjwvc3ZnPg==;rounded=1;shadow=0;glass=0;autosize=0;imageVerticalAlign=middle;spacing=0;spacingBottom=0;" vertex="1" parent="122">
                    <mxGeometry y="106" width="330" height="20" as="geometry"/>
                </mxCell>
                <mxCell id="131" value="ApSubnet : IPAddress" style="label;fontStyle=0;strokeColor=none;fillColor=none;align=left;verticalAlign=middle;overflow=hidden;spacingLeft=28;spacingRight=4;rotatable=0;points=[[0,0.5],[1,0.5]];portConstraint=eastwest;imageWidth=16;imageHeight=16;image=data:image/svg+xml,PHN2ZyB4bWxucz0iaHR0cDovL3d3dy53My5vcmcvMjAwMC9zdmciIGhlaWdodD0iNDgiIHdpZHRoPSI0OCIgdmlld0JveD0iMCAwIDQ4IDQ4Ij4KICA8cGF0aCBmaWxsPSJncmVlbiIgZD0iTTI0IDQzLjk1cS03LTEuNzUtMTEuNS04LjEyNVQ4IDIxLjg1VjkuOTVsMTYtNiAxNiA2djExLjlxMCA3LjYtNC41IDEzLjk3NVQyNCA0My45NVptMC0zLjFxNS43NS0xLjkgOS4zNzUtNy4xNzVUMzcgMjEuODV2LTkuOGwtMTMtNC45LTEzIDQuOXY5LjhxMCA2LjU1IDMuNjI1IDExLjgyNVExOC4yNSAzOC45NSAyNCA0MC44NVpNMjQgMjRaIi8+Cjwvc3ZnPg==;rounded=1;shadow=0;glass=0;autosize=0;imageVerticalAlign=middle;spacing=0;spacingBottom=0;" vertex="1" parent="122">
                    <mxGeometry y="126" width="330" height="20" as="geometry"/>
                </mxCell>
                <mxCell id="133" value="" style="line;strokeWidth=1;fillColor=none;align=left;verticalAlign=middle;spacingTop=-1;spacingLeft=3;spacingRight=3;rotatable=0;labelPosition=right;points=[];portConstraint=eastwest;rounded=1;shadow=0;glass=0;dashed=1;" vertex="1" parent="122">
                    <mxGeometry y="146" width="330" height="3" as="geometry"/>
                </mxCell>
                <mxCell id="132" value="Ssid : char[80]" style="label;fontStyle=0;strokeColor=none;fillColor=none;align=left;verticalAlign=middle;overflow=hidden;spacingLeft=28;spacingRight=4;rotatable=0;points=[[0,0.5],[1,0.5]];portConstraint=eastwest;imageWidth=16;imageHeight=16;image=data:image/svg+xml,PHN2ZyB4bWxucz0iaHR0cDovL3d3dy53My5vcmcvMjAwMC9zdmciIGhlaWdodD0iNDgiIHdpZHRoPSI0OCIgdmlld0JveD0iMCAwIDQ4IDQ4Ij4KICA8cGF0aCBmaWxsPSJncmVlbiIgZD0iTTI0IDQzLjk1cS03LTEuNzUtMTEuNS04LjEyNVQ4IDIxLjg1VjkuOTVsMTYtNiAxNiA2djExLjlxMCA3LjYtNC41IDEzLjk3NVQyNCA0My45NVptMC0zLjFxNS43NS0xLjkgOS4zNzUtNy4xNzVUMzcgMjEuODV2LTkuOGwtMTMtNC45LTEzIDQuOXY5LjhxMCA2LjU1IDMuNjI1IDExLjgyNVExOC4yNSAzOC45NSAyNCA0MC44NVpNMjQgMjRaIi8+Cjwvc3ZnPg==;rounded=1;shadow=0;glass=0;autosize=0;imageVerticalAlign=middle;spacing=0;spacingBottom=0;" vertex="1" parent="122">
                    <mxGeometry y="149" width="330" height="20" as="geometry"/>
                </mxCell>
                <mxCell id="134" value="Password : char[80]" style="label;fontStyle=0;strokeColor=none;fillColor=none;align=left;verticalAlign=middle;overflow=hidden;spacingLeft=28;spacingRight=4;rotatable=0;points=[[0,0.5],[1,0.5]];portConstraint=eastwest;imageWidth=16;imageHeight=16;image=data:image/svg+xml,PHN2ZyB4bWxucz0iaHR0cDovL3d3dy53My5vcmcvMjAwMC9zdmciIGhlaWdodD0iNDgiIHdpZHRoPSI0OCIgdmlld0JveD0iMCAwIDQ4IDQ4Ij4KICA8cGF0aCBmaWxsPSJncmVlbiIgZD0iTTI0IDQzLjk1cS03LTEuNzUtMTEuNS04LjEyNVQ4IDIxLjg1VjkuOTVsMTYtNiAxNiA2djExLjlxMCA3LjYtNC41IDEzLjk3NVQyNCA0My45NVptMC0zLjFxNS43NS0xLjkgOS4zNzUtNy4xNzVUMzcgMjEuODV2LTkuOGwtMTMtNC45LTEzIDQuOXY5LjhxMCA2LjU1IDMuNjI1IDExLjgyNVExOC4yNSAzOC45NSAyNCA0MC44NVpNMjQgMjRaIi8+Cjwvc3ZnPg==;rounded=1;shadow=0;glass=0;autosize=0;imageVerticalAlign=middle;spacing=0;spacingBottom=0;" vertex="1" parent="122">
                    <mxGeometry y="169" width="330" height="20" as="geometry"/>
                </mxCell>
                <mxCell id="135" value="DHCP : bool" style="label;fontStyle=0;strokeColor=none;fillColor=none;align=left;verticalAlign=middle;overflow=hidden;spacingLeft=28;spacingRight=4;rotatable=0;points=[[0,0.5],[1,0.5]];portConstraint=eastwest;imageWidth=16;imageHeight=16;image=data:image/svg+xml,PHN2ZyB4bWxucz0iaHR0cDovL3d3dy53My5vcmcvMjAwMC9zdmciIGhlaWdodD0iNDgiIHdpZHRoPSI0OCIgdmlld0JveD0iMCAwIDQ4IDQ4Ij4KICA8cGF0aCBmaWxsPSJncmVlbiIgZD0iTTI0IDQzLjk1cS03LTEuNzUtMTEuNS04LjEyNVQ4IDIxLjg1VjkuOTVsMTYtNiAxNiA2djExLjlxMCA3LjYtNC41IDEzLjk3NVQyNCA0My45NVptMC0zLjFxNS43NS0xLjkgOS4zNzUtNy4xNzVUMzcgMjEuODV2LTkuOGwtMTMtNC45LTEzIDQuOXY5LjhxMCA2LjU1IDMuNjI1IDExLjgyNVExOC4yNSAzOC45NSAyNCA0MC44NVpNMjQgMjRaIi8+Cjwvc3ZnPg==;rounded=1;shadow=0;glass=0;autosize=0;imageVerticalAlign=middle;spacing=0;spacingBottom=0;" vertex="1" parent="122">
                    <mxGeometry y="189" width="330" height="20" as="geometry"/>
                </mxCell>
                <mxCell id="136" value="IP : IPAddress" style="label;fontStyle=0;strokeColor=none;fillColor=none;align=left;verticalAlign=middle;overflow=hidden;spacingLeft=28;spacingRight=4;rotatable=0;points=[[0,0.5],[1,0.5]];portConstraint=eastwest;imageWidth=16;imageHeight=16;image=data:image/svg+xml,PHN2ZyB4bWxucz0iaHR0cDovL3d3dy53My5vcmcvMjAwMC9zdmciIGhlaWdodD0iNDgiIHdpZHRoPSI0OCIgdmlld0JveD0iMCAwIDQ4IDQ4Ij4KICA8cGF0aCBmaWxsPSJncmVlbiIgZD0iTTI0IDQzLjk1cS03LTEuNzUtMTEuNS04LjEyNVQ4IDIxLjg1VjkuOTVsMTYtNiAxNiA2djExLjlxMCA3LjYtNC41IDEzLjk3NVQyNCA0My45NVptMC0zLjFxNS43NS0xLjkgOS4zNzUtNy4xNzVUMzcgMjEuODV2LTkuOGwtMTMtNC45LTEzIDQuOXY5LjhxMCA2LjU1IDMuNjI1IDExLjgyNVExOC4yNSAzOC45NSAyNCA0MC44NVpNMjQgMjRaIi8+Cjwvc3ZnPg==;rounded=1;shadow=0;glass=0;autosize=0;imageVerticalAlign=middle;spacing=0;spacingBottom=0;" vertex="1" parent="122">
                    <mxGeometry y="209" width="330" height="20" as="geometry"/>
                </mxCell>
                <mxCell id="137" value="Gateway : IPAddress" style="label;fontStyle=0;strokeColor=none;fillColor=none;align=left;verticalAlign=middle;overflow=hidden;spacingLeft=28;spacingRight=4;rotatable=0;points=[[0,0.5],[1,0.5]];portConstraint=eastwest;imageWidth=16;imageHeight=16;image=data:image/svg+xml,PHN2ZyB4bWxucz0iaHR0cDovL3d3dy53My5vcmcvMjAwMC9zdmciIGhlaWdodD0iNDgiIHdpZHRoPSI0OCIgdmlld0JveD0iMCAwIDQ4IDQ4Ij4KICA8cGF0aCBmaWxsPSJncmVlbiIgZD0iTTI0IDQzLjk1cS03LTEuNzUtMTEuNS04LjEyNVQ4IDIxLjg1VjkuOTVsMTYtNiAxNiA2djExLjlxMCA3LjYtNC41IDEzLjk3NVQyNCA0My45NVptMC0zLjFxNS43NS0xLjkgOS4zNzUtNy4xNzVUMzcgMjEuODV2LTkuOGwtMTMtNC45LTEzIDQuOXY5LjhxMCA2LjU1IDMuNjI1IDExLjgyNVExOC4yNSAzOC45NSAyNCA0MC44NVpNMjQgMjRaIi8+Cjwvc3ZnPg==;rounded=1;shadow=0;glass=0;autosize=0;imageVerticalAlign=middle;spacing=0;spacingBottom=0;" vertex="1" parent="122">
                    <mxGeometry y="229" width="330" height="20" as="geometry"/>
                </mxCell>
                <mxCell id="138" value="Subnet : IPAddress" style="label;fontStyle=0;strokeColor=none;fillColor=none;align=left;verticalAlign=middle;overflow=hidden;spacingLeft=28;spacingRight=4;rotatable=0;points=[[0,0.5],[1,0.5]];portConstraint=eastwest;imageWidth=16;imageHeight=16;image=data:image/svg+xml,PHN2ZyB4bWxucz0iaHR0cDovL3d3dy53My5vcmcvMjAwMC9zdmciIGhlaWdodD0iNDgiIHdpZHRoPSI0OCIgdmlld0JveD0iMCAwIDQ4IDQ4Ij4KICA8cGF0aCBmaWxsPSJncmVlbiIgZD0iTTI0IDQzLjk1cS03LTEuNzUtMTEuNS04LjEyNVQ4IDIxLjg1VjkuOTVsMTYtNiAxNiA2djExLjlxMCA3LjYtNC41IDEzLjk3NVQyNCA0My45NVptMC0zLjFxNS43NS0xLjkgOS4zNzUtNy4xNzVUMzcgMjEuODV2LTkuOGwtMTMtNC45LTEzIDQuOXY5LjhxMCA2LjU1IDMuNjI1IDExLjgyNVExOC4yNSAzOC45NSAyNCA0MC44NVpNMjQgMjRaIi8+Cjwvc3ZnPg==;rounded=1;shadow=0;glass=0;autosize=0;imageVerticalAlign=middle;spacing=0;spacingBottom=0;" vertex="1" parent="122">
                    <mxGeometry y="249" width="330" height="20" as="geometry"/>
                </mxCell>
                <mxCell id="124" value="" style="line;strokeWidth=1;fillColor=none;align=left;verticalAlign=middle;spacingTop=-1;spacingLeft=3;spacingRight=3;rotatable=0;labelPosition=right;points=[];portConstraint=eastwest;rounded=1;shadow=0;glass=0;" vertex="1" parent="122">
                    <mxGeometry y="269" width="330" height="4" as="geometry"/>
                </mxCell>
                <mxCell id="125" value="WiFiConnect (const char *_SsidPrefix, const char *_Password&#10;    , const char *_ApIP, const char *_ApGateway&#10;    , const char *_ApSubnet)" style="text;strokeColor=none;fillColor=none;align=left;verticalAlign=middle;spacingLeft=4;spacingRight=4;overflow=hidden;rotatable=0;points=[[0,0.5],[1,0.5]];portConstraint=eastwest;rounded=1;shadow=0;glass=0;" vertex="1" parent="122">
                    <mxGeometry y="273" width="330" height="44" as="geometry"/>
                </mxCell>
                <mxCell id="126" value="setSsid (const char *_Ssid) : bool" style="label;fontStyle=0;strokeColor=none;fillColor=none;align=left;verticalAlign=middle;overflow=hidden;spacingLeft=28;spacingRight=0;rotatable=0;points=[[0,0.5],[1,0.5]];portConstraint=eastwest;imageWidth=16;imageHeight=16;image=data:image/svg+xml,PHN2ZyB4bWxucz0iaHR0cDovL3d3dy53My5vcmcvMjAwMC9zdmciIGhlaWdodD0iNDgiIHdpZHRoPSI0OCIgdmlld0JveD0iMCAwIDQ4IDQ4Ij4KICA8cGF0aCBmaWxsPSJncmVlbiIgZD0iTTI0IDQ0cS00LjE1IDAtNy44LTEuNTc1LTMuNjUtMS41NzUtNi4zNS00LjI3NS0yLjctMi43LTQuMjc1LTYuMzVRNCAyOC4xNSA0IDI0dDEuNTc1LTcuOFE3LjE1IDEyLjU1IDkuODUgOS44NXEyLjctMi43IDYuMzUtNC4yNzVRMTkuODUgNCAyNCA0dDcuOCAxLjU3NXEzLjY1IDEuNTc1IDYuMzUgNC4yNzUgMi43IDIuNyA0LjI3NSA2LjM1UTQ0IDE5Ljg1IDQ0IDI0dC0xLjU3NSA3LjhxLTEuNTc1IDMuNjUtNC4yNzUgNi4zNS0yLjcgMi43LTYuMzUgNC4yNzVRMjguMTUgNDQgMjQgNDRabS0yLjE1LTMuMDV2LTQuMXEtMS43NSAwLTIuOTUtMS4zLTEuMi0xLjMtMS4yLTMuMDV2LTIuMkw3LjQ1IDIwLjA1cS0uMjUgMS0uMzUgMS45NzVRNyAyMyA3IDI0cTAgNi41IDQuMjI1IDExLjM1dDEwLjYyNSA1LjZabTE0LjctNS40cTEuMS0xLjIgMS45MjUtMi41NS44MjUtMS4zNSAxLjQtMi44MjV0Ljg1LTMuMDI1UTQxIDI1LjYgNDEgMjRxMC01LjMtMi45LTkuNjI1VDMwLjM1IDguMDV2LjlxMCAxLjc1LTEuMiAzLjA1LTEuMiAxLjMtMi45NSAxLjNoLTQuMzV2NC4zNXEwIC44NS0uNjc1IDEuNC0uNjc1LjU1LTEuNTI1LjU1SDE1LjVWMjRoMTIuOXEuODUgMCAxLjQuNjUuNTUuNjUuNTUgMS41djYuMzVoMi4xNXExLjQ1IDAgMi41NS44NSAxLjEuODUgMS41IDIuMloiLz4KPC9zdmc+;rounded=1;shadow=0;glass=0;rotation=0;imageVerticalAlign=middle;autosize=0;spacing=0;spacingTop=0;spacingBottom=0;" vertex="1" parent="122">
                    <mxGeometry y="317" width="330" height="20" as="geometry"/>
                </mxCell>
                <mxCell id="139" value="setPassword (const char *_Password) : bool" style="label;fontStyle=0;strokeColor=none;fillColor=none;align=left;verticalAlign=middle;overflow=hidden;spacingLeft=28;spacingRight=0;rotatable=0;points=[[0,0.5],[1,0.5]];portConstraint=eastwest;imageWidth=16;imageHeight=16;image=data:image/svg+xml,PHN2ZyB4bWxucz0iaHR0cDovL3d3dy53My5vcmcvMjAwMC9zdmciIGhlaWdodD0iNDgiIHdpZHRoPSI0OCIgdmlld0JveD0iMCAwIDQ4IDQ4Ij4KICA8cGF0aCBmaWxsPSJncmVlbiIgZD0iTTI0IDQ0cS00LjE1IDAtNy44LTEuNTc1LTMuNjUtMS41NzUtNi4zNS00LjI3NS0yLjctMi43LTQuMjc1LTYuMzVRNCAyOC4xNSA0IDI0dDEuNTc1LTcuOFE3LjE1IDEyLjU1IDkuODUgOS44NXEyLjctMi43IDYuMzUtNC4yNzVRMTkuODUgNCAyNCA0dDcuOCAxLjU3NXEzLjY1IDEuNTc1IDYuMzUgNC4yNzUgMi43IDIuNyA0LjI3NSA2LjM1UTQ0IDE5Ljg1IDQ0IDI0dC0xLjU3NSA3LjhxLTEuNTc1IDMuNjUtNC4yNzUgNi4zNS0yLjcgMi43LTYuMzUgNC4yNzVRMjguMTUgNDQgMjQgNDRabS0yLjE1LTMuMDV2LTQuMXEtMS43NSAwLTIuOTUtMS4zLTEuMi0xLjMtMS4yLTMuMDV2LTIuMkw3LjQ1IDIwLjA1cS0uMjUgMS0uMzUgMS45NzVRNyAyMyA3IDI0cTAgNi41IDQuMjI1IDExLjM1dDEwLjYyNSA1LjZabTE0LjctNS40cTEuMS0xLjIgMS45MjUtMi41NS44MjUtMS4zNSAxLjQtMi44MjV0Ljg1LTMuMDI1UTQxIDI1LjYgNDEgMjRxMC01LjMtMi45LTkuNjI1VDMwLjM1IDguMDV2LjlxMCAxLjc1LTEuMiAzLjA1LTEuMiAxLjMtMi45NSAxLjNoLTQuMzV2NC4zNXEwIC44NS0uNjc1IDEuNC0uNjc1LjU1LTEuNTI1LjU1SDE1LjVWMjRoMTIuOXEuODUgMCAxLjQuNjUuNTUuNjUuNTUgMS41djYuMzVoMi4xNXExLjQ1IDAgMi41NS44NSAxLjEuODUgMS41IDIuMloiLz4KPC9zdmc+;rounded=1;shadow=0;glass=0;rotation=0;imageVerticalAlign=middle;autosize=0;spacing=0;spacingTop=0;spacingBottom=0;" vertex="1" parent="122">
                    <mxGeometry y="337" width="330" height="20" as="geometry"/>
                </mxCell>
                <mxCell id="140" value="setIP (const char *_IP) : bool" style="label;fontStyle=0;strokeColor=none;fillColor=none;align=left;verticalAlign=middle;overflow=hidden;spacingLeft=28;spacingRight=0;rotatable=0;points=[[0,0.5],[1,0.5]];portConstraint=eastwest;imageWidth=16;imageHeight=16;image=data:image/svg+xml,PHN2ZyB4bWxucz0iaHR0cDovL3d3dy53My5vcmcvMjAwMC9zdmciIGhlaWdodD0iNDgiIHdpZHRoPSI0OCIgdmlld0JveD0iMCAwIDQ4IDQ4Ij4KICA8cGF0aCBmaWxsPSJncmVlbiIgZD0iTTI0IDQ0cS00LjE1IDAtNy44LTEuNTc1LTMuNjUtMS41NzUtNi4zNS00LjI3NS0yLjctMi43LTQuMjc1LTYuMzVRNCAyOC4xNSA0IDI0dDEuNTc1LTcuOFE3LjE1IDEyLjU1IDkuODUgOS44NXEyLjctMi43IDYuMzUtNC4yNzVRMTkuODUgNCAyNCA0dDcuOCAxLjU3NXEzLjY1IDEuNTc1IDYuMzUgNC4yNzUgMi43IDIuNyA0LjI3NSA2LjM1UTQ0IDE5Ljg1IDQ0IDI0dC0xLjU3NSA3LjhxLTEuNTc1IDMuNjUtNC4yNzUgNi4zNS0yLjcgMi43LTYuMzUgNC4yNzVRMjguMTUgNDQgMjQgNDRabS0yLjE1LTMuMDV2LTQuMXEtMS43NSAwLTIuOTUtMS4zLTEuMi0xLjMtMS4yLTMuMDV2LTIuMkw3LjQ1IDIwLjA1cS0uMjUgMS0uMzUgMS45NzVRNyAyMyA3IDI0cTAgNi41IDQuMjI1IDExLjM1dDEwLjYyNSA1LjZabTE0LjctNS40cTEuMS0xLjIgMS45MjUtMi41NS44MjUtMS4zNSAxLjQtMi44MjV0Ljg1LTMuMDI1UTQxIDI1LjYgNDEgMjRxMC01LjMtMi45LTkuNjI1VDMwLjM1IDguMDV2LjlxMCAxLjc1LTEuMiAzLjA1LTEuMiAxLjMtMi45NSAxLjNoLTQuMzV2NC4zNXEwIC44NS0uNjc1IDEuNC0uNjc1LjU1LTEuNTI1LjU1SDE1LjVWMjRoMTIuOXEuODUgMCAxLjQuNjUuNTUuNjUuNTUgMS41djYuMzVoMi4xNXExLjQ1IDAgMi41NS44NSAxLjEuODUgMS41IDIuMloiLz4KPC9zdmc+;rounded=1;shadow=0;glass=0;rotation=0;imageVerticalAlign=middle;autosize=0;spacing=0;spacingTop=0;spacingBottom=0;" vertex="1" parent="122">
                    <mxGeometry y="357" width="330" height="20" as="geometry"/>
                </mxCell>
                <mxCell id="141" value="setGateway (const char *_Gateway) : bool" style="label;fontStyle=0;strokeColor=none;fillColor=none;align=left;verticalAlign=middle;overflow=hidden;spacingLeft=28;spacingRight=0;rotatable=0;points=[[0,0.5],[1,0.5]];portConstraint=eastwest;imageWidth=16;imageHeight=16;image=data:image/svg+xml,PHN2ZyB4bWxucz0iaHR0cDovL3d3dy53My5vcmcvMjAwMC9zdmciIGhlaWdodD0iNDgiIHdpZHRoPSI0OCIgdmlld0JveD0iMCAwIDQ4IDQ4Ij4KICA8cGF0aCBmaWxsPSJncmVlbiIgZD0iTTI0IDQ0cS00LjE1IDAtNy44LTEuNTc1LTMuNjUtMS41NzUtNi4zNS00LjI3NS0yLjctMi43LTQuMjc1LTYuMzVRNCAyOC4xNSA0IDI0dDEuNTc1LTcuOFE3LjE1IDEyLjU1IDkuODUgOS44NXEyLjctMi43IDYuMzUtNC4yNzVRMTkuODUgNCAyNCA0dDcuOCAxLjU3NXEzLjY1IDEuNTc1IDYuMzUgNC4yNzUgMi43IDIuNyA0LjI3NSA2LjM1UTQ0IDE5Ljg1IDQ0IDI0dC0xLjU3NSA3LjhxLTEuNTc1IDMuNjUtNC4yNzUgNi4zNS0yLjcgMi43LTYuMzUgNC4yNzVRMjguMTUgNDQgMjQgNDRabS0yLjE1LTMuMDV2LTQuMXEtMS43NSAwLTIuOTUtMS4zLTEuMi0xLjMtMS4yLTMuMDV2LTIuMkw3LjQ1IDIwLjA1cS0uMjUgMS0uMzUgMS45NzVRNyAyMyA3IDI0cTAgNi41IDQuMjI1IDExLjM1dDEwLjYyNSA1LjZabTE0LjctNS40cTEuMS0xLjIgMS45MjUtMi41NS44MjUtMS4zNSAxLjQtMi44MjV0Ljg1LTMuMDI1UTQxIDI1LjYgNDEgMjRxMC01LjMtMi45LTkuNjI1VDMwLjM1IDguMDV2LjlxMCAxLjc1LTEuMiAzLjA1LTEuMiAxLjMtMi45NSAxLjNoLTQuMzV2NC4zNXEwIC44NS0uNjc1IDEuNC0uNjc1LjU1LTEuNTI1LjU1SDE1LjVWMjRoMTIuOXEuODUgMCAxLjQuNjUuNTUuNjUuNTUgMS41djYuMzVoMi4xNXExLjQ1IDAgMi41NS44NSAxLjEuODUgMS41IDIuMloiLz4KPC9zdmc+;rounded=1;shadow=0;glass=0;rotation=0;imageVerticalAlign=middle;autosize=0;spacing=0;spacingTop=0;spacingBottom=0;" vertex="1" parent="122">
                    <mxGeometry y="377" width="330" height="20" as="geometry"/>
                </mxCell>
                <mxCell id="142" value="setSubnet (const char *_Subnet) : bool" style="label;fontStyle=0;strokeColor=none;fillColor=none;align=left;verticalAlign=middle;overflow=hidden;spacingLeft=28;spacingRight=0;rotatable=0;points=[[0,0.5],[1,0.5]];portConstraint=eastwest;imageWidth=16;imageHeight=16;image=data:image/svg+xml,PHN2ZyB4bWxucz0iaHR0cDovL3d3dy53My5vcmcvMjAwMC9zdmciIGhlaWdodD0iNDgiIHdpZHRoPSI0OCIgdmlld0JveD0iMCAwIDQ4IDQ4Ij4KICA8cGF0aCBmaWxsPSJncmVlbiIgZD0iTTI0IDQ0cS00LjE1IDAtNy44LTEuNTc1LTMuNjUtMS41NzUtNi4zNS00LjI3NS0yLjctMi43LTQuMjc1LTYuMzVRNCAyOC4xNSA0IDI0dDEuNTc1LTcuOFE3LjE1IDEyLjU1IDkuODUgOS44NXEyLjctMi43IDYuMzUtNC4yNzVRMTkuODUgNCAyNCA0dDcuOCAxLjU3NXEzLjY1IDEuNTc1IDYuMzUgNC4yNzUgMi43IDIuNyA0LjI3NSA2LjM1UTQ0IDE5Ljg1IDQ0IDI0dC0xLjU3NSA3LjhxLTEuNTc1IDMuNjUtNC4yNzUgNi4zNS0yLjcgMi43LTYuMzUgNC4yNzVRMjguMTUgNDQgMjQgNDRabS0yLjE1LTMuMDV2LTQuMXEtMS43NSAwLTIuOTUtMS4zLTEuMi0xLjMtMS4yLTMuMDV2LTIuMkw3LjQ1IDIwLjA1cS0uMjUgMS0uMzUgMS45NzVRNyAyMyA3IDI0cTAgNi41IDQuMjI1IDExLjM1dDEwLjYyNSA1LjZabTE0LjctNS40cTEuMS0xLjIgMS45MjUtMi41NS44MjUtMS4zNSAxLjQtMi44MjV0Ljg1LTMuMDI1UTQxIDI1LjYgNDEgMjRxMC01LjMtMi45LTkuNjI1VDMwLjM1IDguMDV2LjlxMCAxLjc1LTEuMiAzLjA1LTEuMiAxLjMtMi45NSAxLjNoLTQuMzV2NC4zNXEwIC44NS0uNjc1IDEuNC0uNjc1LjU1LTEuNTI1LjU1SDE1LjVWMjRoMTIuOXEuODUgMCAxLjQuNjUuNTUuNjUuNTUgMS41djYuMzVoMi4xNXExLjQ1IDAgMi41NS44NSAxLjEuODUgMS41IDIuMloiLz4KPC9zdmc+;rounded=1;shadow=0;glass=0;rotation=0;imageVerticalAlign=middle;autosize=0;spacing=0;spacingTop=0;spacingBottom=0;" vertex="1" parent="122">
                    <mxGeometry y="397" width="330" height="20" as="geometry"/>
                </mxCell>
                <mxCell id="143" value="setDHCP (bool _DHCP) : bool" style="label;fontStyle=0;strokeColor=none;fillColor=none;align=left;verticalAlign=middle;overflow=hidden;spacingLeft=28;spacingRight=0;rotatable=0;points=[[0,0.5],[1,0.5]];portConstraint=eastwest;imageWidth=16;imageHeight=16;image=data:image/svg+xml,PHN2ZyB4bWxucz0iaHR0cDovL3d3dy53My5vcmcvMjAwMC9zdmciIGhlaWdodD0iNDgiIHdpZHRoPSI0OCIgdmlld0JveD0iMCAwIDQ4IDQ4Ij4KICA8cGF0aCBmaWxsPSJncmVlbiIgZD0iTTI0IDQ0cS00LjE1IDAtNy44LTEuNTc1LTMuNjUtMS41NzUtNi4zNS00LjI3NS0yLjctMi43LTQuMjc1LTYuMzVRNCAyOC4xNSA0IDI0dDEuNTc1LTcuOFE3LjE1IDEyLjU1IDkuODUgOS44NXEyLjctMi43IDYuMzUtNC4yNzVRMTkuODUgNCAyNCA0dDcuOCAxLjU3NXEzLjY1IDEuNTc1IDYuMzUgNC4yNzUgMi43IDIuNyA0LjI3NSA2LjM1UTQ0IDE5Ljg1IDQ0IDI0dC0xLjU3NSA3LjhxLTEuNTc1IDMuNjUtNC4yNzUgNi4zNS0yLjcgMi43LTYuMzUgNC4yNzVRMjguMTUgNDQgMjQgNDRabS0yLjE1LTMuMDV2LTQuMXEtMS43NSAwLTIuOTUtMS4zLTEuMi0xLjMtMS4yLTMuMDV2LTIuMkw3LjQ1IDIwLjA1cS0uMjUgMS0uMzUgMS45NzVRNyAyMyA3IDI0cTAgNi41IDQuMjI1IDExLjM1dDEwLjYyNSA1LjZabTE0LjctNS40cTEuMS0xLjIgMS45MjUtMi41NS44MjUtMS4zNSAxLjQtMi44MjV0Ljg1LTMuMDI1UTQxIDI1LjYgNDEgMjRxMC01LjMtMi45LTkuNjI1VDMwLjM1IDguMDV2LjlxMCAxLjc1LTEuMiAzLjA1LTEuMiAxLjMtMi45NSAxLjNoLTQuMzV2NC4zNXEwIC44NS0uNjc1IDEuNC0uNjc1LjU1LTEuNTI1LjU1SDE1LjVWMjRoMTIuOXEuODUgMCAxLjQuNjUuNTUuNjUuNTUgMS41djYuMzVoMi4xNXExLjQ1IDAgMi41NS44NSAxLjEuODUgMS41IDIuMloiLz4KPC9zdmc+;rounded=1;shadow=0;glass=0;rotation=0;imageVerticalAlign=middle;autosize=0;spacing=0;spacingTop=0;spacingBottom=0;" vertex="1" parent="122">
                    <mxGeometry y="417" width="330" height="20" as="geometry"/>
                </mxCell>
                <mxCell id="144" value="init (const char *_Ssid, const char *_Password&#10;    , const char *_IP, const char *_Gateway&#10;    , const char *_Subnet, bool _DHCP) : bool" style="label;fontStyle=0;strokeColor=none;fillColor=none;align=left;verticalAlign=middle;overflow=hidden;spacingLeft=28;spacingRight=0;rotatable=0;points=[[0,0.5],[1,0.5]];portConstraint=eastwest;imageWidth=16;imageHeight=16;image=data:image/svg+xml,PHN2ZyB4bWxucz0iaHR0cDovL3d3dy53My5vcmcvMjAwMC9zdmciIGhlaWdodD0iNDgiIHdpZHRoPSI0OCIgdmlld0JveD0iMCAwIDQ4IDQ4Ij4KICA8cGF0aCBmaWxsPSJncmVlbiIgZD0iTTI0IDQ0cS00LjE1IDAtNy44LTEuNTc1LTMuNjUtMS41NzUtNi4zNS00LjI3NS0yLjctMi43LTQuMjc1LTYuMzVRNCAyOC4xNSA0IDI0dDEuNTc1LTcuOFE3LjE1IDEyLjU1IDkuODUgOS44NXEyLjctMi43IDYuMzUtNC4yNzVRMTkuODUgNCAyNCA0dDcuOCAxLjU3NXEzLjY1IDEuNTc1IDYuMzUgNC4yNzUgMi43IDIuNyA0LjI3NSA2LjM1UTQ0IDE5Ljg1IDQ0IDI0dC0xLjU3NSA3LjhxLTEuNTc1IDMuNjUtNC4yNzUgNi4zNS0yLjcgMi43LTYuMzUgNC4yNzVRMjguMTUgNDQgMjQgNDRabS0yLjE1LTMuMDV2LTQuMXEtMS43NSAwLTIuOTUtMS4zLTEuMi0xLjMtMS4yLTMuMDV2LTIuMkw3LjQ1IDIwLjA1cS0uMjUgMS0uMzUgMS45NzVRNyAyMyA3IDI0cTAgNi41IDQuMjI1IDExLjM1dDEwLjYyNSA1LjZabTE0LjctNS40cTEuMS0xLjIgMS45MjUtMi41NS44MjUtMS4zNSAxLjQtMi44MjV0Ljg1LTMuMDI1UTQxIDI1LjYgNDEgMjRxMC01LjMtMi45LTkuNjI1VDMwLjM1IDguMDV2LjlxMCAxLjc1LTEuMiAzLjA1LTEuMiAxLjMtMi45NSAxLjNoLTQuMzV2NC4zNXEwIC44NS0uNjc1IDEuNC0uNjc1LjU1LTEuNTI1LjU1SDE1LjVWMjRoMTIuOXEuODUgMCAxLjQuNjUuNTUuNjUuNTUgMS41djYuMzVoMi4xNXExLjQ1IDAgMi41NS44NSAxLjEuODUgMS41IDIuMloiLz4KPC9zdmc+;rounded=1;shadow=0;glass=0;rotation=0;imageVerticalAlign=middle;autosize=0;spacing=0;spacingTop=0;spacingBottom=0;" vertex="1" parent="122">
                    <mxGeometry y="437" width="330" height="44" as="geometry"/>
                </mxCell>
                <mxCell id="145" value="init () : bool" style="label;fontStyle=0;strokeColor=none;fillColor=none;align=left;verticalAlign=middle;overflow=hidden;spacingLeft=28;spacingRight=0;rotatable=0;points=[[0,0.5],[1,0.5]];portConstraint=eastwest;imageWidth=16;imageHeight=16;image=data:image/svg+xml,PHN2ZyB4bWxucz0iaHR0cDovL3d3dy53My5vcmcvMjAwMC9zdmciIGhlaWdodD0iNDgiIHdpZHRoPSI0OCIgdmlld0JveD0iMCAwIDQ4IDQ4Ij4KICA8cGF0aCBmaWxsPSJncmVlbiIgZD0iTTI0IDQ0cS00LjE1IDAtNy44LTEuNTc1LTMuNjUtMS41NzUtNi4zNS00LjI3NS0yLjctMi43LTQuMjc1LTYuMzVRNCAyOC4xNSA0IDI0dDEuNTc1LTcuOFE3LjE1IDEyLjU1IDkuODUgOS44NXEyLjctMi43IDYuMzUtNC4yNzVRMTkuODUgNCAyNCA0dDcuOCAxLjU3NXEzLjY1IDEuNTc1IDYuMzUgNC4yNzUgMi43IDIuNyA0LjI3NSA2LjM1UTQ0IDE5Ljg1IDQ0IDI0dC0xLjU3NSA3LjhxLTEuNTc1IDMuNjUtNC4yNzUgNi4zNS0yLjcgMi43LTYuMzUgNC4yNzVRMjguMTUgNDQgMjQgNDRabS0yLjE1LTMuMDV2LTQuMXEtMS43NSAwLTIuOTUtMS4zLTEuMi0xLjMtMS4yLTMuMDV2LTIuMkw3LjQ1IDIwLjA1cS0uMjUgMS0uMzUgMS45NzVRNyAyMyA3IDI0cTAgNi41IDQuMjI1IDExLjM1dDEwLjYyNSA1LjZabTE0LjctNS40cTEuMS0xLjIgMS45MjUtMi41NS44MjUtMS4zNSAxLjQtMi44MjV0Ljg1LTMuMDI1UTQxIDI1LjYgNDEgMjRxMC01LjMtMi45LTkuNjI1VDMwLjM1IDguMDV2LjlxMCAxLjc1LTEuMiAzLjA1LTEuMiAxLjMtMi45NSAxLjNoLTQuMzV2NC4zNXEwIC44NS0uNjc1IDEuNC0uNjc1LjU1LTEuNTI1LjU1SDE1LjVWMjRoMTIuOXEuODUgMCAxLjQuNjUuNTUuNjUuNTUgMS41djYuMzVoMi4xNXExLjQ1IDAgMi41NS44NSAxLjEuODUgMS41IDIuMloiLz4KPC9zdmc+;rounded=1;shadow=0;glass=0;rotation=0;imageVerticalAlign=middle;autosize=0;spacing=0;spacingTop=0;spacingBottom=0;" vertex="1" parent="122">
                    <mxGeometry y="481" width="330" height="20" as="geometry"/>
                </mxCell>
                <mxCell id="146" value="doConnect () : bool" style="label;fontStyle=0;strokeColor=none;fillColor=none;align=left;verticalAlign=middle;overflow=hidden;spacingLeft=28;spacingRight=0;rotatable=0;points=[[0,0.5],[1,0.5]];portConstraint=eastwest;imageWidth=16;imageHeight=16;image=data:image/svg+xml,PHN2ZyB4bWxucz0iaHR0cDovL3d3dy53My5vcmcvMjAwMC9zdmciIGhlaWdodD0iNDgiIHdpZHRoPSI0OCIgdmlld0JveD0iMCAwIDQ4IDQ4Ij4KICA8cGF0aCBmaWxsPSJncmVlbiIgZD0iTTI0IDQ0cS00LjE1IDAtNy44LTEuNTc1LTMuNjUtMS41NzUtNi4zNS00LjI3NS0yLjctMi43LTQuMjc1LTYuMzVRNCAyOC4xNSA0IDI0dDEuNTc1LTcuOFE3LjE1IDEyLjU1IDkuODUgOS44NXEyLjctMi43IDYuMzUtNC4yNzVRMTkuODUgNCAyNCA0dDcuOCAxLjU3NXEzLjY1IDEuNTc1IDYuMzUgNC4yNzUgMi43IDIuNyA0LjI3NSA2LjM1UTQ0IDE5Ljg1IDQ0IDI0dC0xLjU3NSA3LjhxLTEuNTc1IDMuNjUtNC4yNzUgNi4zNS0yLjcgMi43LTYuMzUgNC4yNzVRMjguMTUgNDQgMjQgNDRabS0yLjE1LTMuMDV2LTQuMXEtMS43NSAwLTIuOTUtMS4zLTEuMi0xLjMtMS4yLTMuMDV2LTIuMkw3LjQ1IDIwLjA1cS0uMjUgMS0uMzUgMS45NzVRNyAyMyA3IDI0cTAgNi41IDQuMjI1IDExLjM1dDEwLjYyNSA1LjZabTE0LjctNS40cTEuMS0xLjIgMS45MjUtMi41NS44MjUtMS4zNSAxLjQtMi44MjV0Ljg1LTMuMDI1UTQxIDI1LjYgNDEgMjRxMC01LjMtMi45LTkuNjI1VDMwLjM1IDguMDV2LjlxMCAxLjc1LTEuMiAzLjA1LTEuMiAxLjMtMi45NSAxLjNoLTQuMzV2NC4zNXEwIC44NS0uNjc1IDEuNC0uNjc1LjU1LTEuNTI1LjU1SDE1LjVWMjRoMTIuOXEuODUgMCAxLjQuNjUuNTUuNjUuNTUgMS41djYuMzVoMi4xNXExLjQ1IDAgMi41NS44NSAxLjEuODUgMS41IDIuMloiLz4KPC9zdmc+;rounded=1;shadow=0;glass=0;rotation=0;imageVerticalAlign=middle;autosize=0;spacing=0;spacingTop=0;spacingBottom=0;" vertex="1" parent="122">
                    <mxGeometry y="501" width="330" height="20" as="geometry"/>
                </mxCell>
                <mxCell id="147" value="handle () : bool" style="label;fontStyle=0;strokeColor=none;fillColor=none;align=left;verticalAlign=middle;overflow=hidden;spacingLeft=28;spacingRight=0;rotatable=0;points=[[0,0.5],[1,0.5]];portConstraint=eastwest;imageWidth=16;imageHeight=16;image=data:image/svg+xml,PHN2ZyB4bWxucz0iaHR0cDovL3d3dy53My5vcmcvMjAwMC9zdmciIGhlaWdodD0iNDgiIHdpZHRoPSI0OCIgdmlld0JveD0iMCAwIDQ4IDQ4Ij4KICA8cGF0aCBmaWxsPSJncmVlbiIgZD0iTTI0IDQ0cS00LjE1IDAtNy44LTEuNTc1LTMuNjUtMS41NzUtNi4zNS00LjI3NS0yLjctMi43LTQuMjc1LTYuMzVRNCAyOC4xNSA0IDI0dDEuNTc1LTcuOFE3LjE1IDEyLjU1IDkuODUgOS44NXEyLjctMi43IDYuMzUtNC4yNzVRMTkuODUgNCAyNCA0dDcuOCAxLjU3NXEzLjY1IDEuNTc1IDYuMzUgNC4yNzUgMi43IDIuNyA0LjI3NSA2LjM1UTQ0IDE5Ljg1IDQ0IDI0dC0xLjU3NSA3LjhxLTEuNTc1IDMuNjUtNC4yNzUgNi4zNS0yLjcgMi43LTYuMzUgNC4yNzVRMjguMTUgNDQgMjQgNDRabS0yLjE1LTMuMDV2LTQuMXEtMS43NSAwLTIuOTUtMS4zLTEuMi0xLjMtMS4yLTMuMDV2LTIuMkw3LjQ1IDIwLjA1cS0uMjUgMS0uMzUgMS45NzVRNyAyMyA3IDI0cTAgNi41IDQuMjI1IDExLjM1dDEwLjYyNSA1LjZabTE0LjctNS40cTEuMS0xLjIgMS45MjUtMi41NS44MjUtMS4zNSAxLjQtMi44MjV0Ljg1LTMuMDI1UTQxIDI1LjYgNDEgMjRxMC01LjMtMi45LTkuNjI1VDMwLjM1IDguMDV2LjlxMCAxLjc1LTEuMiAzLjA1LTEuMiAxLjMtMi45NSAxLjNoLTQuMzV2NC4zNXEwIC44NS0uNjc1IDEuNC0uNjc1LjU1LTEuNTI1LjU1SDE1LjVWMjRoMTIuOXEuODUgMCAxLjQuNjUuNTUuNjUuNTUgMS41djYuMzVoMi4xNXExLjQ1IDAgMi41NS44NSAxLjEuODUgMS41IDIuMloiLz4KPC9zdmc+;rounded=1;shadow=0;glass=0;rotation=0;imageVerticalAlign=middle;autosize=0;spacing=0;spacingTop=0;spacingBottom=0;" vertex="1" parent="122">
                    <mxGeometry y="521" width="330" height="20" as="geometry"/>
                </mxCell>
                <mxCell id="148" value="isConnected () : bool" style="label;fontStyle=0;strokeColor=none;fillColor=none;align=left;verticalAlign=middle;overflow=hidden;spacingLeft=28;spacingRight=0;rotatable=0;points=[[0,0.5],[1,0.5]];portConstraint=eastwest;imageWidth=16;imageHeight=16;image=data:image/svg+xml,PHN2ZyB4bWxucz0iaHR0cDovL3d3dy53My5vcmcvMjAwMC9zdmciIGhlaWdodD0iNDgiIHdpZHRoPSI0OCIgdmlld0JveD0iMCAwIDQ4IDQ4Ij4KICA8cGF0aCBmaWxsPSJncmVlbiIgZD0iTTI0IDQ0cS00LjE1IDAtNy44LTEuNTc1LTMuNjUtMS41NzUtNi4zNS00LjI3NS0yLjctMi43LTQuMjc1LTYuMzVRNCAyOC4xNSA0IDI0dDEuNTc1LTcuOFE3LjE1IDEyLjU1IDkuODUgOS44NXEyLjctMi43IDYuMzUtNC4yNzVRMTkuODUgNCAyNCA0dDcuOCAxLjU3NXEzLjY1IDEuNTc1IDYuMzUgNC4yNzUgMi43IDIuNyA0LjI3NSA2LjM1UTQ0IDE5Ljg1IDQ0IDI0dC0xLjU3NSA3LjhxLTEuNTc1IDMuNjUtNC4yNzUgNi4zNS0yLjcgMi43LTYuMzUgNC4yNzVRMjguMTUgNDQgMjQgNDRabS0yLjE1LTMuMDV2LTQuMXEtMS43NSAwLTIuOTUtMS4zLTEuMi0xLjMtMS4yLTMuMDV2LTIuMkw3LjQ1IDIwLjA1cS0uMjUgMS0uMzUgMS45NzVRNyAyMyA3IDI0cTAgNi41IDQuMjI1IDExLjM1dDEwLjYyNSA1LjZabTE0LjctNS40cTEuMS0xLjIgMS45MjUtMi41NS44MjUtMS4zNSAxLjQtMi44MjV0Ljg1LTMuMDI1UTQxIDI1LjYgNDEgMjRxMC01LjMtMi45LTkuNjI1VDMwLjM1IDguMDV2LjlxMCAxLjc1LTEuMiAzLjA1LTEuMiAxLjMtMi45NSAxLjNoLTQuMzV2NC4zNXEwIC44NS0uNjc1IDEuNC0uNjc1LjU1LTEuNTI1LjU1SDE1LjVWMjRoMTIuOXEuODUgMCAxLjQuNjUuNTUuNjUuNTUgMS41djYuMzVoMi4xNXExLjQ1IDAgMi41NS44NSAxLjEuODUgMS41IDIuMloiLz4KPC9zdmc+;rounded=1;shadow=0;glass=0;rotation=0;imageVerticalAlign=middle;autosize=0;spacing=0;spacingTop=0;spacingBottom=0;" vertex="1" parent="122">
                    <mxGeometry y="541" width="330" height="20" as="geometry"/>
                </mxCell>
                <mxCell id="149" value="replaceWildcards (const String &amp;var) : String" style="label;fontStyle=0;strokeColor=none;fillColor=none;align=left;verticalAlign=middle;overflow=hidden;spacingLeft=28;spacingRight=0;rotatable=0;points=[[0,0.5],[1,0.5]];portConstraint=eastwest;imageWidth=16;imageHeight=16;image=data:image/svg+xml,PHN2ZyB4bWxucz0iaHR0cDovL3d3dy53My5vcmcvMjAwMC9zdmciIGhlaWdodD0iNDgiIHdpZHRoPSI0OCIgdmlld0JveD0iMCAwIDQ4IDQ4Ij4KICA8cGF0aCBmaWxsPSJncmVlbiIgZD0iTTI0IDQ0cS00LjE1IDAtNy44LTEuNTc1LTMuNjUtMS41NzUtNi4zNS00LjI3NS0yLjctMi43LTQuMjc1LTYuMzVRNCAyOC4xNSA0IDI0dDEuNTc1LTcuOFE3LjE1IDEyLjU1IDkuODUgOS44NXEyLjctMi43IDYuMzUtNC4yNzVRMTkuODUgNCAyNCA0dDcuOCAxLjU3NXEzLjY1IDEuNTc1IDYuMzUgNC4yNzUgMi43IDIuNyA0LjI3NSA2LjM1UTQ0IDE5Ljg1IDQ0IDI0dC0xLjU3NSA3LjhxLTEuNTc1IDMuNjUtNC4yNzUgNi4zNS0yLjcgMi43LTYuMzUgNC4yNzVRMjguMTUgNDQgMjQgNDRabS0yLjE1LTMuMDV2LTQuMXEtMS43NSAwLTIuOTUtMS4zLTEuMi0xLjMtMS4yLTMuMDV2LTIuMkw3LjQ1IDIwLjA1cS0uMjUgMS0uMzUgMS45NzVRNyAyMyA3IDI0cTAgNi41IDQuMjI1IDExLjM1dDEwLjYyNSA1LjZabTE0LjctNS40cTEuMS0xLjIgMS45MjUtMi41NS44MjUtMS4zNSAxLjQtMi44MjV0Ljg1LTMuMDI1UTQxIDI1LjYgNDEgMjRxMC01LjMtMi45LTkuNjI1VDMwLjM1IDguMDV2LjlxMCAxLjc1LTEuMiAzLjA1LTEuMiAxLjMtMi45NSAxLjNoLTQuMzV2NC4zNXEwIC44NS0uNjc1IDEuNC0uNjc1LjU1LTEuNTI1LjU1SDE1LjVWMjRoMTIuOXEuODUgMCAxLjQuNjUuNTUuNjUuNTUgMS41djYuMzVoMi4xNXExLjQ1IDAgMi41NS44NSAxLjEuODUgMS41IDIuMloiLz4KPC9zdmc+;rounded=1;shadow=0;glass=0;rotation=0;imageVerticalAlign=middle;autosize=0;spacing=0;spacingTop=0;spacingBottom=0;" vertex="1" parent="122">
                    <mxGeometry y="561" width="330" height="20" as="geometry"/>
                </mxCell>
                <mxCell id="150" value="JCA::IOT::WifiState : enum" style="swimlane;fontStyle=0;childLayout=stackLayout;horizontal=1;startSize=26;fillColor=none;horizontalStack=0;resizeParent=1;resizeParentMax=0;resizeLast=0;collapsible=1;marginBottom=0;rounded=1;shadow=0;glass=0;dashed=1;" vertex="1" parent="1">
                    <mxGeometry x="-160" y="320" width="170" height="182" as="geometry"/>
                </mxCell>
                <mxCell id="151" value="Init = 0" style="text;strokeColor=none;fillColor=none;align=left;verticalAlign=top;spacingLeft=4;spacingRight=4;overflow=hidden;rotatable=0;points=[[0,0.5],[1,0.5]];portConstraint=eastwest;rounded=1;shadow=0;glass=0;dashed=1;" vertex="1" parent="150">
                    <mxGeometry y="26" width="170" height="26" as="geometry"/>
                </mxCell>
                <mxCell id="152" value="Connect = 1" style="text;strokeColor=none;fillColor=none;align=left;verticalAlign=top;spacingLeft=4;spacingRight=4;overflow=hidden;rotatable=0;points=[[0,0.5],[1,0.5]];portConstraint=eastwest;rounded=1;shadow=0;glass=0;dashed=1;" vertex="1" parent="150">
                    <mxGeometry y="52" width="170" height="26" as="geometry"/>
                </mxCell>
                <mxCell id="153" value="Busy = 2" style="text;strokeColor=none;fillColor=none;align=left;verticalAlign=top;spacingLeft=4;spacingRight=4;overflow=hidden;rotatable=0;points=[[0,0.5],[1,0.5]];portConstraint=eastwest;rounded=1;shadow=0;glass=0;dashed=1;" vertex="1" parent="150">
                    <mxGeometry y="78" width="170" height="26" as="geometry"/>
                </mxCell>
                <mxCell id="154" value="Failed = 3" style="text;strokeColor=none;fillColor=none;align=left;verticalAlign=top;spacingLeft=4;spacingRight=4;overflow=hidden;rotatable=0;points=[[0,0.5],[1,0.5]];portConstraint=eastwest;rounded=1;shadow=0;glass=0;dashed=1;" vertex="1" parent="150">
                    <mxGeometry y="104" width="170" height="26" as="geometry"/>
                </mxCell>
                <mxCell id="155" value="STA = 4" style="text;strokeColor=none;fillColor=none;align=left;verticalAlign=top;spacingLeft=4;spacingRight=4;overflow=hidden;rotatable=0;points=[[0,0.5],[1,0.5]];portConstraint=eastwest;rounded=1;shadow=0;glass=0;dashed=1;" vertex="1" parent="150">
                    <mxGeometry y="130" width="170" height="26" as="geometry"/>
                </mxCell>
                <mxCell id="156" value="AP = 5" style="text;strokeColor=none;fillColor=none;align=left;verticalAlign=top;spacingLeft=4;spacingRight=4;overflow=hidden;rotatable=0;points=[[0,0.5],[1,0.5]];portConstraint=eastwest;rounded=1;shadow=0;glass=0;dashed=1;" vertex="1" parent="150">
                    <mxGeometry y="156" width="170" height="26" as="geometry"/>
                </mxCell>
                <mxCell id="162" style="edgeStyle=orthogonalEdgeStyle;html=1;exitX=1;exitY=0.5;exitDx=0;exitDy=0;entryX=0;entryY=0.5;entryDx=0;entryDy=0;" edge="1" parent="1" source="153" target="123">
                    <mxGeometry relative="1" as="geometry"/>
                </mxCell>
                <mxCell id="163" value="JCA::IOT::JsonVariantCallback" style="swimlane;fontStyle=1;align=center;verticalAlign=top;childLayout=stackLayout;horizontal=1;startSize=26;horizontalStack=0;resizeParent=1;resizeParentMax=0;resizeLast=0;collapsible=1;marginBottom=0;rounded=1;" vertex="1" parent="1">
                    <mxGeometry x="1121" y="960" width="250" height="160" as="geometry">
                        <mxRectangle x="80" y="80" width="100" height="26" as="alternateBounds"/>
                    </mxGeometry>
                </mxCell>
                <mxCell id="170" value="std::function : void" style="text;strokeColor=none;fillColor=none;align=left;verticalAlign=top;spacingLeft=4;spacingRight=4;overflow=hidden;rotatable=0;points=[[0,0.5],[1,0.5]];portConstraint=eastwest;rounded=1;shadow=0;glass=0;dashed=1;" vertex="1" parent="163">
                    <mxGeometry y="26" width="250" height="26" as="geometry"/>
                </mxCell>
                <mxCell id="165" value="" style="line;strokeWidth=1;fillColor=none;align=left;verticalAlign=middle;spacingTop=-1;spacingLeft=3;spacingRight=3;rotatable=0;labelPosition=right;points=[];portConstraint=eastwest;rounded=1;shadow=0;glass=0;" vertex="1" parent="163">
                    <mxGeometry y="52" width="250" height="4" as="geometry"/>
                </mxCell>
                <mxCell id="166" value="+ JsonVariant &amp;_In" style="text;strokeColor=none;fillColor=none;align=left;verticalAlign=middle;spacingLeft=4;spacingRight=4;overflow=hidden;rotatable=0;points=[[0,0.5],[1,0.5]];portConstraint=eastwest;rounded=1;shadow=0;glass=0;" vertex="1" parent="163">
                    <mxGeometry y="56" width="250" height="20" as="geometry"/>
                </mxCell>
                <mxCell id="171" value="+ JsonVariant &amp;_Out" style="text;strokeColor=none;fillColor=none;align=left;verticalAlign=middle;spacingLeft=4;spacingRight=4;overflow=hidden;rotatable=0;points=[[0,0.5],[1,0.5]];portConstraint=eastwest;rounded=1;shadow=0;glass=0;" vertex="1" parent="163">
                    <mxGeometry y="76" width="250" height="20" as="geometry"/>
                </mxCell>
                <mxCell id="206" value="" style="line;strokeWidth=1;fillColor=none;align=left;verticalAlign=middle;spacingTop=-1;spacingLeft=3;spacingRight=3;rotatable=0;labelPosition=right;points=[];portConstraint=eastwest;rounded=1;shadow=0;glass=0;" vertex="1" parent="163">
                    <mxGeometry y="96" width="250" height="4" as="geometry"/>
                </mxCell>
                <mxCell id="202" value="Funktion zum verarbeiten oder bereitstellen&#10;von Informationen obhängig von einem&#10;Events des Webservers" style="text;strokeColor=none;fillColor=none;align=left;verticalAlign=top;spacingLeft=4;spacingRight=4;overflow=hidden;rotatable=0;points=[[0,0.5],[1,0.5]];portConstraint=eastwest;rounded=1;shadow=0;glass=0;dashed=1;autosize=1;" vertex="1" parent="163">
                    <mxGeometry y="100" width="250" height="60" as="geometry"/>
                </mxCell>
                <mxCell id="172" value="JCA::IOT::SimpleCallback" style="swimlane;fontStyle=1;align=center;verticalAlign=top;childLayout=stackLayout;horizontal=1;startSize=26;horizontalStack=0;resizeParent=1;resizeParentMax=0;resizeLast=0;collapsible=1;marginBottom=0;rounded=1;" vertex="1" parent="1">
                    <mxGeometry x="1120" y="600" width="250" height="120" as="geometry">
                        <mxRectangle x="80" y="80" width="100" height="26" as="alternateBounds"/>
                    </mxGeometry>
                </mxCell>
                <mxCell id="173" value="std::function : void" style="text;strokeColor=none;fillColor=none;align=left;verticalAlign=top;spacingLeft=4;spacingRight=4;overflow=hidden;rotatable=0;points=[[0,0.5],[1,0.5]];portConstraint=eastwest;rounded=1;shadow=0;glass=0;dashed=1;" vertex="1" parent="172">
                    <mxGeometry y="26" width="250" height="26" as="geometry"/>
                </mxCell>
                <mxCell id="174" value="" style="line;strokeWidth=1;fillColor=none;align=left;verticalAlign=middle;spacingTop=-1;spacingLeft=3;spacingRight=3;rotatable=0;labelPosition=right;points=[];portConstraint=eastwest;rounded=1;shadow=0;glass=0;" vertex="1" parent="172">
                    <mxGeometry y="52" width="250" height="4" as="geometry"/>
                </mxCell>
                <mxCell id="175" value="+ void" style="text;strokeColor=none;fillColor=none;align=left;verticalAlign=middle;spacingLeft=4;spacingRight=4;overflow=hidden;rotatable=0;points=[[0,0.5],[1,0.5]];portConstraint=eastwest;rounded=1;shadow=0;glass=0;" vertex="1" parent="172">
                    <mxGeometry y="56" width="250" height="20" as="geometry"/>
                </mxCell>
                <mxCell id="204" value="" style="line;strokeWidth=1;fillColor=none;align=left;verticalAlign=middle;spacingTop=-1;spacingLeft=3;spacingRight=3;rotatable=0;labelPosition=right;points=[];portConstraint=eastwest;rounded=1;shadow=0;glass=0;" vertex="1" parent="172">
                    <mxGeometry y="76" width="250" height="4" as="geometry"/>
                </mxCell>
                <mxCell id="201" value="Einfache funktion die bei einem Ereignis&#10;ausgeführt wird" style="text;strokeColor=none;fillColor=none;align=left;verticalAlign=top;spacingLeft=4;spacingRight=4;overflow=hidden;rotatable=0;points=[[0,0.5],[1,0.5]];portConstraint=eastwest;rounded=1;shadow=0;glass=0;dashed=1;autosize=1;" vertex="1" parent="172">
                    <mxGeometry y="80" width="250" height="40" as="geometry"/>
                </mxCell>
                <mxCell id="187" style="edgeStyle=orthogonalEdgeStyle;html=1;exitX=0;exitY=0.5;exitDx=0;exitDy=0;entryX=1;entryY=0.5;entryDx=0;entryDy=0;startArrow=classic;startFill=1;" edge="1" parent="1" source="173" target="97">
                    <mxGeometry relative="1" as="geometry"/>
                </mxCell>
                <mxCell id="188" style="edgeStyle=orthogonalEdgeStyle;html=1;exitX=0;exitY=0.5;exitDx=0;exitDy=0;entryX=1;entryY=0.5;entryDx=0;entryDy=0;startArrow=classic;startFill=1;" edge="1" parent="1" source="173" target="98">
                    <mxGeometry relative="1" as="geometry"/>
                </mxCell>
                <mxCell id="189" style="edgeStyle=orthogonalEdgeStyle;html=1;exitX=0;exitY=0.5;exitDx=0;exitDy=0;startArrow=classic;startFill=1;entryX=1;entryY=0.5;entryDx=0;entryDy=0;" edge="1" parent="1" source="170" target="112">
                    <mxGeometry relative="1" as="geometry">
                        <mxPoint x="1010" y="969.9999999999998" as="targetPoint"/>
                    </mxGeometry>
                </mxCell>
                <mxCell id="190" style="edgeStyle=orthogonalEdgeStyle;html=1;exitX=0;exitY=0.5;exitDx=0;exitDy=0;entryX=1;entryY=0.5;entryDx=0;entryDy=0;startArrow=classic;startFill=1;" edge="1" parent="1" source="170" target="113">
                    <mxGeometry relative="1" as="geometry"/>
                </mxCell>
                <mxCell id="191" style="edgeStyle=orthogonalEdgeStyle;html=1;exitX=0;exitY=0.5;exitDx=0;exitDy=0;entryX=1;entryY=0.5;entryDx=0;entryDy=0;startArrow=classic;startFill=1;" edge="1" parent="1" source="170" target="114">
                    <mxGeometry relative="1" as="geometry"/>
                </mxCell>
                <mxCell id="192" style="edgeStyle=orthogonalEdgeStyle;html=1;exitX=0;exitY=0.5;exitDx=0;exitDy=0;entryX=1;entryY=0.5;entryDx=0;entryDy=0;startArrow=classic;startFill=1;" edge="1" parent="1" source="170" target="115">
                    <mxGeometry relative="1" as="geometry"/>
                </mxCell>
                <mxCell id="193" style="edgeStyle=orthogonalEdgeStyle;html=1;exitX=0;exitY=0.5;exitDx=0;exitDy=0;entryX=1;entryY=0.5;entryDx=0;entryDy=0;startArrow=classic;startFill=1;" edge="1" parent="1" source="170" target="116">
                    <mxGeometry relative="1" as="geometry"/>
                </mxCell>
                <mxCell id="194" style="edgeStyle=orthogonalEdgeStyle;html=1;exitX=0;exitY=0.5;exitDx=0;exitDy=0;entryX=1;entryY=0.5;entryDx=0;entryDy=0;startArrow=classic;startFill=1;" edge="1" parent="1" source="170" target="118">
                    <mxGeometry relative="1" as="geometry"/>
                </mxCell>
                <mxCell id="195" style="edgeStyle=orthogonalEdgeStyle;html=1;exitX=0;exitY=0.5;exitDx=0;exitDy=0;entryX=1;entryY=0.5;entryDx=0;entryDy=0;startArrow=classic;startFill=1;" edge="1" parent="1" source="170" target="119">
                    <mxGeometry relative="1" as="geometry"/>
                </mxCell>
                <mxCell id="197" value="AwsTemplateProcessor" style="swimlane;fontStyle=1;align=center;verticalAlign=top;childLayout=stackLayout;horizontal=1;startSize=26;horizontalStack=0;resizeParent=1;resizeParentMax=0;resizeLast=0;collapsible=1;marginBottom=0;rounded=1;" vertex="1" parent="1">
                    <mxGeometry x="1120" y="780" width="249" height="120" as="geometry">
                        <mxRectangle x="80" y="80" width="100" height="26" as="alternateBounds"/>
                    </mxGeometry>
                </mxCell>
                <mxCell id="198" value="std::function : String" style="text;strokeColor=none;fillColor=none;align=left;verticalAlign=top;spacingLeft=4;spacingRight=4;overflow=hidden;rotatable=0;points=[[0,0.5],[1,0.5]];portConstraint=eastwest;rounded=1;shadow=0;glass=0;dashed=1;" vertex="1" parent="197">
                    <mxGeometry y="26" width="249" height="26" as="geometry"/>
                </mxCell>
                <mxCell id="199" value="" style="line;strokeWidth=1;fillColor=none;align=left;verticalAlign=middle;spacingTop=-1;spacingLeft=3;spacingRight=3;rotatable=0;labelPosition=right;points=[];portConstraint=eastwest;rounded=1;shadow=0;glass=0;" vertex="1" parent="197">
                    <mxGeometry y="52" width="249" height="4" as="geometry"/>
                </mxCell>
                <mxCell id="200" value="+ const String &amp;_In" style="text;strokeColor=none;fillColor=none;align=left;verticalAlign=middle;spacingLeft=4;spacingRight=4;overflow=hidden;rotatable=0;points=[[0,0.5],[1,0.5]];portConstraint=eastwest;rounded=1;shadow=0;glass=0;" vertex="1" parent="197">
                    <mxGeometry y="56" width="249" height="20" as="geometry"/>
                </mxCell>
                <mxCell id="205" value="" style="line;strokeWidth=1;fillColor=none;align=left;verticalAlign=middle;spacingTop=-1;spacingLeft=3;spacingRight=3;rotatable=0;labelPosition=right;points=[];portConstraint=eastwest;rounded=1;shadow=0;glass=0;" vertex="1" parent="197">
                    <mxGeometry y="76" width="249" height="4" as="geometry"/>
                </mxCell>
                <mxCell id="203" value="Funktion zum ersetzen von Wildcards&#10;innerhalb von Webseiten" style="text;strokeColor=none;fillColor=none;align=left;verticalAlign=top;spacingLeft=4;spacingRight=4;overflow=hidden;rotatable=0;points=[[0,0.5],[1,0.5]];portConstraint=eastwest;rounded=1;shadow=0;glass=0;dashed=1;autosize=1;" vertex="1" parent="197">
                    <mxGeometry y="80" width="249" height="40" as="geometry"/>
                </mxCell>
                <mxCell id="207" style="edgeStyle=orthogonalEdgeStyle;html=1;exitX=0;exitY=0.5;exitDx=0;exitDy=0;entryX=1;entryY=0.5;entryDx=0;entryDy=0;startArrow=classic;startFill=1;" edge="1" parent="1" source="198" target="108">
                    <mxGeometry relative="1" as="geometry"/>
                </mxCell>
                <mxCell id="208" style="edgeStyle=orthogonalEdgeStyle;html=1;exitX=0;exitY=0.5;exitDx=0;exitDy=0;entryX=1;entryY=0.5;entryDx=0;entryDy=0;startArrow=classic;startFill=1;" edge="1" parent="1" source="198" target="110">
                    <mxGeometry relative="1" as="geometry"/>
                </mxCell>
            </root>
        </mxGraphModel>
    </diagram>
</mxfile>